G04 #@! TF.FileFunction,Copper,L1,Top,Signal*
%FSLAX46Y46*%
G04 Gerber Fmt 4.6, Leading zero omitted, Abs format (unit mm)*
G04 Created by KiCad (PCBNEW 4.0.2-stable) date 2017-02-13 18:05:18*
%MOMM*%
G01*
G04 APERTURE LIST*
%ADD10C,0.100000*%
%ADD11C,0.381000*%
%ADD12C,1.200000*%
%ADD13O,1.501140X4.000500*%
%ADD14C,5.000000*%
%ADD15C,2.000000*%
%ADD16R,1.500000X1.250000*%
%ADD17R,2.000000X2.000000*%
%ADD18R,3.500000X1.800000*%
%ADD19R,1.800000X3.500000*%
%ADD20R,1.800000X1.800000*%
%ADD21C,1.800000*%
%ADD22C,3.000000*%
%ADD23R,4.600000X1.100000*%
%ADD24R,9.400000X10.800000*%
%ADD25R,1.600000X2.400000*%
%ADD26O,1.600000X2.400000*%
%ADD27C,2.400000*%
%ADD28C,1.600000*%
%ADD29R,1.300000X1.500000*%
%ADD30R,1.500000X1.300000*%
%ADD31C,1.400000*%
%ADD32O,1.400000X1.400000*%
%ADD33R,2.000000X3.500000*%
%ADD34R,7.000000X7.000000*%
%ADD35O,1.501140X0.899160*%
%ADD36R,1.501140X0.899160*%
%ADD37R,1.600000X1.600000*%
%ADD38O,1.600000X1.600000*%
%ADD39O,1.699260X3.500120*%
%ADD40R,2.000000X2.600000*%
%ADD41O,2.000000X2.600000*%
%ADD42R,1.700000X1.700000*%
%ADD43O,1.700000X1.700000*%
%ADD44R,1.574800X2.286000*%
%ADD45O,1.574800X2.286000*%
%ADD46R,1.500000X1.500000*%
%ADD47C,1.500000*%
%ADD48C,3.200000*%
%ADD49R,2.600000X2.000000*%
%ADD50O,2.600000X2.000000*%
%ADD51R,2.400000X2.400000*%
%ADD52O,2.400000X2.400000*%
%ADD53C,0.600000*%
%ADD54C,0.812800*%
%ADD55C,1.270000*%
%ADD56C,2.540000*%
%ADD57C,1.016000*%
%ADD58C,0.254000*%
%ADD59C,0.508000*%
%ADD60C,0.030000*%
G04 APERTURE END LIST*
D10*
D11*
X63897000Y-90106000D02*
X62500000Y-92011000D01*
X62500000Y-92011000D02*
X63770000Y-92011000D01*
X62246000Y-93916000D02*
X62119000Y-94932000D01*
X62119000Y-94932000D02*
X62881000Y-94297000D01*
X62881000Y-94297000D02*
X62373000Y-94551000D01*
X62373000Y-94551000D02*
X64151000Y-91757000D01*
X64151000Y-91757000D02*
X62881000Y-91757000D01*
X62881000Y-91757000D02*
X64659000Y-89725000D01*
X64659000Y-89725000D02*
X63897000Y-90233000D01*
X63897000Y-90233000D02*
X63770000Y-89725000D01*
X63643000Y-89852000D02*
X62119000Y-92138000D01*
X62119000Y-92138000D02*
X63516000Y-92138000D01*
X63516000Y-92138000D02*
X62373000Y-94424000D01*
X62373000Y-94424000D02*
X62246000Y-93916000D01*
D12*
X90700000Y-83500000D03*
X94700000Y-85300000D03*
X92900000Y-86000000D03*
X91700000Y-85300000D03*
X88700000Y-85300000D03*
X85700000Y-85300000D03*
X86700000Y-86000000D03*
X94700000Y-83900000D03*
X93000000Y-83700000D03*
X91700000Y-83900000D03*
X90400000Y-86000000D03*
X88700000Y-83900000D03*
X85700000Y-83900000D03*
X96200000Y-82500000D03*
X94700000Y-82500000D03*
X93200000Y-82500000D03*
X91700000Y-82500000D03*
X90200000Y-82500000D03*
X88700000Y-82500000D03*
X87200000Y-82500000D03*
X85700000Y-82500000D03*
X96200000Y-81100000D03*
X94700000Y-81100000D03*
X93200000Y-81100000D03*
X91700000Y-81100000D03*
X90200000Y-81100000D03*
X88700000Y-81100000D03*
X87200000Y-81100000D03*
X85700000Y-81100000D03*
X96200000Y-79700000D03*
X94700000Y-79700000D03*
X93200000Y-79700000D03*
X91700000Y-79700000D03*
X90200000Y-79700000D03*
X88700000Y-79700000D03*
X87200000Y-79700000D03*
X85700000Y-79700000D03*
X96200000Y-78300000D03*
X94700000Y-78300000D03*
X93200000Y-78300000D03*
X91700000Y-78300000D03*
X90200000Y-78300000D03*
X88700000Y-78300000D03*
X87200000Y-78300000D03*
X85700000Y-78300000D03*
X96200000Y-76900000D03*
X94700000Y-76900000D03*
X93200000Y-76900000D03*
X91700000Y-76900000D03*
X90200000Y-76900000D03*
X88700000Y-76900000D03*
X87200000Y-76900000D03*
X85700000Y-76900000D03*
X96200000Y-75500000D03*
X93200000Y-75500000D03*
X91700000Y-75500000D03*
X90200000Y-75500000D03*
X94900000Y-70700000D03*
X87200000Y-75500000D03*
X85700000Y-75500000D03*
X94700000Y-74100000D03*
X95700000Y-71600000D03*
X91700000Y-74100000D03*
X93900000Y-71200000D03*
X88700000Y-74100000D03*
X94000000Y-69900000D03*
X85700000Y-74100000D03*
X94700000Y-72700000D03*
X93200000Y-72700000D03*
X91700000Y-72700000D03*
X90200000Y-72700000D03*
X88700000Y-72700000D03*
X87200000Y-72700000D03*
X85700000Y-72700000D03*
X89300000Y-69000000D03*
X87800000Y-69000000D03*
X86300000Y-69000000D03*
X89300000Y-67700000D03*
X87800000Y-67700000D03*
X86300000Y-67700000D03*
X89300000Y-66400000D03*
X87800000Y-66400000D03*
X86300000Y-66400000D03*
X85100000Y-65800000D03*
X83600000Y-65800000D03*
X87400000Y-64600000D03*
X85900000Y-64600000D03*
X84400000Y-64600000D03*
X87400000Y-63100000D03*
X85900000Y-63100000D03*
X82500000Y-86000000D03*
X79900000Y-85600000D03*
X78200000Y-86000000D03*
X76900000Y-85600000D03*
X75400000Y-85600000D03*
X73900000Y-85600000D03*
X72200000Y-86000000D03*
X70900000Y-85600000D03*
X82500000Y-84700000D03*
X79900000Y-84100000D03*
X82900000Y-63100000D03*
X76900000Y-84100000D03*
X75400000Y-84100000D03*
X73900000Y-84100000D03*
X72400000Y-84100000D03*
X70900000Y-84100000D03*
X81400000Y-82600000D03*
X79900000Y-82600000D03*
X78400000Y-82600000D03*
X76900000Y-82600000D03*
X75400000Y-82600000D03*
X73900000Y-82600000D03*
X72400000Y-82600000D03*
X70900000Y-82600000D03*
X81400000Y-81100000D03*
X79900000Y-81100000D03*
X78400000Y-81100000D03*
X76900000Y-81100000D03*
X75400000Y-81100000D03*
X73900000Y-81100000D03*
X72400000Y-81100000D03*
X70900000Y-81100000D03*
X81400000Y-79600000D03*
X79900000Y-79600000D03*
X78400000Y-79600000D03*
X76900000Y-79600000D03*
X75400000Y-79600000D03*
X73900000Y-79600000D03*
X72400000Y-79600000D03*
X70900000Y-79600000D03*
X81400000Y-78100000D03*
X79900000Y-78100000D03*
X78400000Y-78100000D03*
X76900000Y-78100000D03*
X75400000Y-78100000D03*
X73900000Y-78100000D03*
X72400000Y-78100000D03*
X70900000Y-78100000D03*
X81400000Y-76600000D03*
X79900000Y-76600000D03*
X78400000Y-76600000D03*
X76900000Y-76600000D03*
X75400000Y-76600000D03*
X73900000Y-76600000D03*
X72400000Y-76600000D03*
X70900000Y-76600000D03*
X81400000Y-75100000D03*
X82500000Y-73500000D03*
X78400000Y-75100000D03*
X76900000Y-75100000D03*
X75400000Y-75100000D03*
X82500000Y-78900000D03*
X72400000Y-75100000D03*
X70900000Y-75100000D03*
X82500000Y-71400000D03*
X79900000Y-73600000D03*
X82500000Y-77400000D03*
X76900000Y-73600000D03*
X82500000Y-81800000D03*
X73900000Y-73600000D03*
X72400000Y-73600000D03*
X70900000Y-73600000D03*
X81400000Y-72100000D03*
X82500000Y-75900000D03*
X78400000Y-72100000D03*
X76900000Y-72100000D03*
X75400000Y-72100000D03*
X82500000Y-80400000D03*
X82500000Y-83300000D03*
X70900000Y-72100000D03*
X81400000Y-70600000D03*
X79900000Y-70600000D03*
X78400000Y-70600000D03*
X76900000Y-70600000D03*
X75400000Y-70600000D03*
X73900000Y-70600000D03*
X72400000Y-70600000D03*
X70900000Y-70600000D03*
X81400000Y-69100000D03*
X79900000Y-69100000D03*
X78400000Y-69100000D03*
X76900000Y-69100000D03*
X75400000Y-69100000D03*
X73900000Y-69100000D03*
X72400000Y-69100000D03*
X70900000Y-69100000D03*
X81400000Y-67600000D03*
X79900000Y-67600000D03*
X78400000Y-67600000D03*
X84400000Y-63100000D03*
X75100000Y-67800000D03*
X73900000Y-67600000D03*
X72400000Y-67600000D03*
X70900000Y-67600000D03*
X81400000Y-66100000D03*
X79900000Y-66100000D03*
X78400000Y-66100000D03*
X82900000Y-64600000D03*
X77100000Y-65800000D03*
X73900000Y-66100000D03*
X72400000Y-66100000D03*
X70900000Y-66100000D03*
X81400000Y-64600000D03*
X79900000Y-64600000D03*
X78400000Y-64600000D03*
X76900000Y-64600000D03*
X75400000Y-64600000D03*
X73900000Y-64600000D03*
X72400000Y-64600000D03*
X70900000Y-64600000D03*
X81400000Y-63100000D03*
X79900000Y-63100000D03*
X78400000Y-63100000D03*
X76900000Y-63100000D03*
X75400000Y-63100000D03*
X73900000Y-63100000D03*
X72400000Y-63100000D03*
D13*
X111400840Y-50699420D03*
X113940840Y-50699420D03*
X116480840Y-50699420D03*
X119020840Y-50699420D03*
X121560840Y-50699420D03*
X124100840Y-50699420D03*
X126640840Y-50699420D03*
X129180840Y-50699420D03*
X131720840Y-50699420D03*
X134260840Y-50699420D03*
X136800840Y-50699420D03*
X139340840Y-50699420D03*
X141880840Y-50699420D03*
X144420840Y-50699420D03*
X146960840Y-50699420D03*
X149500840Y-50699420D03*
D14*
X196900000Y-50700000D03*
X103900000Y-105700000D03*
D15*
X76600000Y-115900160D03*
X76600000Y-123499840D03*
D16*
X114050000Y-54900000D03*
X111550000Y-54900000D03*
D17*
X154300000Y-91900000D03*
D15*
X154300000Y-86900000D03*
D17*
X152300000Y-92572144D03*
D15*
X156300000Y-86227856D03*
D17*
X163700000Y-113100000D03*
D15*
X163700000Y-118100000D03*
D17*
X165700000Y-112427856D03*
D15*
X161700000Y-118772144D03*
D16*
X172250000Y-131000000D03*
X174750000Y-131000000D03*
D17*
X176900000Y-149900000D03*
D15*
X176900000Y-144900000D03*
D17*
X174900000Y-150572144D03*
D15*
X178900000Y-144227856D03*
X64500000Y-68700000D03*
X64500000Y-76200000D03*
D18*
X212600000Y-146400000D03*
X217600000Y-146400000D03*
D19*
X161900000Y-100400000D03*
X161900000Y-95400000D03*
D20*
X94700000Y-92900000D03*
D21*
X97240000Y-92900000D03*
D20*
X94700000Y-100500000D03*
D21*
X97240000Y-100500000D03*
D22*
X207600000Y-149900000D03*
X185100000Y-149900000D03*
D23*
X167120000Y-106000000D03*
X167120000Y-104300000D03*
X167120000Y-100900000D03*
D24*
X176280000Y-102600000D03*
D23*
X167120000Y-102600000D03*
X167120000Y-99200000D03*
D25*
X169200000Y-123200000D03*
D26*
X166660000Y-130820000D03*
X166660000Y-123200000D03*
X169200000Y-130820000D03*
D27*
X151900000Y-100400000D03*
X151900000Y-108400000D03*
D28*
X203200000Y-49800000D03*
X205700000Y-47300000D03*
X208200000Y-49800000D03*
X222200000Y-151500000D03*
X227200000Y-152750000D03*
D29*
X147100000Y-55050000D03*
X147100000Y-57750000D03*
X109300000Y-121950000D03*
X109300000Y-124650000D03*
X106700000Y-121950000D03*
X106700000Y-124650000D03*
X129500000Y-119150000D03*
X129500000Y-116450000D03*
X127000000Y-119150000D03*
X127000000Y-116450000D03*
X104200000Y-121950000D03*
X104200000Y-124650000D03*
X101700000Y-121950000D03*
X101700000Y-124650000D03*
D30*
X124550000Y-124300000D03*
X121850000Y-124300000D03*
X91650000Y-103100000D03*
X88950000Y-103100000D03*
D29*
X97300000Y-107250000D03*
X97300000Y-104550000D03*
D30*
X91650000Y-105900000D03*
X88950000Y-105900000D03*
D29*
X173300000Y-124150000D03*
X173300000Y-121450000D03*
D30*
X103050000Y-78300000D03*
X100350000Y-78300000D03*
D29*
X103100000Y-72950000D03*
X103100000Y-75650000D03*
X108600000Y-79050000D03*
X108600000Y-76350000D03*
D30*
X103950000Y-82200000D03*
X106650000Y-82200000D03*
D29*
X173200000Y-137550000D03*
X173200000Y-140250000D03*
D30*
X169350000Y-134700000D03*
X166650000Y-134700000D03*
D29*
X106700000Y-117650000D03*
X106700000Y-114950000D03*
X90900000Y-153050000D03*
X90900000Y-150350000D03*
D31*
X64500000Y-81400000D03*
D32*
X64500000Y-83940000D03*
D21*
X83600000Y-68100000D03*
X76100000Y-66700000D03*
D30*
X93750000Y-117300000D03*
X96450000Y-117300000D03*
D29*
X80800000Y-131250000D03*
X80800000Y-133950000D03*
D33*
X161790000Y-130300000D03*
X157210000Y-130300000D03*
D34*
X159490000Y-137700000D03*
D35*
X76600000Y-131730000D03*
X76600000Y-130460000D03*
D36*
X76600000Y-133000000D03*
D37*
X114400000Y-72800000D03*
D38*
X106780000Y-67720000D03*
X114400000Y-70260000D03*
X106780000Y-70260000D03*
X114400000Y-67720000D03*
X106780000Y-72800000D03*
D39*
X94200000Y-67500000D03*
X91660000Y-67500000D03*
X96740000Y-67500000D03*
D40*
X222300000Y-146200000D03*
D41*
X224840000Y-146200000D03*
X227380000Y-146200000D03*
D42*
X138400000Y-113500000D03*
D43*
X138400000Y-116040000D03*
X138400000Y-118580000D03*
X138400000Y-121120000D03*
X138400000Y-123660000D03*
X138400000Y-126200000D03*
D44*
X129550000Y-112380000D03*
D45*
X127010000Y-112380000D03*
X124470000Y-112380000D03*
X121930000Y-112380000D03*
X119390000Y-112380000D03*
X116850000Y-112380000D03*
X114310000Y-112380000D03*
X111770000Y-112380000D03*
X109230000Y-112380000D03*
X106690000Y-112380000D03*
X104150000Y-112380000D03*
X101610000Y-112380000D03*
X99070000Y-112380000D03*
X96530000Y-112380000D03*
X93990000Y-112380000D03*
X93990000Y-127620000D03*
X96530000Y-127620000D03*
X99070000Y-127620000D03*
X101610000Y-127620000D03*
X104150000Y-127620000D03*
X106690000Y-127620000D03*
X109230000Y-127620000D03*
X111770000Y-127620000D03*
X114310000Y-127620000D03*
X116850000Y-127620000D03*
X119390000Y-127620000D03*
X121930000Y-127620000D03*
X124470000Y-127620000D03*
X127010000Y-127620000D03*
X129550000Y-127620000D03*
D42*
X111800000Y-133000000D03*
D43*
X109260000Y-133000000D03*
X106720000Y-133000000D03*
X104180000Y-133000000D03*
X101640000Y-133000000D03*
D46*
X90900000Y-146300000D03*
D47*
X90900000Y-144300000D03*
X90900000Y-142300000D03*
D48*
X94900000Y-84900000D03*
X88600000Y-84900000D03*
X94900000Y-73900000D03*
X88600000Y-73900000D03*
X79900000Y-84600000D03*
X73600000Y-84600000D03*
X79900000Y-73600000D03*
X73600000Y-73600000D03*
D49*
X159300000Y-150000000D03*
D50*
X159300000Y-147460000D03*
D51*
X166600000Y-143600000D03*
D52*
X166600000Y-138520000D03*
D51*
X166600000Y-152700000D03*
D52*
X166600000Y-147620000D03*
D12*
X70900000Y-63100000D03*
D53*
X161900000Y-92800000D03*
X160800000Y-92900000D03*
X138700000Y-100000000D03*
X171000000Y-134700000D03*
X80800000Y-135900000D03*
X156100000Y-128000000D03*
X158200000Y-128000000D03*
X157200000Y-128100000D03*
X158700000Y-129500000D03*
X158900000Y-130300000D03*
X158600000Y-131200000D03*
X155700000Y-131200000D03*
X155600000Y-129500000D03*
X155000000Y-130300000D03*
X174800000Y-132800000D03*
X181800000Y-101300000D03*
X181900000Y-99900000D03*
X181900000Y-98500000D03*
X181900000Y-97300000D03*
X181800000Y-104000000D03*
X181900000Y-105400000D03*
X181800000Y-106700000D03*
X181700000Y-107800000D03*
X181800000Y-102600000D03*
X168600000Y-107100000D03*
X167100000Y-107200000D03*
X165000000Y-107100000D03*
X163000000Y-92900000D03*
X164200000Y-106000000D03*
X164200000Y-102600000D03*
X178400000Y-47800000D03*
X186100000Y-47300000D03*
X110500000Y-97700000D03*
X111900000Y-97800000D03*
X132800000Y-98100000D03*
X132800000Y-104300000D03*
X134700000Y-98100000D03*
X134700000Y-103200000D03*
X137100000Y-98100000D03*
X136400000Y-102100000D03*
X88500000Y-90100000D03*
D54*
X82199840Y-115900160D02*
X76600000Y-115900160D01*
X90300000Y-107800000D02*
X82199840Y-115900160D01*
X90300000Y-100200000D02*
X90300000Y-107800000D01*
X92200000Y-98300000D02*
X90300000Y-100200000D01*
X99100000Y-98300000D02*
X92200000Y-98300000D01*
X100700000Y-99900000D02*
X99100000Y-98300000D01*
X138600000Y-99900000D02*
X100700000Y-99900000D01*
X138700000Y-100000000D02*
X138600000Y-99900000D01*
D55*
X167120000Y-99200000D02*
X167120000Y-97280000D01*
X208700000Y-142500000D02*
X212600000Y-146400000D01*
X186800000Y-142500000D02*
X208700000Y-142500000D01*
X185800000Y-141500000D02*
X186800000Y-142500000D01*
X185800000Y-97000000D02*
X185800000Y-141500000D01*
X183600000Y-94800000D02*
X185800000Y-97000000D01*
X169600000Y-94800000D02*
X183600000Y-94800000D01*
X167120000Y-97280000D02*
X169600000Y-94800000D01*
D56*
X207600000Y-149900000D02*
X207600000Y-149600000D01*
X212600000Y-146400000D02*
X211100000Y-146400000D01*
X211100000Y-146400000D02*
X207600000Y-149900000D01*
D54*
X152300000Y-92572144D02*
X152872144Y-92572144D01*
X152872144Y-92572144D02*
X154300000Y-94000000D01*
X154300000Y-91900000D02*
X154300000Y-94000000D01*
X154300000Y-94000000D02*
X154300000Y-95000000D01*
X165820000Y-97900000D02*
X167120000Y-99200000D01*
X157200000Y-97900000D02*
X165820000Y-97900000D01*
X154300000Y-95000000D02*
X157200000Y-97900000D01*
X76600000Y-130460000D02*
X76600000Y-123499840D01*
D57*
X163700000Y-113100000D02*
X165027856Y-113100000D01*
X165027856Y-113100000D02*
X165700000Y-112427856D01*
D58*
X121850000Y-124300000D02*
X121600000Y-124300000D01*
X121600000Y-124300000D02*
X119250000Y-121950000D01*
X119250000Y-121950000D02*
X109300000Y-121950000D01*
D54*
X114050000Y-54900000D02*
X114050000Y-50808580D01*
X114050000Y-50808580D02*
X113940840Y-50699420D01*
D58*
X147100000Y-57750000D02*
X151250000Y-57750000D01*
X156400000Y-49800000D02*
X182900000Y-49800000D01*
X155200000Y-51000000D02*
X156400000Y-49800000D01*
X155200000Y-53800000D02*
X155200000Y-51000000D01*
X151250000Y-57750000D02*
X155200000Y-53800000D01*
X203200000Y-49800000D02*
X203200000Y-50200000D01*
X203200000Y-50200000D02*
X198400000Y-55000000D01*
X198400000Y-55000000D02*
X185400000Y-55000000D01*
X90900000Y-153050000D02*
X92850000Y-153050000D01*
X100550000Y-121950000D02*
X101700000Y-121950000D01*
X100300000Y-122200000D02*
X100550000Y-121950000D01*
X100300000Y-129300000D02*
X100300000Y-122200000D01*
X96900000Y-132700000D02*
X100300000Y-129300000D01*
X95300000Y-132700000D02*
X96900000Y-132700000D01*
X93600000Y-134400000D02*
X95300000Y-132700000D01*
X93600000Y-152300000D02*
X93600000Y-134400000D01*
X92850000Y-153050000D02*
X93600000Y-152300000D01*
D54*
X121930000Y-127620000D02*
X121930000Y-124380000D01*
X121930000Y-124380000D02*
X119500000Y-121950000D01*
X119500000Y-121950000D02*
X106700000Y-121950000D01*
X106700000Y-121950000D02*
X106700000Y-117650000D01*
D57*
X104200000Y-121950000D02*
X106700000Y-121950000D01*
X101700000Y-121950000D02*
X104200000Y-121950000D01*
D54*
X121930000Y-131230000D02*
X121930000Y-127620000D01*
X123600000Y-132900000D02*
X121930000Y-131230000D01*
X163700000Y-113100000D02*
X163700000Y-113900000D01*
X163700000Y-113900000D02*
X168700000Y-118900000D01*
X138600000Y-132900000D02*
X123600000Y-132900000D01*
X146200000Y-125300000D02*
X138600000Y-132900000D01*
X162900000Y-125300000D02*
X146200000Y-125300000D01*
X164400000Y-126800000D02*
X162900000Y-125300000D01*
X174300000Y-126800000D02*
X164400000Y-126800000D01*
X175800000Y-125300000D02*
X174300000Y-126800000D01*
X175800000Y-120500000D02*
X175800000Y-125300000D01*
X174200000Y-118900000D02*
X175800000Y-120500000D01*
X168700000Y-118900000D02*
X174200000Y-118900000D01*
D57*
X121850000Y-127540000D02*
X121930000Y-127620000D01*
X113940840Y-50699420D02*
X113940840Y-48259160D01*
X145500000Y-108400000D02*
X151900000Y-108400000D01*
X142800000Y-105700000D02*
X145500000Y-108400000D01*
X142800000Y-84700000D02*
X142800000Y-105700000D01*
X145400000Y-82100000D02*
X142800000Y-84700000D01*
X184500000Y-82100000D02*
X145400000Y-82100000D01*
X185400000Y-81200000D02*
X184500000Y-82100000D01*
X185400000Y-69400000D02*
X185400000Y-81200000D01*
X185400000Y-52300000D02*
X185400000Y-55000000D01*
X185400000Y-55000000D02*
X185400000Y-69400000D01*
X179700000Y-46600000D02*
X182900000Y-49800000D01*
X182900000Y-49800000D02*
X185400000Y-52300000D01*
X115600000Y-46600000D02*
X179700000Y-46600000D01*
X113940840Y-48259160D02*
X115600000Y-46600000D01*
D11*
X167120000Y-104300000D02*
X163200000Y-104300000D01*
X161672144Y-105827856D02*
X161672144Y-108400000D01*
X163200000Y-104300000D02*
X161672144Y-105827856D01*
D56*
X151900000Y-108400000D02*
X161672144Y-108400000D01*
X161672144Y-108400000D02*
X165700000Y-112427856D01*
D54*
X169350000Y-134700000D02*
X171000000Y-134700000D01*
D59*
X80800000Y-133950000D02*
X80800000Y-135900000D01*
X157210000Y-130300000D02*
X157210000Y-129110000D01*
X157210000Y-129110000D02*
X156100000Y-128000000D01*
X157210000Y-130300000D02*
X157210000Y-128990000D01*
X157210000Y-128990000D02*
X158200000Y-128000000D01*
X157210000Y-130300000D02*
X157210000Y-128110000D01*
X157210000Y-128110000D02*
X157200000Y-128100000D01*
X157210000Y-130300000D02*
X157900000Y-130300000D01*
X157900000Y-130300000D02*
X158700000Y-129500000D01*
X157210000Y-130300000D02*
X158900000Y-130300000D01*
X157210000Y-130300000D02*
X157700000Y-130300000D01*
X157700000Y-130300000D02*
X158600000Y-131200000D01*
X157210000Y-130300000D02*
X156600000Y-130300000D01*
X156600000Y-130300000D02*
X155700000Y-131200000D01*
X157210000Y-130300000D02*
X156400000Y-130300000D01*
X156400000Y-130300000D02*
X155600000Y-129500000D01*
X157210000Y-130300000D02*
X155000000Y-130300000D01*
X174750000Y-131000000D02*
X174750000Y-132750000D01*
X174750000Y-132750000D02*
X174800000Y-132800000D01*
X176280000Y-102600000D02*
X180500000Y-102600000D01*
X180500000Y-102600000D02*
X181800000Y-101300000D01*
X176280000Y-102600000D02*
X179200000Y-102600000D01*
X179200000Y-102600000D02*
X181900000Y-99900000D01*
X176280000Y-102600000D02*
X177800000Y-102600000D01*
X177800000Y-102600000D02*
X181900000Y-98500000D01*
X176280000Y-102600000D02*
X176600000Y-102600000D01*
X176600000Y-102600000D02*
X181900000Y-97300000D01*
X176280000Y-102600000D02*
X180400000Y-102600000D01*
X180400000Y-102600000D02*
X181800000Y-104000000D01*
X176280000Y-102600000D02*
X179100000Y-102600000D01*
X179100000Y-102600000D02*
X181900000Y-105400000D01*
X176280000Y-102600000D02*
X177700000Y-102600000D01*
X177700000Y-102600000D02*
X181800000Y-106700000D01*
X176280000Y-102600000D02*
X176500000Y-102600000D01*
X176500000Y-102600000D02*
X181700000Y-107800000D01*
X176280000Y-102600000D02*
X181800000Y-102600000D01*
X167120000Y-106000000D02*
X167500000Y-106000000D01*
X167500000Y-106000000D02*
X168600000Y-107100000D01*
X167120000Y-106000000D02*
X167120000Y-107180000D01*
X167120000Y-107180000D02*
X167100000Y-107200000D01*
X167120000Y-106000000D02*
X166100000Y-106000000D01*
X166100000Y-106000000D02*
X165000000Y-107100000D01*
X161900000Y-95400000D02*
X161900000Y-94000000D01*
X161900000Y-94000000D02*
X163000000Y-92900000D01*
X167120000Y-106000000D02*
X164200000Y-106000000D01*
X167120000Y-102600000D02*
X164200000Y-102600000D01*
D54*
X111550000Y-54900000D02*
X111550000Y-50848580D01*
X111550000Y-50848580D02*
X111400840Y-50699420D01*
X173200000Y-137550000D02*
X173200000Y-134900000D01*
X172250000Y-133950000D02*
X172250000Y-131000000D01*
X173200000Y-134900000D02*
X172250000Y-133950000D01*
X169200000Y-130820000D02*
X172070000Y-130820000D01*
X172070000Y-130820000D02*
X172250000Y-131000000D01*
X64500000Y-68700000D02*
X74100000Y-68700000D01*
X74100000Y-68700000D02*
X76100000Y-66700000D01*
X103950000Y-82200000D02*
X99900000Y-82200000D01*
X80600000Y-86600000D02*
X79900000Y-85900000D01*
X80600000Y-87100000D02*
X80600000Y-86600000D01*
X81500000Y-88000000D02*
X80600000Y-87100000D01*
X97700000Y-88000000D02*
X81500000Y-88000000D01*
X98300000Y-87400000D02*
X97700000Y-88000000D01*
X98300000Y-83800000D02*
X98300000Y-87400000D01*
X99900000Y-82200000D02*
X98300000Y-83800000D01*
X79900000Y-85900000D02*
X79900000Y-84600000D01*
X64500000Y-76200000D02*
X64500000Y-81400000D01*
D55*
X222300000Y-146200000D02*
X222300000Y-151400000D01*
X222300000Y-151400000D02*
X222200000Y-151500000D01*
X167120000Y-100900000D02*
X162400000Y-100900000D01*
X162400000Y-100900000D02*
X161900000Y-100400000D01*
D56*
X151900000Y-100400000D02*
X161900000Y-100400000D01*
D54*
X162400000Y-100900000D02*
X161900000Y-100400000D01*
D59*
X97240000Y-92900000D02*
X98700000Y-92900000D01*
X88800000Y-99900000D02*
X88800000Y-102950000D01*
X91700000Y-97000000D02*
X88800000Y-99900000D01*
X98300000Y-97000000D02*
X91700000Y-97000000D01*
X99800000Y-95500000D02*
X98300000Y-97000000D01*
X99800000Y-94000000D02*
X99800000Y-95500000D01*
X98700000Y-92900000D02*
X99800000Y-94000000D01*
X88800000Y-102950000D02*
X88950000Y-103100000D01*
X97300000Y-104550000D02*
X97300000Y-100560000D01*
X97300000Y-100560000D02*
X97240000Y-100500000D01*
D55*
X159490000Y-137700000D02*
X159490000Y-142190000D01*
X159490000Y-142190000D02*
X159500000Y-142200000D01*
X159300000Y-137890000D02*
X159490000Y-137700000D01*
D59*
X169200000Y-123200000D02*
X169200000Y-122100000D01*
X169200000Y-122100000D02*
X169850000Y-121450000D01*
X169850000Y-121450000D02*
X173300000Y-121450000D01*
D54*
X169200000Y-123200000D02*
X169200000Y-122800000D01*
X166650000Y-134700000D02*
X166650000Y-130830000D01*
X166650000Y-130830000D02*
X166660000Y-130820000D01*
X166660000Y-130820000D02*
X162310000Y-130820000D01*
X162310000Y-130820000D02*
X161790000Y-130300000D01*
D58*
X205700000Y-47300000D02*
X186100000Y-47300000D01*
X116480840Y-48419160D02*
X116480840Y-50699420D01*
X117300000Y-47600000D02*
X116480840Y-48419160D01*
X178200000Y-47600000D02*
X117300000Y-47600000D01*
X178400000Y-47800000D02*
X178200000Y-47600000D01*
X119020840Y-74079160D02*
X119020840Y-50699420D01*
X116100000Y-77000000D02*
X119020840Y-74079160D01*
X116100000Y-90000000D02*
X116100000Y-77000000D01*
X114000000Y-92100000D02*
X116100000Y-90000000D01*
X112100000Y-92100000D02*
X114000000Y-92100000D01*
X110800000Y-93400000D02*
X112100000Y-92100000D01*
X110800000Y-97400000D02*
X110800000Y-93400000D01*
X110500000Y-97700000D02*
X110800000Y-97400000D01*
X124100840Y-54299160D02*
X124100840Y-50699420D01*
X123400000Y-55000000D02*
X124100840Y-54299160D01*
X120600000Y-55000000D02*
X123400000Y-55000000D01*
X119800000Y-55800000D02*
X120600000Y-55000000D01*
X119800000Y-74600000D02*
X119800000Y-55800000D01*
X116900000Y-77500000D02*
X119800000Y-74600000D01*
X116900000Y-90500000D02*
X116900000Y-77500000D01*
X114500000Y-92900000D02*
X116900000Y-90500000D01*
X113200000Y-92900000D02*
X114500000Y-92900000D01*
X112100000Y-94000000D02*
X113200000Y-92900000D01*
X112100000Y-97600000D02*
X112100000Y-94000000D01*
X111900000Y-97800000D02*
X112100000Y-97600000D01*
X119390000Y-112380000D02*
X119390000Y-104610000D01*
X136800840Y-54000840D02*
X136800840Y-50699420D01*
X140200000Y-57400000D02*
X136800840Y-54000840D01*
X140200000Y-79800000D02*
X140200000Y-57400000D01*
X137900000Y-82100000D02*
X140200000Y-79800000D01*
X137900000Y-93000000D02*
X137900000Y-82100000D01*
X132800000Y-98100000D02*
X137900000Y-93000000D01*
X132700000Y-104400000D02*
X132800000Y-104300000D01*
X119600000Y-104400000D02*
X132700000Y-104400000D01*
X119390000Y-104610000D02*
X119600000Y-104400000D01*
X116850000Y-112380000D02*
X116850000Y-107450000D01*
X139340840Y-53740840D02*
X139340840Y-50699420D01*
X141700000Y-56100000D02*
X139340840Y-53740840D01*
X141700000Y-80200000D02*
X141700000Y-56100000D01*
X139300000Y-82600000D02*
X141700000Y-80200000D01*
X139300000Y-93500000D02*
X139300000Y-82600000D01*
X134700000Y-98100000D02*
X139300000Y-93500000D01*
X117500000Y-103200000D02*
X134700000Y-103200000D01*
X117200000Y-103500000D02*
X117500000Y-103200000D01*
X117200000Y-107100000D02*
X117200000Y-103500000D01*
X116850000Y-107450000D02*
X117200000Y-107100000D01*
X114310000Y-112380000D02*
X114310000Y-107790000D01*
X141880840Y-52980840D02*
X141880840Y-50699420D01*
X143500000Y-54600000D02*
X141880840Y-52980840D01*
X143500000Y-80300000D02*
X143500000Y-54600000D01*
X140500000Y-83300000D02*
X143500000Y-80300000D01*
X140500000Y-94700000D02*
X140500000Y-83300000D01*
X137100000Y-98100000D02*
X140500000Y-94700000D01*
X115900000Y-102100000D02*
X136400000Y-102100000D01*
X115800000Y-102200000D02*
X115900000Y-102100000D01*
X115800000Y-106300000D02*
X115800000Y-102200000D01*
X114310000Y-107790000D02*
X115800000Y-106300000D01*
X111770000Y-112380000D02*
X111770000Y-108230000D01*
X144420840Y-81079160D02*
X144420840Y-50699420D01*
X141600000Y-83900000D02*
X144420840Y-81079160D01*
X141600000Y-99200000D02*
X141600000Y-83900000D01*
X139700000Y-101100000D02*
X141600000Y-99200000D01*
X114800000Y-101100000D02*
X139700000Y-101100000D01*
X114200000Y-101700000D02*
X114800000Y-101100000D01*
X114200000Y-105800000D02*
X114200000Y-101700000D01*
X111770000Y-108230000D02*
X114200000Y-105800000D01*
X147100000Y-55050000D02*
X147100000Y-50838580D01*
X147100000Y-50838580D02*
X146960840Y-50699420D01*
X109230000Y-127620000D02*
X109230000Y-124720000D01*
X109230000Y-124720000D02*
X109300000Y-124650000D01*
X109260000Y-133000000D02*
X109260000Y-127650000D01*
X109260000Y-127650000D02*
X109230000Y-127620000D01*
X106720000Y-133000000D02*
X106720000Y-127650000D01*
X106720000Y-127650000D02*
X106700000Y-127630000D01*
X106700000Y-127630000D02*
X106700000Y-124650000D01*
X129500000Y-119150000D02*
X129500000Y-120700000D01*
X136460000Y-116040000D02*
X138400000Y-116040000D01*
X133300000Y-119200000D02*
X136460000Y-116040000D01*
X133300000Y-120400000D02*
X133300000Y-119200000D01*
X132800000Y-120900000D02*
X133300000Y-120400000D01*
X129700000Y-120900000D02*
X132800000Y-120900000D01*
X129500000Y-120700000D02*
X129700000Y-120900000D01*
X129500000Y-116450000D02*
X129500000Y-112430000D01*
X129500000Y-112430000D02*
X129550000Y-112380000D01*
X138400000Y-118580000D02*
X135920000Y-118580000D01*
X127000000Y-121300000D02*
X127000000Y-119150000D01*
X127900000Y-122200000D02*
X127000000Y-121300000D01*
X134000000Y-122200000D02*
X127900000Y-122200000D01*
X134700000Y-121500000D02*
X134000000Y-122200000D01*
X134700000Y-119800000D02*
X134700000Y-121500000D01*
X135920000Y-118580000D02*
X134700000Y-119800000D01*
X127000000Y-116450000D02*
X127000000Y-112390000D01*
X127000000Y-112390000D02*
X127010000Y-112380000D01*
X104180000Y-133000000D02*
X104180000Y-127650000D01*
X104180000Y-127650000D02*
X104200000Y-127630000D01*
X104200000Y-127630000D02*
X104200000Y-124650000D01*
X101640000Y-133000000D02*
X101640000Y-127650000D01*
X101640000Y-127650000D02*
X101700000Y-127590000D01*
X101700000Y-127590000D02*
X101700000Y-124650000D01*
X124550000Y-124300000D02*
X124550000Y-127540000D01*
X124550000Y-127540000D02*
X124470000Y-127620000D01*
D59*
X91650000Y-105900000D02*
X91650000Y-103100000D01*
X91650000Y-105900000D02*
X93400000Y-105900000D01*
X99900000Y-109600000D02*
X101610000Y-111310000D01*
X96400000Y-109600000D02*
X99900000Y-109600000D01*
X94600000Y-107800000D02*
X96400000Y-109600000D01*
X94600000Y-107100000D02*
X94600000Y-107800000D01*
X93500000Y-106000000D02*
X94600000Y-107100000D01*
X93400000Y-105900000D02*
X93500000Y-106000000D01*
X101610000Y-111310000D02*
X101610000Y-112380000D01*
X142100000Y-126600000D02*
X142100000Y-124900000D01*
X142100000Y-126600000D02*
X139700000Y-129000000D01*
X139700000Y-129000000D02*
X136300000Y-129000000D01*
X136300000Y-129000000D02*
X134000000Y-126700000D01*
X134000000Y-126700000D02*
X134000000Y-124700000D01*
X134000000Y-124700000D02*
X132400000Y-123100000D01*
X132400000Y-123100000D02*
X126600000Y-123100000D01*
X126600000Y-123100000D02*
X124700000Y-121200000D01*
X124700000Y-121200000D02*
X124700000Y-117400000D01*
X124700000Y-117400000D02*
X122800000Y-115500000D01*
X122800000Y-115500000D02*
X110600000Y-115500000D01*
X110600000Y-115500000D02*
X109230000Y-114130000D01*
X109230000Y-112380000D02*
X109230000Y-114130000D01*
X172050000Y-125400000D02*
X173300000Y-124150000D01*
X165600000Y-125400000D02*
X172050000Y-125400000D01*
X163900000Y-123700000D02*
X165600000Y-125400000D01*
X143300000Y-123700000D02*
X163900000Y-123700000D01*
X142100000Y-124900000D02*
X143300000Y-123700000D01*
X97300000Y-107250000D02*
X99350000Y-107250000D01*
X109230000Y-110030000D02*
X109230000Y-112380000D01*
X108300000Y-109100000D02*
X109230000Y-110030000D01*
X101200000Y-109100000D02*
X108300000Y-109100000D01*
X99350000Y-107250000D02*
X101200000Y-109100000D01*
X88950000Y-105900000D02*
X87400000Y-105900000D01*
X114400000Y-89900000D02*
X114400000Y-72800000D01*
X113300000Y-91000000D02*
X114400000Y-89900000D01*
X93800000Y-91000000D02*
X113300000Y-91000000D01*
X93100000Y-91700000D02*
X93800000Y-91000000D01*
X93100000Y-95500000D02*
X93100000Y-91700000D01*
X92500000Y-96100000D02*
X93100000Y-95500000D01*
X91200000Y-96100000D02*
X92500000Y-96100000D01*
X87200000Y-100100000D02*
X91200000Y-96100000D01*
X87200000Y-105700000D02*
X87200000Y-100100000D01*
X87400000Y-105900000D02*
X87200000Y-105700000D01*
D54*
X103100000Y-75650000D02*
X103100000Y-78250000D01*
X103100000Y-78250000D02*
X103050000Y-78300000D01*
X64500000Y-83940000D02*
X64500000Y-86100000D01*
X68500000Y-90100000D02*
X88500000Y-90100000D01*
X64500000Y-86100000D02*
X68500000Y-90100000D01*
X83600000Y-68100000D02*
X83600000Y-69100000D01*
X83600000Y-69100000D02*
X88400000Y-73900000D01*
X88400000Y-73900000D02*
X88600000Y-73900000D01*
X100350000Y-78300000D02*
X100350000Y-76650000D01*
X97600000Y-73900000D02*
X94900000Y-73900000D01*
X100350000Y-76650000D02*
X97600000Y-73900000D01*
X106780000Y-72800000D02*
X103250000Y-72800000D01*
X103250000Y-72800000D02*
X103100000Y-72950000D01*
X108600000Y-79050000D02*
X108600000Y-80250000D01*
X108600000Y-80250000D02*
X106650000Y-82200000D01*
X108500000Y-79150000D02*
X108600000Y-79050000D01*
X108600000Y-76350000D02*
X108600000Y-75000000D01*
X108600000Y-68800000D02*
X108600000Y-75000000D01*
X108600000Y-68800000D02*
X107520000Y-67720000D01*
X106780000Y-67720000D02*
X107520000Y-67720000D01*
X106780000Y-67720000D02*
X96960000Y-67720000D01*
X96960000Y-67720000D02*
X96740000Y-67500000D01*
D58*
X90900000Y-144300000D02*
X91800000Y-144300000D01*
X103450000Y-114950000D02*
X106700000Y-114950000D01*
X103100000Y-115300000D02*
X103450000Y-114950000D01*
X103100000Y-116800000D02*
X103100000Y-115300000D01*
X101500000Y-118400000D02*
X103100000Y-116800000D01*
X99800000Y-118400000D02*
X101500000Y-118400000D01*
X97800000Y-120400000D02*
X99800000Y-118400000D01*
X97800000Y-130600000D02*
X97800000Y-120400000D01*
X96500000Y-131900000D02*
X97800000Y-130600000D01*
X94300000Y-131900000D02*
X96500000Y-131900000D01*
X92700000Y-133500000D02*
X94300000Y-131900000D01*
X92700000Y-143400000D02*
X92700000Y-133500000D01*
X91800000Y-144300000D02*
X92700000Y-143400000D01*
X106700000Y-114950000D02*
X106700000Y-112390000D01*
X106700000Y-112390000D02*
X106690000Y-112380000D01*
X90900000Y-150350000D02*
X90900000Y-146300000D01*
X80800000Y-131250000D02*
X80800000Y-127500000D01*
X87900000Y-117300000D02*
X93750000Y-117300000D01*
X86400000Y-118800000D02*
X87900000Y-117300000D01*
X86400000Y-121900000D02*
X86400000Y-118800000D01*
X80800000Y-127500000D02*
X86400000Y-121900000D01*
X76600000Y-131730000D02*
X77970000Y-131730000D01*
X78450000Y-131250000D02*
X80800000Y-131250000D01*
X77970000Y-131730000D02*
X78450000Y-131250000D01*
X96450000Y-117300000D02*
X98600000Y-117300000D01*
X102130000Y-114400000D02*
X104150000Y-112380000D01*
X101500000Y-114400000D02*
X102130000Y-114400000D01*
X98600000Y-117300000D02*
X101500000Y-114400000D01*
D55*
X159300000Y-150000000D02*
X159300000Y-151100000D01*
X160900000Y-152700000D02*
X166600000Y-152700000D01*
X159300000Y-151100000D02*
X160900000Y-152700000D01*
X166600000Y-152700000D02*
X167500000Y-152700000D01*
X167500000Y-152700000D02*
X169627856Y-150572144D01*
X169627856Y-150572144D02*
X174900000Y-150572144D01*
D56*
X174900000Y-150572144D02*
X176227856Y-150572144D01*
X176227856Y-150572144D02*
X176900000Y-149900000D01*
D54*
X173200000Y-140250000D02*
X173200000Y-148872144D01*
X173200000Y-148872144D02*
X174900000Y-150572144D01*
D56*
X185100000Y-149900000D02*
X176900000Y-149900000D01*
D60*
G36*
X223385000Y-147985000D02*
X221202200Y-147985000D01*
X220204310Y-147685633D01*
X220200000Y-147685000D01*
X217401846Y-147685000D01*
X215815000Y-147288289D01*
X215815000Y-145510395D01*
X217402720Y-144915000D01*
X220200000Y-144915000D01*
X220206708Y-144913416D01*
X221203540Y-144415000D01*
X223385000Y-144415000D01*
X223385000Y-147985000D01*
X223385000Y-147985000D01*
G37*
X223385000Y-147985000D02*
X221202200Y-147985000D01*
X220204310Y-147685633D01*
X220200000Y-147685000D01*
X217401846Y-147685000D01*
X215815000Y-147288289D01*
X215815000Y-145510395D01*
X217402720Y-144915000D01*
X220200000Y-144915000D01*
X220206708Y-144913416D01*
X221203540Y-144415000D01*
X223385000Y-144415000D01*
X223385000Y-147985000D01*
G36*
X162985000Y-141500000D02*
X162986182Y-141505836D01*
X162989541Y-141510752D01*
X162994548Y-141513974D01*
X163000000Y-141515000D01*
X168085000Y-141515000D01*
X168085000Y-149385000D01*
X164515000Y-149385000D01*
X164515000Y-148200000D01*
X164513818Y-148194164D01*
X164510459Y-148189248D01*
X164505452Y-148186026D01*
X164500000Y-148185000D01*
X162800000Y-148185000D01*
X162794164Y-148186182D01*
X162789393Y-148189393D01*
X162493786Y-148485000D01*
X156015000Y-148485000D01*
X156015000Y-141015000D01*
X162985000Y-141015000D01*
X162985000Y-141500000D01*
X162985000Y-141500000D01*
G37*
X162985000Y-141500000D02*
X162986182Y-141505836D01*
X162989541Y-141510752D01*
X162994548Y-141513974D01*
X163000000Y-141515000D01*
X168085000Y-141515000D01*
X168085000Y-149385000D01*
X164515000Y-149385000D01*
X164515000Y-148200000D01*
X164513818Y-148194164D01*
X164510459Y-148189248D01*
X164505452Y-148186026D01*
X164500000Y-148185000D01*
X162800000Y-148185000D01*
X162794164Y-148186182D01*
X162789393Y-148189393D01*
X162493786Y-148485000D01*
X156015000Y-148485000D01*
X156015000Y-141015000D01*
X162985000Y-141015000D01*
X162985000Y-141500000D01*
G36*
X87985000Y-65600000D02*
X87986182Y-65605836D01*
X87989541Y-65610752D01*
X87994548Y-65613974D01*
X88000000Y-65615000D01*
X92785000Y-65615000D01*
X92785000Y-69685000D01*
X85515000Y-69685000D01*
X85515000Y-66600000D01*
X85513818Y-66594164D01*
X85510459Y-66589248D01*
X85505452Y-66586026D01*
X85500000Y-66585000D01*
X82100000Y-66585000D01*
X82094164Y-66586182D01*
X82089248Y-66589541D01*
X82086026Y-66594548D01*
X82085000Y-66600000D01*
X82085000Y-70400000D01*
X82086182Y-70405836D01*
X82089541Y-70410752D01*
X82094548Y-70413974D01*
X82100000Y-70415000D01*
X83285000Y-70415000D01*
X83285000Y-86785000D01*
X70015000Y-86785000D01*
X70015000Y-62215000D01*
X87985000Y-62215000D01*
X87985000Y-65600000D01*
X87985000Y-65600000D01*
G37*
X87985000Y-65600000D02*
X87986182Y-65605836D01*
X87989541Y-65610752D01*
X87994548Y-65613974D01*
X88000000Y-65615000D01*
X92785000Y-65615000D01*
X92785000Y-69685000D01*
X85515000Y-69685000D01*
X85515000Y-66600000D01*
X85513818Y-66594164D01*
X85510459Y-66589248D01*
X85505452Y-66586026D01*
X85500000Y-66585000D01*
X82100000Y-66585000D01*
X82094164Y-66586182D01*
X82089248Y-66589541D01*
X82086026Y-66594548D01*
X82085000Y-66600000D01*
X82085000Y-70400000D01*
X82086182Y-70405836D01*
X82089541Y-70410752D01*
X82094548Y-70413974D01*
X82100000Y-70415000D01*
X83285000Y-70415000D01*
X83285000Y-86785000D01*
X70015000Y-86785000D01*
X70015000Y-62215000D01*
X87985000Y-62215000D01*
X87985000Y-65600000D01*
G36*
X95385000Y-70100000D02*
X95386182Y-70105836D01*
X95389393Y-70110607D01*
X97085000Y-71806214D01*
X97085000Y-86785000D01*
X84915000Y-86785000D01*
X84915000Y-71915000D01*
X93100000Y-71915000D01*
X93105836Y-71913818D01*
X93110752Y-71910459D01*
X93113974Y-71905452D01*
X93115000Y-71900000D01*
X93115000Y-65615000D01*
X95385000Y-65615000D01*
X95385000Y-70100000D01*
X95385000Y-70100000D01*
G37*
X95385000Y-70100000D02*
X95386182Y-70105836D01*
X95389393Y-70110607D01*
X97085000Y-71806214D01*
X97085000Y-86785000D01*
X84915000Y-86785000D01*
X84915000Y-71915000D01*
X93100000Y-71915000D01*
X93105836Y-71913818D01*
X93110752Y-71910459D01*
X93113974Y-71905452D01*
X93115000Y-71900000D01*
X93115000Y-65615000D01*
X95385000Y-65615000D01*
X95385000Y-70100000D01*
M02*
