M48
;DRILL file {KiCad 4.0.2-stable} date 2017-02-10 15:46:00
;FORMAT={-:-/ absolute / metric / decimal}
FMAT,2
METRIC,TZ
T1C0.400
T2C0.600
T3C0.700
T4C0.800
T5C0.813
T6C0.900
T7C1.000
T8C1.001
T9C1.200
T10C1.300
T11C1.600
T12C3.200
%
G90
G05
M71
T1
X80.8Y-135.9
X88.5Y-90.1
X110.5Y-97.7
X111.9Y-97.8
X132.8Y-98.1
X132.8Y-104.3
X134.7Y-98.1
X134.7Y-103.2
X136.4Y-102.1
X137.1Y-98.1
X138.7Y-100.
X155.Y-130.3
X155.6Y-129.5
X155.7Y-131.2
X156.1Y-128.
X157.2Y-128.1
X158.2Y-128.
X158.6Y-131.2
X158.7Y-129.5
X158.9Y-130.3
X160.8Y-92.9
X161.9Y-92.8
X163.Y-92.9
X164.2Y-102.6
X164.2Y-106.
X165.Y-107.1
X167.1Y-107.2
X168.6Y-107.1
X171.Y-134.7
X174.8Y-132.8
X178.4Y-47.8
X181.7Y-107.8
X181.8Y-101.3
X181.8Y-102.6
X181.8Y-104.
X181.8Y-106.7
X181.9Y-97.3
X181.9Y-98.5
X181.9Y-99.9
X181.9Y-105.4
X186.1Y-47.3
T2
X70.9Y-63.1
X70.9Y-64.6
X70.9Y-66.1
X70.9Y-67.6
X70.9Y-69.1
X70.9Y-70.6
X70.9Y-72.1
X70.9Y-73.6
X70.9Y-75.1
X70.9Y-76.6
X70.9Y-78.1
X70.9Y-79.6
X70.9Y-81.1
X70.9Y-82.6
X70.9Y-84.1
X70.9Y-85.6
X72.2Y-86.
X72.4Y-63.1
X72.4Y-64.6
X72.4Y-66.1
X72.4Y-67.6
X72.4Y-69.1
X72.4Y-70.6
X72.4Y-73.6
X72.4Y-75.1
X72.4Y-76.6
X72.4Y-78.1
X72.4Y-79.6
X72.4Y-81.1
X72.4Y-82.6
X72.4Y-84.1
X73.9Y-63.1
X73.9Y-64.6
X73.9Y-66.1
X73.9Y-67.6
X73.9Y-69.1
X73.9Y-70.6
X73.9Y-73.6
X73.9Y-76.6
X73.9Y-78.1
X73.9Y-79.6
X73.9Y-81.1
X73.9Y-82.6
X73.9Y-84.1
X73.9Y-85.6
X75.1Y-67.8
X75.4Y-63.1
X75.4Y-64.6
X75.4Y-69.1
X75.4Y-70.6
X75.4Y-72.1
X75.4Y-75.1
X75.4Y-76.6
X75.4Y-78.1
X75.4Y-79.6
X75.4Y-81.1
X75.4Y-82.6
X75.4Y-84.1
X75.4Y-85.6
X76.6Y-130.46
X76.6Y-131.73
X76.6Y-133.
X76.9Y-63.1
X76.9Y-64.6
X76.9Y-69.1
X76.9Y-70.6
X76.9Y-72.1
X76.9Y-73.6
X76.9Y-75.1
X76.9Y-76.6
X76.9Y-78.1
X76.9Y-79.6
X76.9Y-81.1
X76.9Y-82.6
X76.9Y-84.1
X76.9Y-85.6
X77.1Y-65.8
X78.2Y-86.
X78.4Y-63.1
X78.4Y-64.6
X78.4Y-66.1
X78.4Y-67.6
X78.4Y-69.1
X78.4Y-70.6
X78.4Y-72.1
X78.4Y-75.1
X78.4Y-76.6
X78.4Y-78.1
X78.4Y-79.6
X78.4Y-81.1
X78.4Y-82.6
X79.9Y-63.1
X79.9Y-64.6
X79.9Y-66.1
X79.9Y-67.6
X79.9Y-69.1
X79.9Y-70.6
X79.9Y-73.6
X79.9Y-76.6
X79.9Y-78.1
X79.9Y-79.6
X79.9Y-81.1
X79.9Y-82.6
X79.9Y-84.1
X79.9Y-85.6
X81.4Y-63.1
X81.4Y-64.6
X81.4Y-66.1
X81.4Y-67.6
X81.4Y-69.1
X81.4Y-70.6
X81.4Y-72.1
X81.4Y-75.1
X81.4Y-76.6
X81.4Y-78.1
X81.4Y-79.6
X81.4Y-81.1
X81.4Y-82.6
X82.5Y-71.4
X82.5Y-73.5
X82.5Y-75.9
X82.5Y-77.4
X82.5Y-78.9
X82.5Y-80.4
X82.5Y-81.8
X82.5Y-83.3
X82.5Y-84.7
X82.5Y-86.
X82.9Y-63.1
X82.9Y-64.6
X83.6Y-65.8
X84.4Y-63.1
X84.4Y-64.6
X85.1Y-65.8
X85.7Y-72.7
X85.7Y-74.1
X85.7Y-75.5
X85.7Y-76.9
X85.7Y-78.3
X85.7Y-79.7
X85.7Y-81.1
X85.7Y-82.5
X85.7Y-83.9
X85.7Y-85.3
X85.9Y-63.1
X85.9Y-64.6
X86.3Y-66.4
X86.3Y-67.7
X86.3Y-69.
X86.7Y-86.
X87.2Y-72.7
X87.2Y-75.5
X87.2Y-76.9
X87.2Y-78.3
X87.2Y-79.7
X87.2Y-81.1
X87.2Y-82.5
X87.4Y-63.1
X87.4Y-64.6
X87.8Y-66.4
X87.8Y-67.7
X87.8Y-69.
X88.7Y-72.7
X88.7Y-74.1
X88.7Y-76.9
X88.7Y-78.3
X88.7Y-79.7
X88.7Y-81.1
X88.7Y-82.5
X88.7Y-83.9
X88.7Y-85.3
X89.3Y-66.4
X89.3Y-67.7
X89.3Y-69.
X90.2Y-72.7
X90.2Y-75.5
X90.2Y-76.9
X90.2Y-78.3
X90.2Y-79.7
X90.2Y-81.1
X90.2Y-82.5
X90.4Y-86.
X90.7Y-83.5
X91.7Y-72.7
X91.7Y-74.1
X91.7Y-75.5
X91.7Y-76.9
X91.7Y-78.3
X91.7Y-79.7
X91.7Y-81.1
X91.7Y-82.5
X91.7Y-83.9
X91.7Y-85.3
X92.9Y-86.
X93.Y-83.7
X93.2Y-72.7
X93.2Y-75.5
X93.2Y-76.9
X93.2Y-78.3
X93.2Y-79.7
X93.2Y-81.1
X93.2Y-82.5
X93.9Y-71.2
X94.Y-69.9
X94.7Y-72.7
X94.7Y-74.1
X94.7Y-76.9
X94.7Y-78.3
X94.7Y-79.7
X94.7Y-81.1
X94.7Y-82.5
X94.7Y-83.9
X94.7Y-85.3
X94.9Y-70.7
X95.7Y-71.6
X96.2Y-75.5
X96.2Y-76.9
X96.2Y-78.3
X96.2Y-79.7
X96.2Y-81.1
X96.2Y-82.5
X222.2Y-151.5
X227.2Y-152.75
T3
X64.5Y-81.4
X64.5Y-83.94
T4
X76.1Y-66.7
X83.6Y-68.1
X90.9Y-142.3
X90.9Y-144.3
X90.9Y-146.3
X106.78Y-67.72
X106.78Y-70.26
X106.78Y-72.8
X114.4Y-67.72
X114.4Y-70.26
X114.4Y-72.8
X166.66Y-123.2
X166.66Y-130.82
X169.2Y-123.2
X169.2Y-130.82
X203.2Y-49.8
X205.7Y-47.3
X208.2Y-49.8
T5
X93.99Y-112.38
X93.99Y-127.62
X96.53Y-112.38
X96.53Y-127.62
X99.07Y-112.38
X99.07Y-127.62
X101.61Y-112.38
X101.61Y-127.62
X104.15Y-112.38
X104.15Y-127.62
X106.69Y-112.38
X106.69Y-127.62
X109.23Y-112.38
X109.23Y-127.62
X111.77Y-112.38
X111.77Y-127.62
X114.31Y-112.38
X114.31Y-127.62
X116.85Y-112.38
X116.85Y-127.62
X119.39Y-112.38
X119.39Y-127.62
X121.93Y-112.38
X121.93Y-127.62
X124.47Y-112.38
X124.47Y-127.62
X127.01Y-112.38
X127.01Y-127.62
X129.55Y-112.38
X129.55Y-127.62
T6
X94.7Y-92.9
X94.7Y-100.5
X97.24Y-92.9
X97.24Y-100.5
T7
X64.5Y-68.7
X64.5Y-76.2
X101.64Y-133.
X104.18Y-133.
X106.72Y-133.
X109.26Y-133.
X111.8Y-133.
X138.4Y-113.5
X138.4Y-116.04
X138.4Y-118.58
X138.4Y-121.12
X138.4Y-123.66
X138.4Y-126.2
X152.3Y-92.572
X154.3Y-86.9
X154.3Y-91.9
X156.3Y-86.228
X161.7Y-118.772
X163.7Y-113.1
X163.7Y-118.1
X165.7Y-112.428
X174.9Y-150.572
X176.9Y-144.9
X176.9Y-149.9
X178.9Y-144.228
T8
X76.6Y-115.9
X76.6Y-123.5
X91.66Y-67.5
X94.2Y-67.5
X96.74Y-67.5
X111.401Y-50.699
X113.941Y-50.699
X116.481Y-50.699
X119.021Y-50.699
X121.561Y-50.699
X124.101Y-50.699
X126.641Y-50.699
X129.181Y-50.699
X131.721Y-50.699
X134.261Y-50.699
X136.801Y-50.699
X139.341Y-50.699
X141.881Y-50.699
X144.421Y-50.699
X146.961Y-50.699
X149.501Y-50.699
T9
X151.9Y-100.4
X151.9Y-108.4
X159.3Y-147.46
X159.3Y-150.
X166.6Y-138.52
X166.6Y-143.6
X166.6Y-147.62
X166.6Y-152.7
X222.3Y-146.2
X224.84Y-146.2
X227.38Y-146.2
T10
X185.1Y-149.9
X207.6Y-149.9
T11
X73.6Y-73.6
X73.6Y-84.6
X79.9Y-73.6
X79.9Y-84.6
X88.6Y-73.9
X88.6Y-84.9
X94.9Y-73.9
X94.9Y-84.9
T12
X103.9Y-105.7
X196.9Y-50.7
T0
M30
