G04 #@! TF.FileFunction,Copper,L2,Bot,Signal*
%FSLAX46Y46*%
G04 Gerber Fmt 4.6, Leading zero omitted, Abs format (unit mm)*
G04 Created by KiCad (PCBNEW 4.0.2-stable) date 2017-02-13 18:05:18*
%MOMM*%
G01*
G04 APERTURE LIST*
%ADD10C,0.100000*%
%ADD11C,1.200000*%
%ADD12O,1.501140X4.000500*%
%ADD13C,5.000000*%
%ADD14C,2.000000*%
%ADD15R,2.000000X2.000000*%
%ADD16R,1.800000X1.800000*%
%ADD17C,1.800000*%
%ADD18C,3.000000*%
%ADD19R,1.600000X2.400000*%
%ADD20O,1.600000X2.400000*%
%ADD21C,2.400000*%
%ADD22C,1.600000*%
%ADD23C,1.400000*%
%ADD24O,1.400000X1.400000*%
%ADD25O,1.501140X0.899160*%
%ADD26R,1.501140X0.899160*%
%ADD27R,1.600000X1.600000*%
%ADD28O,1.600000X1.600000*%
%ADD29O,1.699260X3.500120*%
%ADD30R,2.000000X2.600000*%
%ADD31O,2.000000X2.600000*%
%ADD32R,1.700000X1.700000*%
%ADD33O,1.700000X1.700000*%
%ADD34R,1.574800X2.286000*%
%ADD35O,1.574800X2.286000*%
%ADD36R,1.500000X1.500000*%
%ADD37C,1.500000*%
%ADD38C,3.200000*%
%ADD39R,2.600000X2.000000*%
%ADD40O,2.600000X2.000000*%
%ADD41R,2.400000X2.400000*%
%ADD42O,2.400000X2.400000*%
%ADD43C,0.600000*%
%ADD44C,0.508000*%
%ADD45C,0.812800*%
%ADD46C,0.254000*%
%ADD47C,0.030000*%
G04 APERTURE END LIST*
D10*
D11*
X90700000Y-83500000D03*
X94700000Y-85300000D03*
X92900000Y-86000000D03*
X91700000Y-85300000D03*
X88700000Y-85300000D03*
X85700000Y-85300000D03*
X86700000Y-86000000D03*
X94700000Y-83900000D03*
X93000000Y-83700000D03*
X91700000Y-83900000D03*
X90400000Y-86000000D03*
X88700000Y-83900000D03*
X85700000Y-83900000D03*
X96200000Y-82500000D03*
X94700000Y-82500000D03*
X93200000Y-82500000D03*
X91700000Y-82500000D03*
X90200000Y-82500000D03*
X88700000Y-82500000D03*
X87200000Y-82500000D03*
X85700000Y-82500000D03*
X96200000Y-81100000D03*
X94700000Y-81100000D03*
X93200000Y-81100000D03*
X91700000Y-81100000D03*
X90200000Y-81100000D03*
X88700000Y-81100000D03*
X87200000Y-81100000D03*
X85700000Y-81100000D03*
X96200000Y-79700000D03*
X94700000Y-79700000D03*
X93200000Y-79700000D03*
X91700000Y-79700000D03*
X90200000Y-79700000D03*
X88700000Y-79700000D03*
X87200000Y-79700000D03*
X85700000Y-79700000D03*
X96200000Y-78300000D03*
X94700000Y-78300000D03*
X93200000Y-78300000D03*
X91700000Y-78300000D03*
X90200000Y-78300000D03*
X88700000Y-78300000D03*
X87200000Y-78300000D03*
X85700000Y-78300000D03*
X96200000Y-76900000D03*
X94700000Y-76900000D03*
X93200000Y-76900000D03*
X91700000Y-76900000D03*
X90200000Y-76900000D03*
X88700000Y-76900000D03*
X87200000Y-76900000D03*
X85700000Y-76900000D03*
X96200000Y-75500000D03*
X93200000Y-75500000D03*
X91700000Y-75500000D03*
X90200000Y-75500000D03*
X94900000Y-70700000D03*
X87200000Y-75500000D03*
X85700000Y-75500000D03*
X94700000Y-74100000D03*
X95700000Y-71600000D03*
X91700000Y-74100000D03*
X93900000Y-71200000D03*
X88700000Y-74100000D03*
X94000000Y-69900000D03*
X85700000Y-74100000D03*
X94700000Y-72700000D03*
X93200000Y-72700000D03*
X91700000Y-72700000D03*
X90200000Y-72700000D03*
X88700000Y-72700000D03*
X87200000Y-72700000D03*
X85700000Y-72700000D03*
X89300000Y-69000000D03*
X87800000Y-69000000D03*
X86300000Y-69000000D03*
X89300000Y-67700000D03*
X87800000Y-67700000D03*
X86300000Y-67700000D03*
X89300000Y-66400000D03*
X87800000Y-66400000D03*
X86300000Y-66400000D03*
X85100000Y-65800000D03*
X83600000Y-65800000D03*
X87400000Y-64600000D03*
X85900000Y-64600000D03*
X84400000Y-64600000D03*
X87400000Y-63100000D03*
X85900000Y-63100000D03*
X82500000Y-86000000D03*
X79900000Y-85600000D03*
X78200000Y-86000000D03*
X76900000Y-85600000D03*
X75400000Y-85600000D03*
X73900000Y-85600000D03*
X72200000Y-86000000D03*
X70900000Y-85600000D03*
X82500000Y-84700000D03*
X79900000Y-84100000D03*
X82900000Y-63100000D03*
X76900000Y-84100000D03*
X75400000Y-84100000D03*
X73900000Y-84100000D03*
X72400000Y-84100000D03*
X70900000Y-84100000D03*
X81400000Y-82600000D03*
X79900000Y-82600000D03*
X78400000Y-82600000D03*
X76900000Y-82600000D03*
X75400000Y-82600000D03*
X73900000Y-82600000D03*
X72400000Y-82600000D03*
X70900000Y-82600000D03*
X81400000Y-81100000D03*
X79900000Y-81100000D03*
X78400000Y-81100000D03*
X76900000Y-81100000D03*
X75400000Y-81100000D03*
X73900000Y-81100000D03*
X72400000Y-81100000D03*
X70900000Y-81100000D03*
X81400000Y-79600000D03*
X79900000Y-79600000D03*
X78400000Y-79600000D03*
X76900000Y-79600000D03*
X75400000Y-79600000D03*
X73900000Y-79600000D03*
X72400000Y-79600000D03*
X70900000Y-79600000D03*
X81400000Y-78100000D03*
X79900000Y-78100000D03*
X78400000Y-78100000D03*
X76900000Y-78100000D03*
X75400000Y-78100000D03*
X73900000Y-78100000D03*
X72400000Y-78100000D03*
X70900000Y-78100000D03*
X81400000Y-76600000D03*
X79900000Y-76600000D03*
X78400000Y-76600000D03*
X76900000Y-76600000D03*
X75400000Y-76600000D03*
X73900000Y-76600000D03*
X72400000Y-76600000D03*
X70900000Y-76600000D03*
X81400000Y-75100000D03*
X82500000Y-73500000D03*
X78400000Y-75100000D03*
X76900000Y-75100000D03*
X75400000Y-75100000D03*
X82500000Y-78900000D03*
X72400000Y-75100000D03*
X70900000Y-75100000D03*
X82500000Y-71400000D03*
X79900000Y-73600000D03*
X82500000Y-77400000D03*
X76900000Y-73600000D03*
X82500000Y-81800000D03*
X73900000Y-73600000D03*
X72400000Y-73600000D03*
X70900000Y-73600000D03*
X81400000Y-72100000D03*
X82500000Y-75900000D03*
X78400000Y-72100000D03*
X76900000Y-72100000D03*
X75400000Y-72100000D03*
X82500000Y-80400000D03*
X82500000Y-83300000D03*
X70900000Y-72100000D03*
X81400000Y-70600000D03*
X79900000Y-70600000D03*
X78400000Y-70600000D03*
X76900000Y-70600000D03*
X75400000Y-70600000D03*
X73900000Y-70600000D03*
X72400000Y-70600000D03*
X70900000Y-70600000D03*
X81400000Y-69100000D03*
X79900000Y-69100000D03*
X78400000Y-69100000D03*
X76900000Y-69100000D03*
X75400000Y-69100000D03*
X73900000Y-69100000D03*
X72400000Y-69100000D03*
X70900000Y-69100000D03*
X81400000Y-67600000D03*
X79900000Y-67600000D03*
X78400000Y-67600000D03*
X84400000Y-63100000D03*
X75100000Y-67800000D03*
X73900000Y-67600000D03*
X72400000Y-67600000D03*
X70900000Y-67600000D03*
X81400000Y-66100000D03*
X79900000Y-66100000D03*
X78400000Y-66100000D03*
X82900000Y-64600000D03*
X77100000Y-65800000D03*
X73900000Y-66100000D03*
X72400000Y-66100000D03*
X70900000Y-66100000D03*
X81400000Y-64600000D03*
X79900000Y-64600000D03*
X78400000Y-64600000D03*
X76900000Y-64600000D03*
X75400000Y-64600000D03*
X73900000Y-64600000D03*
X72400000Y-64600000D03*
X70900000Y-64600000D03*
X81400000Y-63100000D03*
X79900000Y-63100000D03*
X78400000Y-63100000D03*
X76900000Y-63100000D03*
X75400000Y-63100000D03*
X73900000Y-63100000D03*
X72400000Y-63100000D03*
D12*
X111400840Y-50699420D03*
X113940840Y-50699420D03*
X116480840Y-50699420D03*
X119020840Y-50699420D03*
X121560840Y-50699420D03*
X124100840Y-50699420D03*
X126640840Y-50699420D03*
X129180840Y-50699420D03*
X131720840Y-50699420D03*
X134260840Y-50699420D03*
X136800840Y-50699420D03*
X139340840Y-50699420D03*
X141880840Y-50699420D03*
X144420840Y-50699420D03*
X146960840Y-50699420D03*
X149500840Y-50699420D03*
D13*
X196900000Y-50700000D03*
X103900000Y-105700000D03*
D14*
X76600000Y-115900160D03*
X76600000Y-123499840D03*
D15*
X154300000Y-91900000D03*
D14*
X154300000Y-86900000D03*
D15*
X152300000Y-92572144D03*
D14*
X156300000Y-86227856D03*
D15*
X163700000Y-113100000D03*
D14*
X163700000Y-118100000D03*
D15*
X165700000Y-112427856D03*
D14*
X161700000Y-118772144D03*
D15*
X176900000Y-149900000D03*
D14*
X176900000Y-144900000D03*
D15*
X174900000Y-150572144D03*
D14*
X178900000Y-144227856D03*
X64500000Y-68700000D03*
X64500000Y-76200000D03*
D16*
X94700000Y-92900000D03*
D17*
X97240000Y-92900000D03*
D16*
X94700000Y-100500000D03*
D17*
X97240000Y-100500000D03*
D18*
X207600000Y-149900000D03*
X185100000Y-149900000D03*
D19*
X169200000Y-123200000D03*
D20*
X166660000Y-130820000D03*
X166660000Y-123200000D03*
X169200000Y-130820000D03*
D21*
X151900000Y-100400000D03*
X151900000Y-108400000D03*
D22*
X203200000Y-49800000D03*
X205700000Y-47300000D03*
X208200000Y-49800000D03*
X222200000Y-151500000D03*
X227200000Y-152750000D03*
D23*
X64500000Y-81400000D03*
D24*
X64500000Y-83940000D03*
D17*
X83600000Y-68100000D03*
X76100000Y-66700000D03*
D25*
X76600000Y-131730000D03*
X76600000Y-130460000D03*
D26*
X76600000Y-133000000D03*
D27*
X114400000Y-72800000D03*
D28*
X106780000Y-67720000D03*
X114400000Y-70260000D03*
X106780000Y-70260000D03*
X114400000Y-67720000D03*
X106780000Y-72800000D03*
D29*
X94200000Y-67500000D03*
X91660000Y-67500000D03*
X96740000Y-67500000D03*
D30*
X222300000Y-146200000D03*
D31*
X224840000Y-146200000D03*
X227380000Y-146200000D03*
D32*
X138400000Y-113500000D03*
D33*
X138400000Y-116040000D03*
X138400000Y-118580000D03*
X138400000Y-121120000D03*
X138400000Y-123660000D03*
X138400000Y-126200000D03*
D34*
X129550000Y-112380000D03*
D35*
X127010000Y-112380000D03*
X124470000Y-112380000D03*
X121930000Y-112380000D03*
X119390000Y-112380000D03*
X116850000Y-112380000D03*
X114310000Y-112380000D03*
X111770000Y-112380000D03*
X109230000Y-112380000D03*
X106690000Y-112380000D03*
X104150000Y-112380000D03*
X101610000Y-112380000D03*
X99070000Y-112380000D03*
X96530000Y-112380000D03*
X93990000Y-112380000D03*
X93990000Y-127620000D03*
X96530000Y-127620000D03*
X99070000Y-127620000D03*
X101610000Y-127620000D03*
X104150000Y-127620000D03*
X106690000Y-127620000D03*
X109230000Y-127620000D03*
X111770000Y-127620000D03*
X114310000Y-127620000D03*
X116850000Y-127620000D03*
X119390000Y-127620000D03*
X121930000Y-127620000D03*
X124470000Y-127620000D03*
X127010000Y-127620000D03*
X129550000Y-127620000D03*
D32*
X111800000Y-133000000D03*
D33*
X109260000Y-133000000D03*
X106720000Y-133000000D03*
X104180000Y-133000000D03*
X101640000Y-133000000D03*
D36*
X90900000Y-146300000D03*
D37*
X90900000Y-144300000D03*
X90900000Y-142300000D03*
D38*
X94900000Y-84900000D03*
X88600000Y-84900000D03*
X94900000Y-73900000D03*
X88600000Y-73900000D03*
X79900000Y-84600000D03*
X73600000Y-84600000D03*
X79900000Y-73600000D03*
X73600000Y-73600000D03*
D39*
X159300000Y-150000000D03*
D40*
X159300000Y-147460000D03*
D41*
X166600000Y-143600000D03*
D42*
X166600000Y-138520000D03*
D41*
X166600000Y-152700000D03*
D42*
X166600000Y-147620000D03*
D11*
X70900000Y-63100000D03*
D43*
X161900000Y-92800000D03*
X160800000Y-92900000D03*
X138700000Y-100000000D03*
X171000000Y-134700000D03*
X80800000Y-135900000D03*
X156100000Y-128000000D03*
X158200000Y-128000000D03*
X157200000Y-128100000D03*
X158700000Y-129500000D03*
X158900000Y-130300000D03*
X158600000Y-131200000D03*
X155700000Y-131200000D03*
X155600000Y-129500000D03*
X155000000Y-130300000D03*
X174800000Y-132800000D03*
X181800000Y-101300000D03*
X181900000Y-99900000D03*
X181900000Y-98500000D03*
X181900000Y-97300000D03*
X181800000Y-104000000D03*
X181900000Y-105400000D03*
X181800000Y-106700000D03*
X181700000Y-107800000D03*
X181800000Y-102600000D03*
X168600000Y-107100000D03*
X167100000Y-107200000D03*
X165000000Y-107100000D03*
X163000000Y-92900000D03*
X164200000Y-106000000D03*
X164200000Y-102600000D03*
X178400000Y-47800000D03*
X186100000Y-47300000D03*
X110500000Y-97700000D03*
X111900000Y-97800000D03*
X132800000Y-98100000D03*
X132800000Y-104300000D03*
X134700000Y-98100000D03*
X134700000Y-103200000D03*
X137100000Y-98100000D03*
X136400000Y-102100000D03*
X88500000Y-90100000D03*
D44*
X161900000Y-94500000D02*
X161900000Y-94000000D01*
X161900000Y-92800000D02*
X161900000Y-94500000D01*
X161900000Y-94000000D02*
X160800000Y-92900000D01*
D45*
X152300000Y-92572144D02*
X152300000Y-95200000D01*
X147500000Y-100000000D02*
X138700000Y-100000000D01*
X152300000Y-95200000D02*
X147500000Y-100000000D01*
D44*
X181900000Y-105400000D02*
X181800000Y-105400000D01*
D46*
X185600000Y-47800000D02*
X178400000Y-47800000D01*
X186100000Y-47300000D02*
X185600000Y-47800000D01*
X111770000Y-127620000D02*
X111770000Y-116270000D01*
X110500000Y-115000000D02*
X110500000Y-97700000D01*
X111770000Y-116270000D02*
X110500000Y-115000000D01*
X114310000Y-127620000D02*
X114310000Y-117910000D01*
X111900000Y-107100000D02*
X111900000Y-97800000D01*
X113000000Y-108200000D02*
X111900000Y-107100000D01*
X113000000Y-116600000D02*
X113000000Y-108200000D01*
X114310000Y-117910000D02*
X113000000Y-116600000D01*
X132800000Y-104300000D02*
X132800000Y-98100000D01*
X134700000Y-103200000D02*
X134700000Y-98100000D01*
X137100000Y-101400000D02*
X137100000Y-98100000D01*
X136400000Y-102100000D02*
X137100000Y-101400000D01*
X124470000Y-112380000D02*
X124470000Y-127620000D01*
D45*
X88600000Y-90000000D02*
X88600000Y-84900000D01*
X88500000Y-90100000D02*
X88600000Y-90000000D01*
D47*
G36*
X87985000Y-65600000D02*
X87986182Y-65605836D01*
X87989541Y-65610752D01*
X87994548Y-65613974D01*
X88000000Y-65615000D01*
X92785000Y-65615000D01*
X92785000Y-69685000D01*
X85515000Y-69685000D01*
X85515000Y-66600000D01*
X85513818Y-66594164D01*
X85510459Y-66589248D01*
X85505452Y-66586026D01*
X85500000Y-66585000D01*
X82100000Y-66585000D01*
X82094164Y-66586182D01*
X82089248Y-66589541D01*
X82086026Y-66594548D01*
X82085000Y-66600000D01*
X82085000Y-70400000D01*
X82086182Y-70405836D01*
X82089541Y-70410752D01*
X82094548Y-70413974D01*
X82100000Y-70415000D01*
X83285000Y-70415000D01*
X83285000Y-86785000D01*
X70015000Y-86785000D01*
X70015000Y-62215000D01*
X87985000Y-62215000D01*
X87985000Y-65600000D01*
X87985000Y-65600000D01*
G37*
X87985000Y-65600000D02*
X87986182Y-65605836D01*
X87989541Y-65610752D01*
X87994548Y-65613974D01*
X88000000Y-65615000D01*
X92785000Y-65615000D01*
X92785000Y-69685000D01*
X85515000Y-69685000D01*
X85515000Y-66600000D01*
X85513818Y-66594164D01*
X85510459Y-66589248D01*
X85505452Y-66586026D01*
X85500000Y-66585000D01*
X82100000Y-66585000D01*
X82094164Y-66586182D01*
X82089248Y-66589541D01*
X82086026Y-66594548D01*
X82085000Y-66600000D01*
X82085000Y-70400000D01*
X82086182Y-70405836D01*
X82089541Y-70410752D01*
X82094548Y-70413974D01*
X82100000Y-70415000D01*
X83285000Y-70415000D01*
X83285000Y-86785000D01*
X70015000Y-86785000D01*
X70015000Y-62215000D01*
X87985000Y-62215000D01*
X87985000Y-65600000D01*
G36*
X95385000Y-70100000D02*
X95386182Y-70105836D01*
X95389393Y-70110607D01*
X97085000Y-71806214D01*
X97085000Y-86785000D01*
X84915000Y-86785000D01*
X84915000Y-71915000D01*
X93100000Y-71915000D01*
X93105836Y-71913818D01*
X93110752Y-71910459D01*
X93113974Y-71905452D01*
X93115000Y-71900000D01*
X93115000Y-65615000D01*
X95385000Y-65615000D01*
X95385000Y-70100000D01*
X95385000Y-70100000D01*
G37*
X95385000Y-70100000D02*
X95386182Y-70105836D01*
X95389393Y-70110607D01*
X97085000Y-71806214D01*
X97085000Y-86785000D01*
X84915000Y-86785000D01*
X84915000Y-71915000D01*
X93100000Y-71915000D01*
X93105836Y-71913818D01*
X93110752Y-71910459D01*
X93113974Y-71905452D01*
X93115000Y-71900000D01*
X93115000Y-65615000D01*
X95385000Y-65615000D01*
X95385000Y-70100000D01*
G36*
X240585000Y-59985000D02*
X187200000Y-59985000D01*
X187194164Y-59986182D01*
X187189248Y-59989541D01*
X187186026Y-59994548D01*
X187185000Y-60000000D01*
X187185000Y-141100000D01*
X187186182Y-141105836D01*
X187189541Y-141110752D01*
X187194548Y-141113974D01*
X187200000Y-141115000D01*
X240385000Y-141115000D01*
X240385000Y-154985000D01*
X155315000Y-154985000D01*
X155315000Y-151500000D01*
X165231768Y-151500000D01*
X165231768Y-153900000D01*
X165243273Y-153961145D01*
X165279410Y-154017303D01*
X165334548Y-154054978D01*
X165400000Y-154068232D01*
X167800000Y-154068232D01*
X167861145Y-154056727D01*
X167917303Y-154020590D01*
X167954978Y-153965452D01*
X167968232Y-153900000D01*
X167968232Y-151500000D01*
X167956727Y-151438855D01*
X167920590Y-151382697D01*
X167865452Y-151345022D01*
X167800000Y-151331768D01*
X165400000Y-151331768D01*
X165338855Y-151343273D01*
X165282697Y-151379410D01*
X165245022Y-151434548D01*
X165231768Y-151500000D01*
X155315000Y-151500000D01*
X155315000Y-149000000D01*
X157831768Y-149000000D01*
X157831768Y-151000000D01*
X157843273Y-151061145D01*
X157879410Y-151117303D01*
X157934548Y-151154978D01*
X158000000Y-151168232D01*
X160600000Y-151168232D01*
X160661145Y-151156727D01*
X160717303Y-151120590D01*
X160754978Y-151065452D01*
X160768232Y-151000000D01*
X160768232Y-149572144D01*
X173731768Y-149572144D01*
X173731768Y-151572144D01*
X173743273Y-151633289D01*
X173779410Y-151689447D01*
X173834548Y-151727122D01*
X173900000Y-151740376D01*
X175900000Y-151740376D01*
X175961145Y-151728871D01*
X176017303Y-151692734D01*
X176018414Y-151691108D01*
X221234833Y-151691108D01*
X221381436Y-152045914D01*
X221652658Y-152317610D01*
X222007208Y-152464832D01*
X222391108Y-152465167D01*
X222745914Y-152318564D01*
X223017610Y-152047342D01*
X223164832Y-151692792D01*
X223165167Y-151308892D01*
X223018564Y-150954086D01*
X222747342Y-150682390D01*
X222392792Y-150535168D01*
X222008892Y-150534833D01*
X221654086Y-150681436D01*
X221382390Y-150952658D01*
X221235168Y-151307208D01*
X221234833Y-151691108D01*
X176018414Y-151691108D01*
X176054978Y-151637596D01*
X176068232Y-151572144D01*
X176068232Y-151068232D01*
X177900000Y-151068232D01*
X177961145Y-151056727D01*
X178017303Y-151020590D01*
X178054978Y-150965452D01*
X178068232Y-150900000D01*
X178068232Y-150229736D01*
X183434712Y-150229736D01*
X183687659Y-150841914D01*
X184155622Y-151310695D01*
X184767358Y-151564710D01*
X185429736Y-151565288D01*
X186041914Y-151312341D01*
X186510695Y-150844378D01*
X186764710Y-150232642D01*
X186764738Y-150200030D01*
X194834737Y-150200030D01*
X195064896Y-150757058D01*
X195490701Y-151183606D01*
X196047326Y-151414737D01*
X196650030Y-151415263D01*
X197207058Y-151185104D01*
X197633606Y-150759299D01*
X197853499Y-150229736D01*
X205934712Y-150229736D01*
X206187659Y-150841914D01*
X206655622Y-151310695D01*
X207267358Y-151564710D01*
X207929736Y-151565288D01*
X208541914Y-151312341D01*
X209010695Y-150844378D01*
X209264710Y-150232642D01*
X209265288Y-149570264D01*
X209012341Y-148958086D01*
X208544378Y-148489305D01*
X207932642Y-148235290D01*
X207270264Y-148234712D01*
X206658086Y-148487659D01*
X206189305Y-148955622D01*
X205935290Y-149567358D01*
X205934712Y-150229736D01*
X197853499Y-150229736D01*
X197864737Y-150202674D01*
X197865263Y-149599970D01*
X197635104Y-149042942D01*
X197209299Y-148616394D01*
X196652674Y-148385263D01*
X196049970Y-148384737D01*
X195492942Y-148614896D01*
X195066394Y-149040701D01*
X194835263Y-149597326D01*
X194834737Y-150200030D01*
X186764738Y-150200030D01*
X186765288Y-149570264D01*
X186512341Y-148958086D01*
X186044378Y-148489305D01*
X185432642Y-148235290D01*
X184770264Y-148234712D01*
X184158086Y-148487659D01*
X183689305Y-148955622D01*
X183435290Y-149567358D01*
X183434712Y-150229736D01*
X178068232Y-150229736D01*
X178068232Y-148900000D01*
X178056727Y-148838855D01*
X178020590Y-148782697D01*
X177965452Y-148745022D01*
X177900000Y-148731768D01*
X175900000Y-148731768D01*
X175838855Y-148743273D01*
X175782697Y-148779410D01*
X175745022Y-148834548D01*
X175731768Y-148900000D01*
X175731768Y-149403912D01*
X173900000Y-149403912D01*
X173838855Y-149415417D01*
X173782697Y-149451554D01*
X173745022Y-149506692D01*
X173731768Y-149572144D01*
X160768232Y-149572144D01*
X160768232Y-149000000D01*
X160756727Y-148938855D01*
X160720590Y-148882697D01*
X160665452Y-148845022D01*
X160600000Y-148831768D01*
X158000000Y-148831768D01*
X157938855Y-148843273D01*
X157882697Y-148879410D01*
X157845022Y-148934548D01*
X157831768Y-149000000D01*
X155315000Y-149000000D01*
X155315000Y-147460000D01*
X157806299Y-147460000D01*
X157894979Y-147905826D01*
X158147520Y-148283779D01*
X158525473Y-148536320D01*
X158971299Y-148625000D01*
X159628701Y-148625000D01*
X160074527Y-148536320D01*
X160452480Y-148283779D01*
X160705021Y-147905826D01*
X160767194Y-147593258D01*
X165235000Y-147593258D01*
X165235000Y-147646742D01*
X165338904Y-148169105D01*
X165634799Y-148611943D01*
X166077637Y-148907838D01*
X166600000Y-149011742D01*
X167122363Y-148907838D01*
X167565201Y-148611943D01*
X167861096Y-148169105D01*
X167965000Y-147646742D01*
X167965000Y-147593258D01*
X167861096Y-147070895D01*
X167565201Y-146628057D01*
X167122363Y-146332162D01*
X166600000Y-146228258D01*
X166077637Y-146332162D01*
X165634799Y-146628057D01*
X165338904Y-147070895D01*
X165235000Y-147593258D01*
X160767194Y-147593258D01*
X160793701Y-147460000D01*
X160705021Y-147014174D01*
X160452480Y-146636221D01*
X160074527Y-146383680D01*
X159628701Y-146295000D01*
X158971299Y-146295000D01*
X158525473Y-146383680D01*
X158147520Y-146636221D01*
X157894979Y-147014174D01*
X157806299Y-147460000D01*
X155315000Y-147460000D01*
X155315000Y-142400000D01*
X165231768Y-142400000D01*
X165231768Y-144800000D01*
X165243273Y-144861145D01*
X165279410Y-144917303D01*
X165334548Y-144954978D01*
X165400000Y-144968232D01*
X167800000Y-144968232D01*
X167861145Y-144956727D01*
X167917303Y-144920590D01*
X167931371Y-144900000D01*
X221131768Y-144900000D01*
X221131768Y-147500000D01*
X221143273Y-147561145D01*
X221179410Y-147617303D01*
X221234548Y-147654978D01*
X221300000Y-147668232D01*
X223300000Y-147668232D01*
X223361145Y-147656727D01*
X223417303Y-147620590D01*
X223454978Y-147565452D01*
X223468232Y-147500000D01*
X223468232Y-145871299D01*
X223675000Y-145871299D01*
X223675000Y-146528701D01*
X223763680Y-146974527D01*
X224016221Y-147352480D01*
X224394174Y-147605021D01*
X224840000Y-147693701D01*
X225285826Y-147605021D01*
X225663779Y-147352480D01*
X225916320Y-146974527D01*
X226005000Y-146528701D01*
X226005000Y-145871299D01*
X225982556Y-145758462D01*
X232884599Y-145758462D01*
X233236294Y-146609629D01*
X233886945Y-147261418D01*
X234737498Y-147614598D01*
X235658462Y-147615401D01*
X236509629Y-147263706D01*
X237161418Y-146613055D01*
X237514598Y-145762502D01*
X237515401Y-144841538D01*
X237163706Y-143990371D01*
X236513055Y-143338582D01*
X235662502Y-142985402D01*
X234741538Y-142984599D01*
X233890371Y-143336294D01*
X233238582Y-143986945D01*
X232885402Y-144837498D01*
X232884599Y-145758462D01*
X225982556Y-145758462D01*
X225916320Y-145425473D01*
X225663779Y-145047520D01*
X225285826Y-144794979D01*
X224840000Y-144706299D01*
X224394174Y-144794979D01*
X224016221Y-145047520D01*
X223763680Y-145425473D01*
X223675000Y-145871299D01*
X223468232Y-145871299D01*
X223468232Y-144900000D01*
X223456727Y-144838855D01*
X223420590Y-144782697D01*
X223365452Y-144745022D01*
X223300000Y-144731768D01*
X221300000Y-144731768D01*
X221238855Y-144743273D01*
X221182697Y-144779410D01*
X221145022Y-144834548D01*
X221131768Y-144900000D01*
X167931371Y-144900000D01*
X167954978Y-144865452D01*
X167968232Y-144800000D01*
X167968232Y-142400000D01*
X167956727Y-142338855D01*
X167920590Y-142282697D01*
X167865452Y-142245022D01*
X167800000Y-142231768D01*
X165400000Y-142231768D01*
X165338855Y-142243273D01*
X165282697Y-142279410D01*
X165245022Y-142334548D01*
X165231768Y-142400000D01*
X155315000Y-142400000D01*
X155315000Y-134800000D01*
X155313818Y-134794164D01*
X155310459Y-134789248D01*
X155305452Y-134786026D01*
X155300000Y-134785000D01*
X94400000Y-134785000D01*
X94394164Y-134786182D01*
X94389248Y-134789541D01*
X94386026Y-134794548D01*
X94385000Y-134800000D01*
X94385000Y-154685000D01*
X69515000Y-154685000D01*
X69515000Y-145758462D01*
X72284599Y-145758462D01*
X72636294Y-146609629D01*
X73286945Y-147261418D01*
X74137498Y-147614598D01*
X75058462Y-147615401D01*
X75909629Y-147263706D01*
X76561418Y-146613055D01*
X76914598Y-145762502D01*
X76914783Y-145550000D01*
X89981768Y-145550000D01*
X89981768Y-147050000D01*
X89993273Y-147111145D01*
X90029410Y-147167303D01*
X90084548Y-147204978D01*
X90150000Y-147218232D01*
X91650000Y-147218232D01*
X91711145Y-147206727D01*
X91767303Y-147170590D01*
X91804978Y-147115452D01*
X91818232Y-147050000D01*
X91818232Y-145550000D01*
X91806727Y-145488855D01*
X91770590Y-145432697D01*
X91715452Y-145395022D01*
X91650000Y-145381768D01*
X90150000Y-145381768D01*
X90088855Y-145393273D01*
X90032697Y-145429410D01*
X89995022Y-145484548D01*
X89981768Y-145550000D01*
X76914783Y-145550000D01*
X76915401Y-144841538D01*
X76766515Y-144481206D01*
X89984841Y-144481206D01*
X90123848Y-144817629D01*
X90381017Y-145075247D01*
X90717197Y-145214841D01*
X91081206Y-145215159D01*
X91417629Y-145076152D01*
X91675247Y-144818983D01*
X91814841Y-144482803D01*
X91815159Y-144118794D01*
X91676152Y-143782371D01*
X91418983Y-143524753D01*
X91082803Y-143385159D01*
X90718794Y-143384841D01*
X90382371Y-143523848D01*
X90124753Y-143781017D01*
X89985159Y-144117197D01*
X89984841Y-144481206D01*
X76766515Y-144481206D01*
X76563706Y-143990371D01*
X75913055Y-143338582D01*
X75062502Y-142985402D01*
X74141538Y-142984599D01*
X73290371Y-143336294D01*
X72638582Y-143986945D01*
X72285402Y-144837498D01*
X72284599Y-145758462D01*
X69515000Y-145758462D01*
X69515000Y-135700000D01*
X69513818Y-135694164D01*
X69510459Y-135689248D01*
X69505452Y-135686026D01*
X69500000Y-135685000D01*
X60315000Y-135685000D01*
X60315000Y-132980115D01*
X100625000Y-132980115D01*
X100625000Y-133019885D01*
X100702262Y-133408309D01*
X100922287Y-133737598D01*
X101251576Y-133957623D01*
X101640000Y-134034885D01*
X102028424Y-133957623D01*
X102357713Y-133737598D01*
X102577738Y-133408309D01*
X102655000Y-133019885D01*
X102655000Y-132980115D01*
X103165000Y-132980115D01*
X103165000Y-133019885D01*
X103242262Y-133408309D01*
X103462287Y-133737598D01*
X103791576Y-133957623D01*
X104180000Y-134034885D01*
X104568424Y-133957623D01*
X104897713Y-133737598D01*
X105117738Y-133408309D01*
X105195000Y-133019885D01*
X105195000Y-132980115D01*
X105705000Y-132980115D01*
X105705000Y-133019885D01*
X105782262Y-133408309D01*
X106002287Y-133737598D01*
X106331576Y-133957623D01*
X106720000Y-134034885D01*
X107108424Y-133957623D01*
X107437713Y-133737598D01*
X107657738Y-133408309D01*
X107735000Y-133019885D01*
X107735000Y-132980115D01*
X108245000Y-132980115D01*
X108245000Y-133019885D01*
X108322262Y-133408309D01*
X108542287Y-133737598D01*
X108871576Y-133957623D01*
X109260000Y-134034885D01*
X109648424Y-133957623D01*
X109977713Y-133737598D01*
X110197738Y-133408309D01*
X110275000Y-133019885D01*
X110275000Y-132980115D01*
X110197738Y-132591691D01*
X109977713Y-132262402D01*
X109648424Y-132042377D01*
X109260000Y-131965115D01*
X108871576Y-132042377D01*
X108542287Y-132262402D01*
X108322262Y-132591691D01*
X108245000Y-132980115D01*
X107735000Y-132980115D01*
X107657738Y-132591691D01*
X107437713Y-132262402D01*
X107108424Y-132042377D01*
X106720000Y-131965115D01*
X106331576Y-132042377D01*
X106002287Y-132262402D01*
X105782262Y-132591691D01*
X105705000Y-132980115D01*
X105195000Y-132980115D01*
X105117738Y-132591691D01*
X104897713Y-132262402D01*
X104568424Y-132042377D01*
X104180000Y-131965115D01*
X103791576Y-132042377D01*
X103462287Y-132262402D01*
X103242262Y-132591691D01*
X103165000Y-132980115D01*
X102655000Y-132980115D01*
X102577738Y-132591691D01*
X102357713Y-132262402D01*
X102028424Y-132042377D01*
X101640000Y-131965115D01*
X101251576Y-132042377D01*
X100922287Y-132262402D01*
X100702262Y-132591691D01*
X100625000Y-132980115D01*
X60315000Y-132980115D01*
X60315000Y-131730000D01*
X75666493Y-131730000D01*
X75713275Y-131965190D01*
X75846499Y-132164574D01*
X76045883Y-132297798D01*
X76281073Y-132344580D01*
X76918927Y-132344580D01*
X77154117Y-132297798D01*
X77353501Y-132164574D01*
X77486725Y-131965190D01*
X77533507Y-131730000D01*
X77486725Y-131494810D01*
X77353501Y-131295426D01*
X77154117Y-131162202D01*
X76918927Y-131115420D01*
X76281073Y-131115420D01*
X76045883Y-131162202D01*
X75846499Y-131295426D01*
X75713275Y-131494810D01*
X75666493Y-131730000D01*
X60315000Y-131730000D01*
X60315000Y-130460000D01*
X75666493Y-130460000D01*
X75713275Y-130695190D01*
X75846499Y-130894574D01*
X76045883Y-131027798D01*
X76281073Y-131074580D01*
X76918927Y-131074580D01*
X77154117Y-131027798D01*
X77353501Y-130894574D01*
X77486725Y-130695190D01*
X77533507Y-130460000D01*
X77520232Y-130393258D01*
X165695000Y-130393258D01*
X165695000Y-131246742D01*
X165768456Y-131616032D01*
X165977642Y-131929100D01*
X166290710Y-132138286D01*
X166660000Y-132211742D01*
X167029290Y-132138286D01*
X167342358Y-131929100D01*
X167551544Y-131616032D01*
X167625000Y-131246742D01*
X167625000Y-130393258D01*
X168235000Y-130393258D01*
X168235000Y-131246742D01*
X168308456Y-131616032D01*
X168517642Y-131929100D01*
X168830710Y-132138286D01*
X169200000Y-132211742D01*
X169569290Y-132138286D01*
X169882358Y-131929100D01*
X170091544Y-131616032D01*
X170165000Y-131246742D01*
X170165000Y-130393258D01*
X170091544Y-130023968D01*
X169882358Y-129710900D01*
X169569290Y-129501714D01*
X169200000Y-129428258D01*
X168830710Y-129501714D01*
X168517642Y-129710900D01*
X168308456Y-130023968D01*
X168235000Y-130393258D01*
X167625000Y-130393258D01*
X167551544Y-130023968D01*
X167342358Y-129710900D01*
X167029290Y-129501714D01*
X166660000Y-129428258D01*
X166290710Y-129501714D01*
X165977642Y-129710900D01*
X165768456Y-130023968D01*
X165695000Y-130393258D01*
X77520232Y-130393258D01*
X77486725Y-130224810D01*
X77353501Y-130025426D01*
X77154117Y-129892202D01*
X76918927Y-129845420D01*
X76281073Y-129845420D01*
X76045883Y-129892202D01*
X75846499Y-130025426D01*
X75713275Y-130224810D01*
X75666493Y-130460000D01*
X60315000Y-130460000D01*
X60315000Y-127238775D01*
X93037600Y-127238775D01*
X93037600Y-128001225D01*
X93110097Y-128365693D01*
X93316552Y-128674673D01*
X93625532Y-128881128D01*
X93990000Y-128953625D01*
X94354468Y-128881128D01*
X94663448Y-128674673D01*
X94869903Y-128365693D01*
X94942400Y-128001225D01*
X94942400Y-127238775D01*
X95577600Y-127238775D01*
X95577600Y-128001225D01*
X95650097Y-128365693D01*
X95856552Y-128674673D01*
X96165532Y-128881128D01*
X96530000Y-128953625D01*
X96894468Y-128881128D01*
X97203448Y-128674673D01*
X97409903Y-128365693D01*
X97482400Y-128001225D01*
X97482400Y-127238775D01*
X98117600Y-127238775D01*
X98117600Y-128001225D01*
X98190097Y-128365693D01*
X98396552Y-128674673D01*
X98705532Y-128881128D01*
X99070000Y-128953625D01*
X99434468Y-128881128D01*
X99743448Y-128674673D01*
X99949903Y-128365693D01*
X100022400Y-128001225D01*
X100022400Y-127238775D01*
X100657600Y-127238775D01*
X100657600Y-128001225D01*
X100730097Y-128365693D01*
X100936552Y-128674673D01*
X101245532Y-128881128D01*
X101610000Y-128953625D01*
X101974468Y-128881128D01*
X102283448Y-128674673D01*
X102489903Y-128365693D01*
X102562400Y-128001225D01*
X102562400Y-127238775D01*
X103197600Y-127238775D01*
X103197600Y-128001225D01*
X103270097Y-128365693D01*
X103476552Y-128674673D01*
X103785532Y-128881128D01*
X104150000Y-128953625D01*
X104514468Y-128881128D01*
X104823448Y-128674673D01*
X105029903Y-128365693D01*
X105102400Y-128001225D01*
X105102400Y-127238775D01*
X105737600Y-127238775D01*
X105737600Y-128001225D01*
X105810097Y-128365693D01*
X106016552Y-128674673D01*
X106325532Y-128881128D01*
X106690000Y-128953625D01*
X107054468Y-128881128D01*
X107363448Y-128674673D01*
X107569903Y-128365693D01*
X107642400Y-128001225D01*
X107642400Y-127238775D01*
X108277600Y-127238775D01*
X108277600Y-128001225D01*
X108350097Y-128365693D01*
X108556552Y-128674673D01*
X108865532Y-128881128D01*
X109230000Y-128953625D01*
X109594468Y-128881128D01*
X109903448Y-128674673D01*
X110109903Y-128365693D01*
X110182400Y-128001225D01*
X110182400Y-127238775D01*
X110109903Y-126874307D01*
X109903448Y-126565327D01*
X109594468Y-126358872D01*
X109230000Y-126286375D01*
X108865532Y-126358872D01*
X108556552Y-126565327D01*
X108350097Y-126874307D01*
X108277600Y-127238775D01*
X107642400Y-127238775D01*
X107569903Y-126874307D01*
X107363448Y-126565327D01*
X107054468Y-126358872D01*
X106690000Y-126286375D01*
X106325532Y-126358872D01*
X106016552Y-126565327D01*
X105810097Y-126874307D01*
X105737600Y-127238775D01*
X105102400Y-127238775D01*
X105029903Y-126874307D01*
X104823448Y-126565327D01*
X104514468Y-126358872D01*
X104150000Y-126286375D01*
X103785532Y-126358872D01*
X103476552Y-126565327D01*
X103270097Y-126874307D01*
X103197600Y-127238775D01*
X102562400Y-127238775D01*
X102489903Y-126874307D01*
X102283448Y-126565327D01*
X101974468Y-126358872D01*
X101610000Y-126286375D01*
X101245532Y-126358872D01*
X100936552Y-126565327D01*
X100730097Y-126874307D01*
X100657600Y-127238775D01*
X100022400Y-127238775D01*
X99949903Y-126874307D01*
X99743448Y-126565327D01*
X99434468Y-126358872D01*
X99070000Y-126286375D01*
X98705532Y-126358872D01*
X98396552Y-126565327D01*
X98190097Y-126874307D01*
X98117600Y-127238775D01*
X97482400Y-127238775D01*
X97409903Y-126874307D01*
X97203448Y-126565327D01*
X96894468Y-126358872D01*
X96530000Y-126286375D01*
X96165532Y-126358872D01*
X95856552Y-126565327D01*
X95650097Y-126874307D01*
X95577600Y-127238775D01*
X94942400Y-127238775D01*
X94869903Y-126874307D01*
X94663448Y-126565327D01*
X94354468Y-126358872D01*
X93990000Y-126286375D01*
X93625532Y-126358872D01*
X93316552Y-126565327D01*
X93110097Y-126874307D01*
X93037600Y-127238775D01*
X60315000Y-127238775D01*
X60315000Y-123730556D01*
X75434798Y-123730556D01*
X75611785Y-124158898D01*
X75939219Y-124486903D01*
X76367250Y-124664638D01*
X76830716Y-124665042D01*
X77259058Y-124488055D01*
X77587063Y-124160621D01*
X77764798Y-123732590D01*
X77765202Y-123269124D01*
X77588215Y-122840782D01*
X77260781Y-122512777D01*
X76832750Y-122335042D01*
X76369284Y-122334638D01*
X75940942Y-122511625D01*
X75612937Y-122839059D01*
X75435202Y-123267090D01*
X75434798Y-123730556D01*
X60315000Y-123730556D01*
X60315000Y-116130876D01*
X75434798Y-116130876D01*
X75611785Y-116559218D01*
X75939219Y-116887223D01*
X76367250Y-117064958D01*
X76830716Y-117065362D01*
X77259058Y-116888375D01*
X77587063Y-116560941D01*
X77764798Y-116132910D01*
X77765202Y-115669444D01*
X77588215Y-115241102D01*
X77260781Y-114913097D01*
X76832750Y-114735362D01*
X76369284Y-114734958D01*
X75940942Y-114911945D01*
X75612937Y-115239379D01*
X75435202Y-115667410D01*
X75434798Y-116130876D01*
X60315000Y-116130876D01*
X60315000Y-111998775D01*
X93037600Y-111998775D01*
X93037600Y-112761225D01*
X93110097Y-113125693D01*
X93316552Y-113434673D01*
X93625532Y-113641128D01*
X93990000Y-113713625D01*
X94354468Y-113641128D01*
X94663448Y-113434673D01*
X94869903Y-113125693D01*
X94942400Y-112761225D01*
X94942400Y-111998775D01*
X95577600Y-111998775D01*
X95577600Y-112761225D01*
X95650097Y-113125693D01*
X95856552Y-113434673D01*
X96165532Y-113641128D01*
X96530000Y-113713625D01*
X96894468Y-113641128D01*
X97203448Y-113434673D01*
X97409903Y-113125693D01*
X97482400Y-112761225D01*
X97482400Y-111998775D01*
X98117600Y-111998775D01*
X98117600Y-112761225D01*
X98190097Y-113125693D01*
X98396552Y-113434673D01*
X98705532Y-113641128D01*
X99070000Y-113713625D01*
X99434468Y-113641128D01*
X99743448Y-113434673D01*
X99949903Y-113125693D01*
X100022400Y-112761225D01*
X100022400Y-111998775D01*
X100657600Y-111998775D01*
X100657600Y-112761225D01*
X100730097Y-113125693D01*
X100936552Y-113434673D01*
X101245532Y-113641128D01*
X101610000Y-113713625D01*
X101974468Y-113641128D01*
X102283448Y-113434673D01*
X102489903Y-113125693D01*
X102562400Y-112761225D01*
X102562400Y-111998775D01*
X103197600Y-111998775D01*
X103197600Y-112761225D01*
X103270097Y-113125693D01*
X103476552Y-113434673D01*
X103785532Y-113641128D01*
X104150000Y-113713625D01*
X104514468Y-113641128D01*
X104823448Y-113434673D01*
X105029903Y-113125693D01*
X105102400Y-112761225D01*
X105102400Y-111998775D01*
X105737600Y-111998775D01*
X105737600Y-112761225D01*
X105810097Y-113125693D01*
X106016552Y-113434673D01*
X106325532Y-113641128D01*
X106690000Y-113713625D01*
X107054468Y-113641128D01*
X107363448Y-113434673D01*
X107569903Y-113125693D01*
X107642400Y-112761225D01*
X107642400Y-111998775D01*
X108277600Y-111998775D01*
X108277600Y-112761225D01*
X108350097Y-113125693D01*
X108556552Y-113434673D01*
X108865532Y-113641128D01*
X109230000Y-113713625D01*
X109594468Y-113641128D01*
X109903448Y-113434673D01*
X110109903Y-113125693D01*
X110182400Y-112761225D01*
X110182400Y-111998775D01*
X110109903Y-111634307D01*
X109903448Y-111325327D01*
X109594468Y-111118872D01*
X109230000Y-111046375D01*
X108865532Y-111118872D01*
X108556552Y-111325327D01*
X108350097Y-111634307D01*
X108277600Y-111998775D01*
X107642400Y-111998775D01*
X107569903Y-111634307D01*
X107363448Y-111325327D01*
X107054468Y-111118872D01*
X106690000Y-111046375D01*
X106325532Y-111118872D01*
X106016552Y-111325327D01*
X105810097Y-111634307D01*
X105737600Y-111998775D01*
X105102400Y-111998775D01*
X105029903Y-111634307D01*
X104823448Y-111325327D01*
X104514468Y-111118872D01*
X104150000Y-111046375D01*
X103785532Y-111118872D01*
X103476552Y-111325327D01*
X103270097Y-111634307D01*
X103197600Y-111998775D01*
X102562400Y-111998775D01*
X102489903Y-111634307D01*
X102283448Y-111325327D01*
X101974468Y-111118872D01*
X101610000Y-111046375D01*
X101245532Y-111118872D01*
X100936552Y-111325327D01*
X100730097Y-111634307D01*
X100657600Y-111998775D01*
X100022400Y-111998775D01*
X99949903Y-111634307D01*
X99743448Y-111325327D01*
X99434468Y-111118872D01*
X99070000Y-111046375D01*
X98705532Y-111118872D01*
X98396552Y-111325327D01*
X98190097Y-111634307D01*
X98117600Y-111998775D01*
X97482400Y-111998775D01*
X97409903Y-111634307D01*
X97203448Y-111325327D01*
X96894468Y-111118872D01*
X96530000Y-111046375D01*
X96165532Y-111118872D01*
X95856552Y-111325327D01*
X95650097Y-111634307D01*
X95577600Y-111998775D01*
X94942400Y-111998775D01*
X94869903Y-111634307D01*
X94663448Y-111325327D01*
X94354468Y-111118872D01*
X93990000Y-111046375D01*
X93625532Y-111118872D01*
X93316552Y-111325327D01*
X93110097Y-111634307D01*
X93037600Y-111998775D01*
X60315000Y-111998775D01*
X60315000Y-106227776D01*
X101234539Y-106227776D01*
X101639406Y-107207629D01*
X102388428Y-107957959D01*
X103367573Y-108364536D01*
X104427776Y-108365461D01*
X105407629Y-107960594D01*
X106157959Y-107211572D01*
X106564536Y-106232427D01*
X106565461Y-105172224D01*
X106160594Y-104192371D01*
X105411572Y-103442041D01*
X104432427Y-103035464D01*
X103372224Y-103034539D01*
X102392371Y-103439406D01*
X101642041Y-104188428D01*
X101235464Y-105167573D01*
X101234539Y-106227776D01*
X60315000Y-106227776D01*
X60315000Y-100758462D01*
X64584599Y-100758462D01*
X64936294Y-101609629D01*
X65586945Y-102261418D01*
X66437498Y-102614598D01*
X67358462Y-102615401D01*
X68209629Y-102263706D01*
X68861418Y-101613055D01*
X69214598Y-100762502D01*
X69214642Y-100710912D01*
X96174815Y-100710912D01*
X96336610Y-101102486D01*
X96635938Y-101402337D01*
X97027229Y-101564815D01*
X97450912Y-101565185D01*
X97842486Y-101403390D01*
X98142337Y-101104062D01*
X98304815Y-100712771D01*
X98305185Y-100289088D01*
X98143390Y-99897514D01*
X97844062Y-99597663D01*
X97452771Y-99435185D01*
X97029088Y-99434815D01*
X96637514Y-99596610D01*
X96337663Y-99895938D01*
X96175185Y-100287229D01*
X96174815Y-100710912D01*
X69214642Y-100710912D01*
X69215401Y-99841538D01*
X68863706Y-98990371D01*
X68213055Y-98338582D01*
X67362502Y-97985402D01*
X66441538Y-97984599D01*
X65590371Y-98336294D01*
X64938582Y-98986945D01*
X64585402Y-99837498D01*
X64584599Y-100758462D01*
X60315000Y-100758462D01*
X60315000Y-97792088D01*
X110034919Y-97792088D01*
X110105562Y-97963057D01*
X110208000Y-98065674D01*
X110208000Y-115000000D01*
X110230227Y-115111744D01*
X110293525Y-115206475D01*
X111478000Y-116390950D01*
X111478000Y-126344457D01*
X111405532Y-126358872D01*
X111096552Y-126565327D01*
X110890097Y-126874307D01*
X110817600Y-127238775D01*
X110817600Y-128001225D01*
X110890097Y-128365693D01*
X111096552Y-128674673D01*
X111405532Y-128881128D01*
X111770000Y-128953625D01*
X112134468Y-128881128D01*
X112443448Y-128674673D01*
X112649903Y-128365693D01*
X112722400Y-128001225D01*
X112722400Y-127238775D01*
X112649903Y-126874307D01*
X112443448Y-126565327D01*
X112134468Y-126358872D01*
X112062000Y-126344457D01*
X112062000Y-116270000D01*
X112039773Y-116158256D01*
X111976475Y-116063525D01*
X110792000Y-114879050D01*
X110792000Y-111998775D01*
X110817600Y-111998775D01*
X110817600Y-112761225D01*
X110890097Y-113125693D01*
X111096552Y-113434673D01*
X111405532Y-113641128D01*
X111770000Y-113713625D01*
X112134468Y-113641128D01*
X112443448Y-113434673D01*
X112649903Y-113125693D01*
X112708000Y-112833619D01*
X112708000Y-116600000D01*
X112730227Y-116711744D01*
X112760943Y-116757713D01*
X112793525Y-116806475D01*
X114018000Y-118030950D01*
X114018000Y-126344457D01*
X113945532Y-126358872D01*
X113636552Y-126565327D01*
X113430097Y-126874307D01*
X113357600Y-127238775D01*
X113357600Y-128001225D01*
X113430097Y-128365693D01*
X113636552Y-128674673D01*
X113945532Y-128881128D01*
X114310000Y-128953625D01*
X114674468Y-128881128D01*
X114983448Y-128674673D01*
X115189903Y-128365693D01*
X115262400Y-128001225D01*
X115262400Y-127238775D01*
X115897600Y-127238775D01*
X115897600Y-128001225D01*
X115970097Y-128365693D01*
X116176552Y-128674673D01*
X116485532Y-128881128D01*
X116850000Y-128953625D01*
X117214468Y-128881128D01*
X117523448Y-128674673D01*
X117729903Y-128365693D01*
X117802400Y-128001225D01*
X117802400Y-127238775D01*
X118437600Y-127238775D01*
X118437600Y-128001225D01*
X118510097Y-128365693D01*
X118716552Y-128674673D01*
X119025532Y-128881128D01*
X119390000Y-128953625D01*
X119754468Y-128881128D01*
X120063448Y-128674673D01*
X120269903Y-128365693D01*
X120342400Y-128001225D01*
X120342400Y-127238775D01*
X120977600Y-127238775D01*
X120977600Y-128001225D01*
X121050097Y-128365693D01*
X121256552Y-128674673D01*
X121565532Y-128881128D01*
X121930000Y-128953625D01*
X122294468Y-128881128D01*
X122603448Y-128674673D01*
X122809903Y-128365693D01*
X122882400Y-128001225D01*
X122882400Y-127238775D01*
X122809903Y-126874307D01*
X122603448Y-126565327D01*
X122294468Y-126358872D01*
X121930000Y-126286375D01*
X121565532Y-126358872D01*
X121256552Y-126565327D01*
X121050097Y-126874307D01*
X120977600Y-127238775D01*
X120342400Y-127238775D01*
X120269903Y-126874307D01*
X120063448Y-126565327D01*
X119754468Y-126358872D01*
X119390000Y-126286375D01*
X119025532Y-126358872D01*
X118716552Y-126565327D01*
X118510097Y-126874307D01*
X118437600Y-127238775D01*
X117802400Y-127238775D01*
X117729903Y-126874307D01*
X117523448Y-126565327D01*
X117214468Y-126358872D01*
X116850000Y-126286375D01*
X116485532Y-126358872D01*
X116176552Y-126565327D01*
X115970097Y-126874307D01*
X115897600Y-127238775D01*
X115262400Y-127238775D01*
X115189903Y-126874307D01*
X114983448Y-126565327D01*
X114674468Y-126358872D01*
X114602000Y-126344457D01*
X114602000Y-117910000D01*
X114579773Y-117798256D01*
X114516475Y-117703525D01*
X113292000Y-116479050D01*
X113292000Y-111998775D01*
X113357600Y-111998775D01*
X113357600Y-112761225D01*
X113430097Y-113125693D01*
X113636552Y-113434673D01*
X113945532Y-113641128D01*
X114310000Y-113713625D01*
X114674468Y-113641128D01*
X114983448Y-113434673D01*
X115189903Y-113125693D01*
X115262400Y-112761225D01*
X115262400Y-111998775D01*
X115897600Y-111998775D01*
X115897600Y-112761225D01*
X115970097Y-113125693D01*
X116176552Y-113434673D01*
X116485532Y-113641128D01*
X116850000Y-113713625D01*
X117214468Y-113641128D01*
X117523448Y-113434673D01*
X117729903Y-113125693D01*
X117802400Y-112761225D01*
X117802400Y-111998775D01*
X118437600Y-111998775D01*
X118437600Y-112761225D01*
X118510097Y-113125693D01*
X118716552Y-113434673D01*
X119025532Y-113641128D01*
X119390000Y-113713625D01*
X119754468Y-113641128D01*
X120063448Y-113434673D01*
X120269903Y-113125693D01*
X120342400Y-112761225D01*
X120342400Y-111998775D01*
X123517600Y-111998775D01*
X123517600Y-112761225D01*
X123590097Y-113125693D01*
X123796552Y-113434673D01*
X124105532Y-113641128D01*
X124178000Y-113655543D01*
X124178000Y-126344457D01*
X124105532Y-126358872D01*
X123796552Y-126565327D01*
X123590097Y-126874307D01*
X123517600Y-127238775D01*
X123517600Y-128001225D01*
X123590097Y-128365693D01*
X123796552Y-128674673D01*
X124105532Y-128881128D01*
X124470000Y-128953625D01*
X124834468Y-128881128D01*
X125143448Y-128674673D01*
X125349903Y-128365693D01*
X125422400Y-128001225D01*
X125422400Y-127238775D01*
X128597600Y-127238775D01*
X128597600Y-128001225D01*
X128670097Y-128365693D01*
X128876552Y-128674673D01*
X129185532Y-128881128D01*
X129550000Y-128953625D01*
X129914468Y-128881128D01*
X130223448Y-128674673D01*
X130429903Y-128365693D01*
X130502400Y-128001225D01*
X130502400Y-127238775D01*
X130429903Y-126874307D01*
X130223448Y-126565327D01*
X129914468Y-126358872D01*
X129550000Y-126286375D01*
X129185532Y-126358872D01*
X128876552Y-126565327D01*
X128670097Y-126874307D01*
X128597600Y-127238775D01*
X125422400Y-127238775D01*
X125349903Y-126874307D01*
X125143448Y-126565327D01*
X124834468Y-126358872D01*
X124762000Y-126344457D01*
X124762000Y-123660000D01*
X137365115Y-123660000D01*
X137442377Y-124048424D01*
X137662402Y-124377713D01*
X137991691Y-124597738D01*
X138380115Y-124675000D01*
X138419885Y-124675000D01*
X138808309Y-124597738D01*
X139137598Y-124377713D01*
X139357623Y-124048424D01*
X139434885Y-123660000D01*
X139357623Y-123271576D01*
X139137598Y-122942287D01*
X138808309Y-122722262D01*
X138419885Y-122645000D01*
X138380115Y-122645000D01*
X137991691Y-122722262D01*
X137662402Y-122942287D01*
X137442377Y-123271576D01*
X137365115Y-123660000D01*
X124762000Y-123660000D01*
X124762000Y-121120000D01*
X137365115Y-121120000D01*
X137442377Y-121508424D01*
X137662402Y-121837713D01*
X137991691Y-122057738D01*
X138380115Y-122135000D01*
X138419885Y-122135000D01*
X138808309Y-122057738D01*
X138894719Y-122000000D01*
X168231768Y-122000000D01*
X168231768Y-124400000D01*
X168243273Y-124461145D01*
X168279410Y-124517303D01*
X168334548Y-124554978D01*
X168400000Y-124568232D01*
X170000000Y-124568232D01*
X170061145Y-124556727D01*
X170117303Y-124520590D01*
X170154978Y-124465452D01*
X170168232Y-124400000D01*
X170168232Y-122000000D01*
X170156727Y-121938855D01*
X170120590Y-121882697D01*
X170065452Y-121845022D01*
X170000000Y-121831768D01*
X168400000Y-121831768D01*
X168338855Y-121843273D01*
X168282697Y-121879410D01*
X168245022Y-121934548D01*
X168231768Y-122000000D01*
X138894719Y-122000000D01*
X139137598Y-121837713D01*
X139357623Y-121508424D01*
X139434885Y-121120000D01*
X139357623Y-120731576D01*
X139137598Y-120402287D01*
X138808309Y-120182262D01*
X138419885Y-120105000D01*
X138380115Y-120105000D01*
X137991691Y-120182262D01*
X137662402Y-120402287D01*
X137442377Y-120731576D01*
X137365115Y-121120000D01*
X124762000Y-121120000D01*
X124762000Y-118580000D01*
X137365115Y-118580000D01*
X137442377Y-118968424D01*
X137662402Y-119297713D01*
X137991691Y-119517738D01*
X138380115Y-119595000D01*
X138419885Y-119595000D01*
X138808309Y-119517738D01*
X139137598Y-119297713D01*
X139357623Y-118968424D01*
X139434885Y-118580000D01*
X139357623Y-118191576D01*
X139137598Y-117862287D01*
X138808309Y-117642262D01*
X138419885Y-117565000D01*
X138380115Y-117565000D01*
X137991691Y-117642262D01*
X137662402Y-117862287D01*
X137442377Y-118191576D01*
X137365115Y-118580000D01*
X124762000Y-118580000D01*
X124762000Y-116040000D01*
X137365115Y-116040000D01*
X137442377Y-116428424D01*
X137662402Y-116757713D01*
X137991691Y-116977738D01*
X138380115Y-117055000D01*
X138419885Y-117055000D01*
X138808309Y-116977738D01*
X139137598Y-116757713D01*
X139357623Y-116428424D01*
X139434885Y-116040000D01*
X139357623Y-115651576D01*
X139137598Y-115322287D01*
X138808309Y-115102262D01*
X138419885Y-115025000D01*
X138380115Y-115025000D01*
X137991691Y-115102262D01*
X137662402Y-115322287D01*
X137442377Y-115651576D01*
X137365115Y-116040000D01*
X124762000Y-116040000D01*
X124762000Y-113655543D01*
X124834468Y-113641128D01*
X125143448Y-113434673D01*
X125349903Y-113125693D01*
X125422400Y-112761225D01*
X125422400Y-111998775D01*
X126057600Y-111998775D01*
X126057600Y-112761225D01*
X126130097Y-113125693D01*
X126336552Y-113434673D01*
X126645532Y-113641128D01*
X127010000Y-113713625D01*
X127374468Y-113641128D01*
X127683448Y-113434673D01*
X127889903Y-113125693D01*
X127962400Y-112761225D01*
X127962400Y-111998775D01*
X127889903Y-111634307D01*
X127683448Y-111325327D01*
X127551259Y-111237000D01*
X128594368Y-111237000D01*
X128594368Y-113523000D01*
X128605873Y-113584145D01*
X128642010Y-113640303D01*
X128697148Y-113677978D01*
X128762600Y-113691232D01*
X130337400Y-113691232D01*
X130398545Y-113679727D01*
X130454703Y-113643590D01*
X130492378Y-113588452D01*
X130505632Y-113523000D01*
X130505632Y-112650000D01*
X137381768Y-112650000D01*
X137381768Y-114350000D01*
X137393273Y-114411145D01*
X137429410Y-114467303D01*
X137484548Y-114504978D01*
X137550000Y-114518232D01*
X139250000Y-114518232D01*
X139311145Y-114506727D01*
X139367303Y-114470590D01*
X139404978Y-114415452D01*
X139418232Y-114350000D01*
X139418232Y-112650000D01*
X139406727Y-112588855D01*
X139370590Y-112532697D01*
X139315452Y-112495022D01*
X139250000Y-112481768D01*
X137550000Y-112481768D01*
X137488855Y-112493273D01*
X137432697Y-112529410D01*
X137395022Y-112584548D01*
X137381768Y-112650000D01*
X130505632Y-112650000D01*
X130505632Y-112100000D01*
X162531768Y-112100000D01*
X162531768Y-114100000D01*
X162543273Y-114161145D01*
X162579410Y-114217303D01*
X162634548Y-114254978D01*
X162700000Y-114268232D01*
X164700000Y-114268232D01*
X164761145Y-114256727D01*
X164817303Y-114220590D01*
X164854978Y-114165452D01*
X164868232Y-114100000D01*
X164868232Y-113596088D01*
X166700000Y-113596088D01*
X166761145Y-113584583D01*
X166817303Y-113548446D01*
X166854978Y-113493308D01*
X166868232Y-113427856D01*
X166868232Y-111427856D01*
X166856727Y-111366711D01*
X166820590Y-111310553D01*
X166765452Y-111272878D01*
X166700000Y-111259624D01*
X164700000Y-111259624D01*
X164638855Y-111271129D01*
X164582697Y-111307266D01*
X164545022Y-111362404D01*
X164531768Y-111427856D01*
X164531768Y-111931768D01*
X162700000Y-111931768D01*
X162638855Y-111943273D01*
X162582697Y-111979410D01*
X162545022Y-112034548D01*
X162531768Y-112100000D01*
X130505632Y-112100000D01*
X130505632Y-111237000D01*
X130494127Y-111175855D01*
X130457990Y-111119697D01*
X130402852Y-111082022D01*
X130337400Y-111068768D01*
X128762600Y-111068768D01*
X128701455Y-111080273D01*
X128645297Y-111116410D01*
X128607622Y-111171548D01*
X128594368Y-111237000D01*
X127551259Y-111237000D01*
X127374468Y-111118872D01*
X127010000Y-111046375D01*
X126645532Y-111118872D01*
X126336552Y-111325327D01*
X126130097Y-111634307D01*
X126057600Y-111998775D01*
X125422400Y-111998775D01*
X125349903Y-111634307D01*
X125143448Y-111325327D01*
X124834468Y-111118872D01*
X124470000Y-111046375D01*
X124105532Y-111118872D01*
X123796552Y-111325327D01*
X123590097Y-111634307D01*
X123517600Y-111998775D01*
X120342400Y-111998775D01*
X120269903Y-111634307D01*
X120063448Y-111325327D01*
X119754468Y-111118872D01*
X119390000Y-111046375D01*
X119025532Y-111118872D01*
X118716552Y-111325327D01*
X118510097Y-111634307D01*
X118437600Y-111998775D01*
X117802400Y-111998775D01*
X117729903Y-111634307D01*
X117523448Y-111325327D01*
X117214468Y-111118872D01*
X116850000Y-111046375D01*
X116485532Y-111118872D01*
X116176552Y-111325327D01*
X115970097Y-111634307D01*
X115897600Y-111998775D01*
X115262400Y-111998775D01*
X115189903Y-111634307D01*
X114983448Y-111325327D01*
X114674468Y-111118872D01*
X114310000Y-111046375D01*
X113945532Y-111118872D01*
X113636552Y-111325327D01*
X113430097Y-111634307D01*
X113357600Y-111998775D01*
X113292000Y-111998775D01*
X113292000Y-108670324D01*
X150534764Y-108670324D01*
X150742135Y-109172200D01*
X151125780Y-109556516D01*
X151627294Y-109764763D01*
X152170324Y-109765236D01*
X152672200Y-109557865D01*
X153056516Y-109174220D01*
X153264763Y-108672706D01*
X153265236Y-108129676D01*
X153057865Y-107627800D01*
X152674220Y-107243484D01*
X152172706Y-107035237D01*
X151629676Y-107034764D01*
X151127800Y-107242135D01*
X150743484Y-107625780D01*
X150535237Y-108127294D01*
X150534764Y-108670324D01*
X113292000Y-108670324D01*
X113292000Y-108200000D01*
X113269773Y-108088256D01*
X113206475Y-107993525D01*
X112192000Y-106979050D01*
X112192000Y-98192088D01*
X132334919Y-98192088D01*
X132405562Y-98363057D01*
X132508000Y-98465674D01*
X132508000Y-103934455D01*
X132406022Y-104036255D01*
X132335081Y-104207100D01*
X132334919Y-104392088D01*
X132405562Y-104563057D01*
X132536255Y-104693978D01*
X132707100Y-104764919D01*
X132892088Y-104765081D01*
X133063057Y-104694438D01*
X133193978Y-104563745D01*
X133264919Y-104392900D01*
X133265081Y-104207912D01*
X133194438Y-104036943D01*
X133092000Y-103934326D01*
X133092000Y-98465545D01*
X133193978Y-98363745D01*
X133264919Y-98192900D01*
X133264919Y-98192088D01*
X134234919Y-98192088D01*
X134305562Y-98363057D01*
X134408000Y-98465674D01*
X134408000Y-102834455D01*
X134306022Y-102936255D01*
X134235081Y-103107100D01*
X134234919Y-103292088D01*
X134305562Y-103463057D01*
X134436255Y-103593978D01*
X134607100Y-103664919D01*
X134792088Y-103665081D01*
X134963057Y-103594438D01*
X135093978Y-103463745D01*
X135164919Y-103292900D01*
X135165081Y-103107912D01*
X135094438Y-102936943D01*
X134992000Y-102834326D01*
X134992000Y-102192088D01*
X135934919Y-102192088D01*
X136005562Y-102363057D01*
X136136255Y-102493978D01*
X136307100Y-102564919D01*
X136492088Y-102565081D01*
X136663057Y-102494438D01*
X136793978Y-102363745D01*
X136864919Y-102192900D01*
X136865046Y-102047904D01*
X137306475Y-101606476D01*
X137369773Y-101511744D01*
X137392000Y-101400000D01*
X137392000Y-100670324D01*
X150534764Y-100670324D01*
X150742135Y-101172200D01*
X151125780Y-101556516D01*
X151627294Y-101764763D01*
X152170324Y-101765236D01*
X152672200Y-101557865D01*
X153056516Y-101174220D01*
X153264763Y-100672706D01*
X153265236Y-100129676D01*
X153057865Y-99627800D01*
X152674220Y-99243484D01*
X152172706Y-99035237D01*
X151629676Y-99034764D01*
X151127800Y-99242135D01*
X150743484Y-99625780D01*
X150535237Y-100127294D01*
X150534764Y-100670324D01*
X137392000Y-100670324D01*
X137392000Y-100000000D01*
X138128600Y-100000000D01*
X138172095Y-100218665D01*
X138295959Y-100404041D01*
X138481335Y-100527905D01*
X138700000Y-100571400D01*
X147500000Y-100571400D01*
X147718666Y-100527905D01*
X147904041Y-100404041D01*
X152704041Y-95604041D01*
X152827905Y-95418666D01*
X152871400Y-95200000D01*
X152871400Y-93740376D01*
X153300000Y-93740376D01*
X153361145Y-93728871D01*
X153417303Y-93692734D01*
X153454978Y-93637596D01*
X153468232Y-93572144D01*
X153468232Y-93068232D01*
X155300000Y-93068232D01*
X155361145Y-93056727D01*
X155417303Y-93020590D01*
X155436778Y-92992088D01*
X160334919Y-92992088D01*
X160405562Y-93163057D01*
X160536255Y-93293978D01*
X160647697Y-93340253D01*
X161481000Y-94173556D01*
X161481000Y-94500000D01*
X161512894Y-94660344D01*
X161603722Y-94796278D01*
X161739656Y-94887106D01*
X161900000Y-94919000D01*
X162060344Y-94887106D01*
X162196278Y-94796278D01*
X162287106Y-94660344D01*
X162319000Y-94500000D01*
X162319000Y-93003485D01*
X162364919Y-92892900D01*
X162365081Y-92707912D01*
X162294438Y-92536943D01*
X162163745Y-92406022D01*
X161992900Y-92335081D01*
X161807912Y-92334919D01*
X161636943Y-92405562D01*
X161506022Y-92536255D01*
X161435081Y-92707100D01*
X161434919Y-92892088D01*
X161470319Y-92977763D01*
X161240164Y-92747608D01*
X161194438Y-92636943D01*
X161063745Y-92506022D01*
X160892900Y-92435081D01*
X160707912Y-92434919D01*
X160536943Y-92505562D01*
X160406022Y-92636255D01*
X160335081Y-92807100D01*
X160334919Y-92992088D01*
X155436778Y-92992088D01*
X155454978Y-92965452D01*
X155468232Y-92900000D01*
X155468232Y-90900000D01*
X155456727Y-90838855D01*
X155420590Y-90782697D01*
X155365452Y-90745022D01*
X155300000Y-90731768D01*
X153300000Y-90731768D01*
X153238855Y-90743273D01*
X153182697Y-90779410D01*
X153145022Y-90834548D01*
X153131768Y-90900000D01*
X153131768Y-91403912D01*
X151300000Y-91403912D01*
X151238855Y-91415417D01*
X151182697Y-91451554D01*
X151145022Y-91506692D01*
X151131768Y-91572144D01*
X151131768Y-93572144D01*
X151143273Y-93633289D01*
X151179410Y-93689447D01*
X151234548Y-93727122D01*
X151300000Y-93740376D01*
X151728600Y-93740376D01*
X151728600Y-94963318D01*
X147263318Y-99428600D01*
X138700000Y-99428600D01*
X138481335Y-99472095D01*
X138295959Y-99595959D01*
X138172095Y-99781335D01*
X138128600Y-100000000D01*
X137392000Y-100000000D01*
X137392000Y-98465545D01*
X137493978Y-98363745D01*
X137564919Y-98192900D01*
X137565081Y-98007912D01*
X137494438Y-97836943D01*
X137363745Y-97706022D01*
X137192900Y-97635081D01*
X137007912Y-97634919D01*
X136836943Y-97705562D01*
X136706022Y-97836255D01*
X136635081Y-98007100D01*
X136634919Y-98192088D01*
X136705562Y-98363057D01*
X136808000Y-98465674D01*
X136808000Y-101279049D01*
X136452004Y-101635045D01*
X136307912Y-101634919D01*
X136136943Y-101705562D01*
X136006022Y-101836255D01*
X135935081Y-102007100D01*
X135934919Y-102192088D01*
X134992000Y-102192088D01*
X134992000Y-98465545D01*
X135093978Y-98363745D01*
X135164919Y-98192900D01*
X135165081Y-98007912D01*
X135094438Y-97836943D01*
X134963745Y-97706022D01*
X134792900Y-97635081D01*
X134607912Y-97634919D01*
X134436943Y-97705562D01*
X134306022Y-97836255D01*
X134235081Y-98007100D01*
X134234919Y-98192088D01*
X133264919Y-98192088D01*
X133265081Y-98007912D01*
X133194438Y-97836943D01*
X133063745Y-97706022D01*
X132892900Y-97635081D01*
X132707912Y-97634919D01*
X132536943Y-97705562D01*
X132406022Y-97836255D01*
X132335081Y-98007100D01*
X132334919Y-98192088D01*
X112192000Y-98192088D01*
X112192000Y-98165545D01*
X112293978Y-98063745D01*
X112364919Y-97892900D01*
X112365081Y-97707912D01*
X112294438Y-97536943D01*
X112163745Y-97406022D01*
X111992900Y-97335081D01*
X111807912Y-97334919D01*
X111636943Y-97405562D01*
X111506022Y-97536255D01*
X111435081Y-97707100D01*
X111434919Y-97892088D01*
X111505562Y-98063057D01*
X111608000Y-98165674D01*
X111608000Y-107100000D01*
X111630227Y-107211744D01*
X111693525Y-107306475D01*
X112708000Y-108320950D01*
X112708000Y-111926381D01*
X112649903Y-111634307D01*
X112443448Y-111325327D01*
X112134468Y-111118872D01*
X111770000Y-111046375D01*
X111405532Y-111118872D01*
X111096552Y-111325327D01*
X110890097Y-111634307D01*
X110817600Y-111998775D01*
X110792000Y-111998775D01*
X110792000Y-98065545D01*
X110893978Y-97963745D01*
X110964919Y-97792900D01*
X110965081Y-97607912D01*
X110894438Y-97436943D01*
X110763745Y-97306022D01*
X110592900Y-97235081D01*
X110407912Y-97234919D01*
X110236943Y-97305562D01*
X110106022Y-97436255D01*
X110035081Y-97607100D01*
X110034919Y-97792088D01*
X60315000Y-97792088D01*
X60315000Y-96015000D01*
X91300000Y-96015000D01*
X91305836Y-96013818D01*
X91310607Y-96010607D01*
X92710607Y-94610607D01*
X92713898Y-94605644D01*
X92715000Y-94600000D01*
X92715000Y-93110912D01*
X96174815Y-93110912D01*
X96336610Y-93502486D01*
X96635938Y-93802337D01*
X97027229Y-93964815D01*
X97450912Y-93965185D01*
X97842486Y-93803390D01*
X98142337Y-93504062D01*
X98304815Y-93112771D01*
X98305185Y-92689088D01*
X98143390Y-92297514D01*
X97844062Y-91997663D01*
X97452771Y-91835185D01*
X97029088Y-91834815D01*
X96637514Y-91996610D01*
X96337663Y-92295938D01*
X96175185Y-92687229D01*
X96174815Y-93110912D01*
X92715000Y-93110912D01*
X92715000Y-90615000D01*
X109900000Y-90615000D01*
X109905836Y-90613818D01*
X109910607Y-90610607D01*
X111310607Y-89210607D01*
X111313898Y-89205644D01*
X111315000Y-89200000D01*
X111315000Y-72000000D01*
X113431768Y-72000000D01*
X113431768Y-73600000D01*
X113443273Y-73661145D01*
X113479410Y-73717303D01*
X113534548Y-73754978D01*
X113600000Y-73768232D01*
X115200000Y-73768232D01*
X115261145Y-73756727D01*
X115317303Y-73720590D01*
X115354978Y-73665452D01*
X115368232Y-73600000D01*
X115368232Y-72000000D01*
X115356727Y-71938855D01*
X115320590Y-71882697D01*
X115265452Y-71845022D01*
X115200000Y-71831768D01*
X113600000Y-71831768D01*
X113538855Y-71843273D01*
X113482697Y-71879410D01*
X113445022Y-71934548D01*
X113431768Y-72000000D01*
X111315000Y-72000000D01*
X111315000Y-67720000D01*
X113416095Y-67720000D01*
X113489551Y-68089290D01*
X113698737Y-68402358D01*
X114011805Y-68611544D01*
X114381095Y-68685000D01*
X114418905Y-68685000D01*
X114788195Y-68611544D01*
X115101263Y-68402358D01*
X115310449Y-68089290D01*
X115383905Y-67720000D01*
X115310449Y-67350710D01*
X115101263Y-67037642D01*
X114788195Y-66828456D01*
X114418905Y-66755000D01*
X114381095Y-66755000D01*
X114011805Y-66828456D01*
X113698737Y-67037642D01*
X113489551Y-67350710D01*
X113416095Y-67720000D01*
X111315000Y-67720000D01*
X111315000Y-64800000D01*
X111313818Y-64794164D01*
X111310607Y-64789393D01*
X109315000Y-62793786D01*
X109315000Y-55758462D01*
X232884599Y-55758462D01*
X233236294Y-56609629D01*
X233886945Y-57261418D01*
X234737498Y-57614598D01*
X235658462Y-57615401D01*
X236509629Y-57263706D01*
X237161418Y-56613055D01*
X237514598Y-55762502D01*
X237515401Y-54841538D01*
X237163706Y-53990371D01*
X236513055Y-53338582D01*
X235662502Y-52985402D01*
X234741538Y-52984599D01*
X233890371Y-53336294D01*
X233238582Y-53986945D01*
X232885402Y-54837498D01*
X232884599Y-55758462D01*
X109315000Y-55758462D01*
X109315000Y-49407320D01*
X113025270Y-49407320D01*
X113025270Y-51991520D01*
X113094964Y-52341893D01*
X113293434Y-52638926D01*
X113590467Y-52837396D01*
X113940840Y-52907090D01*
X114291213Y-52837396D01*
X114588246Y-52638926D01*
X114786716Y-52341893D01*
X114856410Y-51991520D01*
X114856410Y-49407320D01*
X115565270Y-49407320D01*
X115565270Y-51991520D01*
X115634964Y-52341893D01*
X115833434Y-52638926D01*
X116130467Y-52837396D01*
X116480840Y-52907090D01*
X116831213Y-52837396D01*
X117128246Y-52638926D01*
X117326716Y-52341893D01*
X117396410Y-51991520D01*
X117396410Y-49407320D01*
X118105270Y-49407320D01*
X118105270Y-51991520D01*
X118174964Y-52341893D01*
X118373434Y-52638926D01*
X118670467Y-52837396D01*
X119020840Y-52907090D01*
X119371213Y-52837396D01*
X119668246Y-52638926D01*
X119866716Y-52341893D01*
X119936410Y-51991520D01*
X119936410Y-49407320D01*
X123185270Y-49407320D01*
X123185270Y-51991520D01*
X123254964Y-52341893D01*
X123453434Y-52638926D01*
X123750467Y-52837396D01*
X124100840Y-52907090D01*
X124451213Y-52837396D01*
X124748246Y-52638926D01*
X124946716Y-52341893D01*
X125016410Y-51991520D01*
X125016410Y-49407320D01*
X135885270Y-49407320D01*
X135885270Y-51991520D01*
X135954964Y-52341893D01*
X136153434Y-52638926D01*
X136450467Y-52837396D01*
X136800840Y-52907090D01*
X137151213Y-52837396D01*
X137448246Y-52638926D01*
X137646716Y-52341893D01*
X137716410Y-51991520D01*
X137716410Y-49407320D01*
X138425270Y-49407320D01*
X138425270Y-51991520D01*
X138494964Y-52341893D01*
X138693434Y-52638926D01*
X138990467Y-52837396D01*
X139340840Y-52907090D01*
X139691213Y-52837396D01*
X139988246Y-52638926D01*
X140186716Y-52341893D01*
X140256410Y-51991520D01*
X140256410Y-49407320D01*
X140965270Y-49407320D01*
X140965270Y-51991520D01*
X141034964Y-52341893D01*
X141233434Y-52638926D01*
X141530467Y-52837396D01*
X141880840Y-52907090D01*
X142231213Y-52837396D01*
X142528246Y-52638926D01*
X142726716Y-52341893D01*
X142796410Y-51991520D01*
X142796410Y-49407320D01*
X143505270Y-49407320D01*
X143505270Y-51991520D01*
X143574964Y-52341893D01*
X143773434Y-52638926D01*
X144070467Y-52837396D01*
X144420840Y-52907090D01*
X144771213Y-52837396D01*
X145068246Y-52638926D01*
X145266716Y-52341893D01*
X145336410Y-51991520D01*
X145336410Y-49407320D01*
X146045270Y-49407320D01*
X146045270Y-51991520D01*
X146114964Y-52341893D01*
X146313434Y-52638926D01*
X146610467Y-52837396D01*
X146960840Y-52907090D01*
X147311213Y-52837396D01*
X147608246Y-52638926D01*
X147806716Y-52341893D01*
X147876410Y-51991520D01*
X147876410Y-51227776D01*
X194234539Y-51227776D01*
X194639406Y-52207629D01*
X195388428Y-52957959D01*
X196367573Y-53364536D01*
X197427776Y-53365461D01*
X198407629Y-52960594D01*
X199157959Y-52211572D01*
X199564536Y-51232427D01*
X199565461Y-50172224D01*
X199490626Y-49991108D01*
X202234833Y-49991108D01*
X202381436Y-50345914D01*
X202652658Y-50617610D01*
X203007208Y-50764832D01*
X203391108Y-50765167D01*
X203745914Y-50618564D01*
X204017610Y-50347342D01*
X204164832Y-49992792D01*
X204165167Y-49608892D01*
X204018564Y-49254086D01*
X203747342Y-48982390D01*
X203392792Y-48835168D01*
X203008892Y-48834833D01*
X202654086Y-48981436D01*
X202382390Y-49252658D01*
X202235168Y-49607208D01*
X202234833Y-49991108D01*
X199490626Y-49991108D01*
X199160594Y-49192371D01*
X198411572Y-48442041D01*
X197432427Y-48035464D01*
X196372224Y-48034539D01*
X195392371Y-48439406D01*
X194642041Y-49188428D01*
X194235464Y-50167573D01*
X194234539Y-51227776D01*
X147876410Y-51227776D01*
X147876410Y-49407320D01*
X147806716Y-49056947D01*
X147608246Y-48759914D01*
X147311213Y-48561444D01*
X146960840Y-48491750D01*
X146610467Y-48561444D01*
X146313434Y-48759914D01*
X146114964Y-49056947D01*
X146045270Y-49407320D01*
X145336410Y-49407320D01*
X145266716Y-49056947D01*
X145068246Y-48759914D01*
X144771213Y-48561444D01*
X144420840Y-48491750D01*
X144070467Y-48561444D01*
X143773434Y-48759914D01*
X143574964Y-49056947D01*
X143505270Y-49407320D01*
X142796410Y-49407320D01*
X142726716Y-49056947D01*
X142528246Y-48759914D01*
X142231213Y-48561444D01*
X141880840Y-48491750D01*
X141530467Y-48561444D01*
X141233434Y-48759914D01*
X141034964Y-49056947D01*
X140965270Y-49407320D01*
X140256410Y-49407320D01*
X140186716Y-49056947D01*
X139988246Y-48759914D01*
X139691213Y-48561444D01*
X139340840Y-48491750D01*
X138990467Y-48561444D01*
X138693434Y-48759914D01*
X138494964Y-49056947D01*
X138425270Y-49407320D01*
X137716410Y-49407320D01*
X137646716Y-49056947D01*
X137448246Y-48759914D01*
X137151213Y-48561444D01*
X136800840Y-48491750D01*
X136450467Y-48561444D01*
X136153434Y-48759914D01*
X135954964Y-49056947D01*
X135885270Y-49407320D01*
X125016410Y-49407320D01*
X124946716Y-49056947D01*
X124748246Y-48759914D01*
X124451213Y-48561444D01*
X124100840Y-48491750D01*
X123750467Y-48561444D01*
X123453434Y-48759914D01*
X123254964Y-49056947D01*
X123185270Y-49407320D01*
X119936410Y-49407320D01*
X119866716Y-49056947D01*
X119668246Y-48759914D01*
X119371213Y-48561444D01*
X119020840Y-48491750D01*
X118670467Y-48561444D01*
X118373434Y-48759914D01*
X118174964Y-49056947D01*
X118105270Y-49407320D01*
X117396410Y-49407320D01*
X117326716Y-49056947D01*
X117128246Y-48759914D01*
X116831213Y-48561444D01*
X116480840Y-48491750D01*
X116130467Y-48561444D01*
X115833434Y-48759914D01*
X115634964Y-49056947D01*
X115565270Y-49407320D01*
X114856410Y-49407320D01*
X114786716Y-49056947D01*
X114588246Y-48759914D01*
X114291213Y-48561444D01*
X113940840Y-48491750D01*
X113590467Y-48561444D01*
X113293434Y-48759914D01*
X113094964Y-49056947D01*
X113025270Y-49407320D01*
X109315000Y-49407320D01*
X109315000Y-47892088D01*
X177934919Y-47892088D01*
X178005562Y-48063057D01*
X178136255Y-48193978D01*
X178307100Y-48264919D01*
X178492088Y-48265081D01*
X178663057Y-48194438D01*
X178765674Y-48092000D01*
X185600000Y-48092000D01*
X185711744Y-48069773D01*
X185806475Y-48006475D01*
X186047995Y-47764955D01*
X186192088Y-47765081D01*
X186363057Y-47694438D01*
X186493978Y-47563745D01*
X186524139Y-47491108D01*
X204734833Y-47491108D01*
X204881436Y-47845914D01*
X205152658Y-48117610D01*
X205507208Y-48264832D01*
X205891108Y-48265167D01*
X206245914Y-48118564D01*
X206517610Y-47847342D01*
X206664832Y-47492792D01*
X206665167Y-47108892D01*
X206518564Y-46754086D01*
X206247342Y-46482390D01*
X205892792Y-46335168D01*
X205508892Y-46334833D01*
X205154086Y-46481436D01*
X204882390Y-46752658D01*
X204735168Y-47107208D01*
X204734833Y-47491108D01*
X186524139Y-47491108D01*
X186564919Y-47392900D01*
X186565081Y-47207912D01*
X186494438Y-47036943D01*
X186363745Y-46906022D01*
X186192900Y-46835081D01*
X186007912Y-46834919D01*
X185836943Y-46905562D01*
X185706022Y-47036255D01*
X185635081Y-47207100D01*
X185634954Y-47352096D01*
X185479050Y-47508000D01*
X178765545Y-47508000D01*
X178663745Y-47406022D01*
X178492900Y-47335081D01*
X178307912Y-47334919D01*
X178136943Y-47405562D01*
X178006022Y-47536255D01*
X177935081Y-47707100D01*
X177934919Y-47892088D01*
X109315000Y-47892088D01*
X109315000Y-45615000D01*
X240585000Y-45615000D01*
X240585000Y-59985000D01*
X240585000Y-59985000D01*
G37*
X240585000Y-59985000D02*
X187200000Y-59985000D01*
X187194164Y-59986182D01*
X187189248Y-59989541D01*
X187186026Y-59994548D01*
X187185000Y-60000000D01*
X187185000Y-141100000D01*
X187186182Y-141105836D01*
X187189541Y-141110752D01*
X187194548Y-141113974D01*
X187200000Y-141115000D01*
X240385000Y-141115000D01*
X240385000Y-154985000D01*
X155315000Y-154985000D01*
X155315000Y-151500000D01*
X165231768Y-151500000D01*
X165231768Y-153900000D01*
X165243273Y-153961145D01*
X165279410Y-154017303D01*
X165334548Y-154054978D01*
X165400000Y-154068232D01*
X167800000Y-154068232D01*
X167861145Y-154056727D01*
X167917303Y-154020590D01*
X167954978Y-153965452D01*
X167968232Y-153900000D01*
X167968232Y-151500000D01*
X167956727Y-151438855D01*
X167920590Y-151382697D01*
X167865452Y-151345022D01*
X167800000Y-151331768D01*
X165400000Y-151331768D01*
X165338855Y-151343273D01*
X165282697Y-151379410D01*
X165245022Y-151434548D01*
X165231768Y-151500000D01*
X155315000Y-151500000D01*
X155315000Y-149000000D01*
X157831768Y-149000000D01*
X157831768Y-151000000D01*
X157843273Y-151061145D01*
X157879410Y-151117303D01*
X157934548Y-151154978D01*
X158000000Y-151168232D01*
X160600000Y-151168232D01*
X160661145Y-151156727D01*
X160717303Y-151120590D01*
X160754978Y-151065452D01*
X160768232Y-151000000D01*
X160768232Y-149572144D01*
X173731768Y-149572144D01*
X173731768Y-151572144D01*
X173743273Y-151633289D01*
X173779410Y-151689447D01*
X173834548Y-151727122D01*
X173900000Y-151740376D01*
X175900000Y-151740376D01*
X175961145Y-151728871D01*
X176017303Y-151692734D01*
X176018414Y-151691108D01*
X221234833Y-151691108D01*
X221381436Y-152045914D01*
X221652658Y-152317610D01*
X222007208Y-152464832D01*
X222391108Y-152465167D01*
X222745914Y-152318564D01*
X223017610Y-152047342D01*
X223164832Y-151692792D01*
X223165167Y-151308892D01*
X223018564Y-150954086D01*
X222747342Y-150682390D01*
X222392792Y-150535168D01*
X222008892Y-150534833D01*
X221654086Y-150681436D01*
X221382390Y-150952658D01*
X221235168Y-151307208D01*
X221234833Y-151691108D01*
X176018414Y-151691108D01*
X176054978Y-151637596D01*
X176068232Y-151572144D01*
X176068232Y-151068232D01*
X177900000Y-151068232D01*
X177961145Y-151056727D01*
X178017303Y-151020590D01*
X178054978Y-150965452D01*
X178068232Y-150900000D01*
X178068232Y-150229736D01*
X183434712Y-150229736D01*
X183687659Y-150841914D01*
X184155622Y-151310695D01*
X184767358Y-151564710D01*
X185429736Y-151565288D01*
X186041914Y-151312341D01*
X186510695Y-150844378D01*
X186764710Y-150232642D01*
X186764738Y-150200030D01*
X194834737Y-150200030D01*
X195064896Y-150757058D01*
X195490701Y-151183606D01*
X196047326Y-151414737D01*
X196650030Y-151415263D01*
X197207058Y-151185104D01*
X197633606Y-150759299D01*
X197853499Y-150229736D01*
X205934712Y-150229736D01*
X206187659Y-150841914D01*
X206655622Y-151310695D01*
X207267358Y-151564710D01*
X207929736Y-151565288D01*
X208541914Y-151312341D01*
X209010695Y-150844378D01*
X209264710Y-150232642D01*
X209265288Y-149570264D01*
X209012341Y-148958086D01*
X208544378Y-148489305D01*
X207932642Y-148235290D01*
X207270264Y-148234712D01*
X206658086Y-148487659D01*
X206189305Y-148955622D01*
X205935290Y-149567358D01*
X205934712Y-150229736D01*
X197853499Y-150229736D01*
X197864737Y-150202674D01*
X197865263Y-149599970D01*
X197635104Y-149042942D01*
X197209299Y-148616394D01*
X196652674Y-148385263D01*
X196049970Y-148384737D01*
X195492942Y-148614896D01*
X195066394Y-149040701D01*
X194835263Y-149597326D01*
X194834737Y-150200030D01*
X186764738Y-150200030D01*
X186765288Y-149570264D01*
X186512341Y-148958086D01*
X186044378Y-148489305D01*
X185432642Y-148235290D01*
X184770264Y-148234712D01*
X184158086Y-148487659D01*
X183689305Y-148955622D01*
X183435290Y-149567358D01*
X183434712Y-150229736D01*
X178068232Y-150229736D01*
X178068232Y-148900000D01*
X178056727Y-148838855D01*
X178020590Y-148782697D01*
X177965452Y-148745022D01*
X177900000Y-148731768D01*
X175900000Y-148731768D01*
X175838855Y-148743273D01*
X175782697Y-148779410D01*
X175745022Y-148834548D01*
X175731768Y-148900000D01*
X175731768Y-149403912D01*
X173900000Y-149403912D01*
X173838855Y-149415417D01*
X173782697Y-149451554D01*
X173745022Y-149506692D01*
X173731768Y-149572144D01*
X160768232Y-149572144D01*
X160768232Y-149000000D01*
X160756727Y-148938855D01*
X160720590Y-148882697D01*
X160665452Y-148845022D01*
X160600000Y-148831768D01*
X158000000Y-148831768D01*
X157938855Y-148843273D01*
X157882697Y-148879410D01*
X157845022Y-148934548D01*
X157831768Y-149000000D01*
X155315000Y-149000000D01*
X155315000Y-147460000D01*
X157806299Y-147460000D01*
X157894979Y-147905826D01*
X158147520Y-148283779D01*
X158525473Y-148536320D01*
X158971299Y-148625000D01*
X159628701Y-148625000D01*
X160074527Y-148536320D01*
X160452480Y-148283779D01*
X160705021Y-147905826D01*
X160767194Y-147593258D01*
X165235000Y-147593258D01*
X165235000Y-147646742D01*
X165338904Y-148169105D01*
X165634799Y-148611943D01*
X166077637Y-148907838D01*
X166600000Y-149011742D01*
X167122363Y-148907838D01*
X167565201Y-148611943D01*
X167861096Y-148169105D01*
X167965000Y-147646742D01*
X167965000Y-147593258D01*
X167861096Y-147070895D01*
X167565201Y-146628057D01*
X167122363Y-146332162D01*
X166600000Y-146228258D01*
X166077637Y-146332162D01*
X165634799Y-146628057D01*
X165338904Y-147070895D01*
X165235000Y-147593258D01*
X160767194Y-147593258D01*
X160793701Y-147460000D01*
X160705021Y-147014174D01*
X160452480Y-146636221D01*
X160074527Y-146383680D01*
X159628701Y-146295000D01*
X158971299Y-146295000D01*
X158525473Y-146383680D01*
X158147520Y-146636221D01*
X157894979Y-147014174D01*
X157806299Y-147460000D01*
X155315000Y-147460000D01*
X155315000Y-142400000D01*
X165231768Y-142400000D01*
X165231768Y-144800000D01*
X165243273Y-144861145D01*
X165279410Y-144917303D01*
X165334548Y-144954978D01*
X165400000Y-144968232D01*
X167800000Y-144968232D01*
X167861145Y-144956727D01*
X167917303Y-144920590D01*
X167931371Y-144900000D01*
X221131768Y-144900000D01*
X221131768Y-147500000D01*
X221143273Y-147561145D01*
X221179410Y-147617303D01*
X221234548Y-147654978D01*
X221300000Y-147668232D01*
X223300000Y-147668232D01*
X223361145Y-147656727D01*
X223417303Y-147620590D01*
X223454978Y-147565452D01*
X223468232Y-147500000D01*
X223468232Y-145871299D01*
X223675000Y-145871299D01*
X223675000Y-146528701D01*
X223763680Y-146974527D01*
X224016221Y-147352480D01*
X224394174Y-147605021D01*
X224840000Y-147693701D01*
X225285826Y-147605021D01*
X225663779Y-147352480D01*
X225916320Y-146974527D01*
X226005000Y-146528701D01*
X226005000Y-145871299D01*
X225982556Y-145758462D01*
X232884599Y-145758462D01*
X233236294Y-146609629D01*
X233886945Y-147261418D01*
X234737498Y-147614598D01*
X235658462Y-147615401D01*
X236509629Y-147263706D01*
X237161418Y-146613055D01*
X237514598Y-145762502D01*
X237515401Y-144841538D01*
X237163706Y-143990371D01*
X236513055Y-143338582D01*
X235662502Y-142985402D01*
X234741538Y-142984599D01*
X233890371Y-143336294D01*
X233238582Y-143986945D01*
X232885402Y-144837498D01*
X232884599Y-145758462D01*
X225982556Y-145758462D01*
X225916320Y-145425473D01*
X225663779Y-145047520D01*
X225285826Y-144794979D01*
X224840000Y-144706299D01*
X224394174Y-144794979D01*
X224016221Y-145047520D01*
X223763680Y-145425473D01*
X223675000Y-145871299D01*
X223468232Y-145871299D01*
X223468232Y-144900000D01*
X223456727Y-144838855D01*
X223420590Y-144782697D01*
X223365452Y-144745022D01*
X223300000Y-144731768D01*
X221300000Y-144731768D01*
X221238855Y-144743273D01*
X221182697Y-144779410D01*
X221145022Y-144834548D01*
X221131768Y-144900000D01*
X167931371Y-144900000D01*
X167954978Y-144865452D01*
X167968232Y-144800000D01*
X167968232Y-142400000D01*
X167956727Y-142338855D01*
X167920590Y-142282697D01*
X167865452Y-142245022D01*
X167800000Y-142231768D01*
X165400000Y-142231768D01*
X165338855Y-142243273D01*
X165282697Y-142279410D01*
X165245022Y-142334548D01*
X165231768Y-142400000D01*
X155315000Y-142400000D01*
X155315000Y-134800000D01*
X155313818Y-134794164D01*
X155310459Y-134789248D01*
X155305452Y-134786026D01*
X155300000Y-134785000D01*
X94400000Y-134785000D01*
X94394164Y-134786182D01*
X94389248Y-134789541D01*
X94386026Y-134794548D01*
X94385000Y-134800000D01*
X94385000Y-154685000D01*
X69515000Y-154685000D01*
X69515000Y-145758462D01*
X72284599Y-145758462D01*
X72636294Y-146609629D01*
X73286945Y-147261418D01*
X74137498Y-147614598D01*
X75058462Y-147615401D01*
X75909629Y-147263706D01*
X76561418Y-146613055D01*
X76914598Y-145762502D01*
X76914783Y-145550000D01*
X89981768Y-145550000D01*
X89981768Y-147050000D01*
X89993273Y-147111145D01*
X90029410Y-147167303D01*
X90084548Y-147204978D01*
X90150000Y-147218232D01*
X91650000Y-147218232D01*
X91711145Y-147206727D01*
X91767303Y-147170590D01*
X91804978Y-147115452D01*
X91818232Y-147050000D01*
X91818232Y-145550000D01*
X91806727Y-145488855D01*
X91770590Y-145432697D01*
X91715452Y-145395022D01*
X91650000Y-145381768D01*
X90150000Y-145381768D01*
X90088855Y-145393273D01*
X90032697Y-145429410D01*
X89995022Y-145484548D01*
X89981768Y-145550000D01*
X76914783Y-145550000D01*
X76915401Y-144841538D01*
X76766515Y-144481206D01*
X89984841Y-144481206D01*
X90123848Y-144817629D01*
X90381017Y-145075247D01*
X90717197Y-145214841D01*
X91081206Y-145215159D01*
X91417629Y-145076152D01*
X91675247Y-144818983D01*
X91814841Y-144482803D01*
X91815159Y-144118794D01*
X91676152Y-143782371D01*
X91418983Y-143524753D01*
X91082803Y-143385159D01*
X90718794Y-143384841D01*
X90382371Y-143523848D01*
X90124753Y-143781017D01*
X89985159Y-144117197D01*
X89984841Y-144481206D01*
X76766515Y-144481206D01*
X76563706Y-143990371D01*
X75913055Y-143338582D01*
X75062502Y-142985402D01*
X74141538Y-142984599D01*
X73290371Y-143336294D01*
X72638582Y-143986945D01*
X72285402Y-144837498D01*
X72284599Y-145758462D01*
X69515000Y-145758462D01*
X69515000Y-135700000D01*
X69513818Y-135694164D01*
X69510459Y-135689248D01*
X69505452Y-135686026D01*
X69500000Y-135685000D01*
X60315000Y-135685000D01*
X60315000Y-132980115D01*
X100625000Y-132980115D01*
X100625000Y-133019885D01*
X100702262Y-133408309D01*
X100922287Y-133737598D01*
X101251576Y-133957623D01*
X101640000Y-134034885D01*
X102028424Y-133957623D01*
X102357713Y-133737598D01*
X102577738Y-133408309D01*
X102655000Y-133019885D01*
X102655000Y-132980115D01*
X103165000Y-132980115D01*
X103165000Y-133019885D01*
X103242262Y-133408309D01*
X103462287Y-133737598D01*
X103791576Y-133957623D01*
X104180000Y-134034885D01*
X104568424Y-133957623D01*
X104897713Y-133737598D01*
X105117738Y-133408309D01*
X105195000Y-133019885D01*
X105195000Y-132980115D01*
X105705000Y-132980115D01*
X105705000Y-133019885D01*
X105782262Y-133408309D01*
X106002287Y-133737598D01*
X106331576Y-133957623D01*
X106720000Y-134034885D01*
X107108424Y-133957623D01*
X107437713Y-133737598D01*
X107657738Y-133408309D01*
X107735000Y-133019885D01*
X107735000Y-132980115D01*
X108245000Y-132980115D01*
X108245000Y-133019885D01*
X108322262Y-133408309D01*
X108542287Y-133737598D01*
X108871576Y-133957623D01*
X109260000Y-134034885D01*
X109648424Y-133957623D01*
X109977713Y-133737598D01*
X110197738Y-133408309D01*
X110275000Y-133019885D01*
X110275000Y-132980115D01*
X110197738Y-132591691D01*
X109977713Y-132262402D01*
X109648424Y-132042377D01*
X109260000Y-131965115D01*
X108871576Y-132042377D01*
X108542287Y-132262402D01*
X108322262Y-132591691D01*
X108245000Y-132980115D01*
X107735000Y-132980115D01*
X107657738Y-132591691D01*
X107437713Y-132262402D01*
X107108424Y-132042377D01*
X106720000Y-131965115D01*
X106331576Y-132042377D01*
X106002287Y-132262402D01*
X105782262Y-132591691D01*
X105705000Y-132980115D01*
X105195000Y-132980115D01*
X105117738Y-132591691D01*
X104897713Y-132262402D01*
X104568424Y-132042377D01*
X104180000Y-131965115D01*
X103791576Y-132042377D01*
X103462287Y-132262402D01*
X103242262Y-132591691D01*
X103165000Y-132980115D01*
X102655000Y-132980115D01*
X102577738Y-132591691D01*
X102357713Y-132262402D01*
X102028424Y-132042377D01*
X101640000Y-131965115D01*
X101251576Y-132042377D01*
X100922287Y-132262402D01*
X100702262Y-132591691D01*
X100625000Y-132980115D01*
X60315000Y-132980115D01*
X60315000Y-131730000D01*
X75666493Y-131730000D01*
X75713275Y-131965190D01*
X75846499Y-132164574D01*
X76045883Y-132297798D01*
X76281073Y-132344580D01*
X76918927Y-132344580D01*
X77154117Y-132297798D01*
X77353501Y-132164574D01*
X77486725Y-131965190D01*
X77533507Y-131730000D01*
X77486725Y-131494810D01*
X77353501Y-131295426D01*
X77154117Y-131162202D01*
X76918927Y-131115420D01*
X76281073Y-131115420D01*
X76045883Y-131162202D01*
X75846499Y-131295426D01*
X75713275Y-131494810D01*
X75666493Y-131730000D01*
X60315000Y-131730000D01*
X60315000Y-130460000D01*
X75666493Y-130460000D01*
X75713275Y-130695190D01*
X75846499Y-130894574D01*
X76045883Y-131027798D01*
X76281073Y-131074580D01*
X76918927Y-131074580D01*
X77154117Y-131027798D01*
X77353501Y-130894574D01*
X77486725Y-130695190D01*
X77533507Y-130460000D01*
X77520232Y-130393258D01*
X165695000Y-130393258D01*
X165695000Y-131246742D01*
X165768456Y-131616032D01*
X165977642Y-131929100D01*
X166290710Y-132138286D01*
X166660000Y-132211742D01*
X167029290Y-132138286D01*
X167342358Y-131929100D01*
X167551544Y-131616032D01*
X167625000Y-131246742D01*
X167625000Y-130393258D01*
X168235000Y-130393258D01*
X168235000Y-131246742D01*
X168308456Y-131616032D01*
X168517642Y-131929100D01*
X168830710Y-132138286D01*
X169200000Y-132211742D01*
X169569290Y-132138286D01*
X169882358Y-131929100D01*
X170091544Y-131616032D01*
X170165000Y-131246742D01*
X170165000Y-130393258D01*
X170091544Y-130023968D01*
X169882358Y-129710900D01*
X169569290Y-129501714D01*
X169200000Y-129428258D01*
X168830710Y-129501714D01*
X168517642Y-129710900D01*
X168308456Y-130023968D01*
X168235000Y-130393258D01*
X167625000Y-130393258D01*
X167551544Y-130023968D01*
X167342358Y-129710900D01*
X167029290Y-129501714D01*
X166660000Y-129428258D01*
X166290710Y-129501714D01*
X165977642Y-129710900D01*
X165768456Y-130023968D01*
X165695000Y-130393258D01*
X77520232Y-130393258D01*
X77486725Y-130224810D01*
X77353501Y-130025426D01*
X77154117Y-129892202D01*
X76918927Y-129845420D01*
X76281073Y-129845420D01*
X76045883Y-129892202D01*
X75846499Y-130025426D01*
X75713275Y-130224810D01*
X75666493Y-130460000D01*
X60315000Y-130460000D01*
X60315000Y-127238775D01*
X93037600Y-127238775D01*
X93037600Y-128001225D01*
X93110097Y-128365693D01*
X93316552Y-128674673D01*
X93625532Y-128881128D01*
X93990000Y-128953625D01*
X94354468Y-128881128D01*
X94663448Y-128674673D01*
X94869903Y-128365693D01*
X94942400Y-128001225D01*
X94942400Y-127238775D01*
X95577600Y-127238775D01*
X95577600Y-128001225D01*
X95650097Y-128365693D01*
X95856552Y-128674673D01*
X96165532Y-128881128D01*
X96530000Y-128953625D01*
X96894468Y-128881128D01*
X97203448Y-128674673D01*
X97409903Y-128365693D01*
X97482400Y-128001225D01*
X97482400Y-127238775D01*
X98117600Y-127238775D01*
X98117600Y-128001225D01*
X98190097Y-128365693D01*
X98396552Y-128674673D01*
X98705532Y-128881128D01*
X99070000Y-128953625D01*
X99434468Y-128881128D01*
X99743448Y-128674673D01*
X99949903Y-128365693D01*
X100022400Y-128001225D01*
X100022400Y-127238775D01*
X100657600Y-127238775D01*
X100657600Y-128001225D01*
X100730097Y-128365693D01*
X100936552Y-128674673D01*
X101245532Y-128881128D01*
X101610000Y-128953625D01*
X101974468Y-128881128D01*
X102283448Y-128674673D01*
X102489903Y-128365693D01*
X102562400Y-128001225D01*
X102562400Y-127238775D01*
X103197600Y-127238775D01*
X103197600Y-128001225D01*
X103270097Y-128365693D01*
X103476552Y-128674673D01*
X103785532Y-128881128D01*
X104150000Y-128953625D01*
X104514468Y-128881128D01*
X104823448Y-128674673D01*
X105029903Y-128365693D01*
X105102400Y-128001225D01*
X105102400Y-127238775D01*
X105737600Y-127238775D01*
X105737600Y-128001225D01*
X105810097Y-128365693D01*
X106016552Y-128674673D01*
X106325532Y-128881128D01*
X106690000Y-128953625D01*
X107054468Y-128881128D01*
X107363448Y-128674673D01*
X107569903Y-128365693D01*
X107642400Y-128001225D01*
X107642400Y-127238775D01*
X108277600Y-127238775D01*
X108277600Y-128001225D01*
X108350097Y-128365693D01*
X108556552Y-128674673D01*
X108865532Y-128881128D01*
X109230000Y-128953625D01*
X109594468Y-128881128D01*
X109903448Y-128674673D01*
X110109903Y-128365693D01*
X110182400Y-128001225D01*
X110182400Y-127238775D01*
X110109903Y-126874307D01*
X109903448Y-126565327D01*
X109594468Y-126358872D01*
X109230000Y-126286375D01*
X108865532Y-126358872D01*
X108556552Y-126565327D01*
X108350097Y-126874307D01*
X108277600Y-127238775D01*
X107642400Y-127238775D01*
X107569903Y-126874307D01*
X107363448Y-126565327D01*
X107054468Y-126358872D01*
X106690000Y-126286375D01*
X106325532Y-126358872D01*
X106016552Y-126565327D01*
X105810097Y-126874307D01*
X105737600Y-127238775D01*
X105102400Y-127238775D01*
X105029903Y-126874307D01*
X104823448Y-126565327D01*
X104514468Y-126358872D01*
X104150000Y-126286375D01*
X103785532Y-126358872D01*
X103476552Y-126565327D01*
X103270097Y-126874307D01*
X103197600Y-127238775D01*
X102562400Y-127238775D01*
X102489903Y-126874307D01*
X102283448Y-126565327D01*
X101974468Y-126358872D01*
X101610000Y-126286375D01*
X101245532Y-126358872D01*
X100936552Y-126565327D01*
X100730097Y-126874307D01*
X100657600Y-127238775D01*
X100022400Y-127238775D01*
X99949903Y-126874307D01*
X99743448Y-126565327D01*
X99434468Y-126358872D01*
X99070000Y-126286375D01*
X98705532Y-126358872D01*
X98396552Y-126565327D01*
X98190097Y-126874307D01*
X98117600Y-127238775D01*
X97482400Y-127238775D01*
X97409903Y-126874307D01*
X97203448Y-126565327D01*
X96894468Y-126358872D01*
X96530000Y-126286375D01*
X96165532Y-126358872D01*
X95856552Y-126565327D01*
X95650097Y-126874307D01*
X95577600Y-127238775D01*
X94942400Y-127238775D01*
X94869903Y-126874307D01*
X94663448Y-126565327D01*
X94354468Y-126358872D01*
X93990000Y-126286375D01*
X93625532Y-126358872D01*
X93316552Y-126565327D01*
X93110097Y-126874307D01*
X93037600Y-127238775D01*
X60315000Y-127238775D01*
X60315000Y-123730556D01*
X75434798Y-123730556D01*
X75611785Y-124158898D01*
X75939219Y-124486903D01*
X76367250Y-124664638D01*
X76830716Y-124665042D01*
X77259058Y-124488055D01*
X77587063Y-124160621D01*
X77764798Y-123732590D01*
X77765202Y-123269124D01*
X77588215Y-122840782D01*
X77260781Y-122512777D01*
X76832750Y-122335042D01*
X76369284Y-122334638D01*
X75940942Y-122511625D01*
X75612937Y-122839059D01*
X75435202Y-123267090D01*
X75434798Y-123730556D01*
X60315000Y-123730556D01*
X60315000Y-116130876D01*
X75434798Y-116130876D01*
X75611785Y-116559218D01*
X75939219Y-116887223D01*
X76367250Y-117064958D01*
X76830716Y-117065362D01*
X77259058Y-116888375D01*
X77587063Y-116560941D01*
X77764798Y-116132910D01*
X77765202Y-115669444D01*
X77588215Y-115241102D01*
X77260781Y-114913097D01*
X76832750Y-114735362D01*
X76369284Y-114734958D01*
X75940942Y-114911945D01*
X75612937Y-115239379D01*
X75435202Y-115667410D01*
X75434798Y-116130876D01*
X60315000Y-116130876D01*
X60315000Y-111998775D01*
X93037600Y-111998775D01*
X93037600Y-112761225D01*
X93110097Y-113125693D01*
X93316552Y-113434673D01*
X93625532Y-113641128D01*
X93990000Y-113713625D01*
X94354468Y-113641128D01*
X94663448Y-113434673D01*
X94869903Y-113125693D01*
X94942400Y-112761225D01*
X94942400Y-111998775D01*
X95577600Y-111998775D01*
X95577600Y-112761225D01*
X95650097Y-113125693D01*
X95856552Y-113434673D01*
X96165532Y-113641128D01*
X96530000Y-113713625D01*
X96894468Y-113641128D01*
X97203448Y-113434673D01*
X97409903Y-113125693D01*
X97482400Y-112761225D01*
X97482400Y-111998775D01*
X98117600Y-111998775D01*
X98117600Y-112761225D01*
X98190097Y-113125693D01*
X98396552Y-113434673D01*
X98705532Y-113641128D01*
X99070000Y-113713625D01*
X99434468Y-113641128D01*
X99743448Y-113434673D01*
X99949903Y-113125693D01*
X100022400Y-112761225D01*
X100022400Y-111998775D01*
X100657600Y-111998775D01*
X100657600Y-112761225D01*
X100730097Y-113125693D01*
X100936552Y-113434673D01*
X101245532Y-113641128D01*
X101610000Y-113713625D01*
X101974468Y-113641128D01*
X102283448Y-113434673D01*
X102489903Y-113125693D01*
X102562400Y-112761225D01*
X102562400Y-111998775D01*
X103197600Y-111998775D01*
X103197600Y-112761225D01*
X103270097Y-113125693D01*
X103476552Y-113434673D01*
X103785532Y-113641128D01*
X104150000Y-113713625D01*
X104514468Y-113641128D01*
X104823448Y-113434673D01*
X105029903Y-113125693D01*
X105102400Y-112761225D01*
X105102400Y-111998775D01*
X105737600Y-111998775D01*
X105737600Y-112761225D01*
X105810097Y-113125693D01*
X106016552Y-113434673D01*
X106325532Y-113641128D01*
X106690000Y-113713625D01*
X107054468Y-113641128D01*
X107363448Y-113434673D01*
X107569903Y-113125693D01*
X107642400Y-112761225D01*
X107642400Y-111998775D01*
X108277600Y-111998775D01*
X108277600Y-112761225D01*
X108350097Y-113125693D01*
X108556552Y-113434673D01*
X108865532Y-113641128D01*
X109230000Y-113713625D01*
X109594468Y-113641128D01*
X109903448Y-113434673D01*
X110109903Y-113125693D01*
X110182400Y-112761225D01*
X110182400Y-111998775D01*
X110109903Y-111634307D01*
X109903448Y-111325327D01*
X109594468Y-111118872D01*
X109230000Y-111046375D01*
X108865532Y-111118872D01*
X108556552Y-111325327D01*
X108350097Y-111634307D01*
X108277600Y-111998775D01*
X107642400Y-111998775D01*
X107569903Y-111634307D01*
X107363448Y-111325327D01*
X107054468Y-111118872D01*
X106690000Y-111046375D01*
X106325532Y-111118872D01*
X106016552Y-111325327D01*
X105810097Y-111634307D01*
X105737600Y-111998775D01*
X105102400Y-111998775D01*
X105029903Y-111634307D01*
X104823448Y-111325327D01*
X104514468Y-111118872D01*
X104150000Y-111046375D01*
X103785532Y-111118872D01*
X103476552Y-111325327D01*
X103270097Y-111634307D01*
X103197600Y-111998775D01*
X102562400Y-111998775D01*
X102489903Y-111634307D01*
X102283448Y-111325327D01*
X101974468Y-111118872D01*
X101610000Y-111046375D01*
X101245532Y-111118872D01*
X100936552Y-111325327D01*
X100730097Y-111634307D01*
X100657600Y-111998775D01*
X100022400Y-111998775D01*
X99949903Y-111634307D01*
X99743448Y-111325327D01*
X99434468Y-111118872D01*
X99070000Y-111046375D01*
X98705532Y-111118872D01*
X98396552Y-111325327D01*
X98190097Y-111634307D01*
X98117600Y-111998775D01*
X97482400Y-111998775D01*
X97409903Y-111634307D01*
X97203448Y-111325327D01*
X96894468Y-111118872D01*
X96530000Y-111046375D01*
X96165532Y-111118872D01*
X95856552Y-111325327D01*
X95650097Y-111634307D01*
X95577600Y-111998775D01*
X94942400Y-111998775D01*
X94869903Y-111634307D01*
X94663448Y-111325327D01*
X94354468Y-111118872D01*
X93990000Y-111046375D01*
X93625532Y-111118872D01*
X93316552Y-111325327D01*
X93110097Y-111634307D01*
X93037600Y-111998775D01*
X60315000Y-111998775D01*
X60315000Y-106227776D01*
X101234539Y-106227776D01*
X101639406Y-107207629D01*
X102388428Y-107957959D01*
X103367573Y-108364536D01*
X104427776Y-108365461D01*
X105407629Y-107960594D01*
X106157959Y-107211572D01*
X106564536Y-106232427D01*
X106565461Y-105172224D01*
X106160594Y-104192371D01*
X105411572Y-103442041D01*
X104432427Y-103035464D01*
X103372224Y-103034539D01*
X102392371Y-103439406D01*
X101642041Y-104188428D01*
X101235464Y-105167573D01*
X101234539Y-106227776D01*
X60315000Y-106227776D01*
X60315000Y-100758462D01*
X64584599Y-100758462D01*
X64936294Y-101609629D01*
X65586945Y-102261418D01*
X66437498Y-102614598D01*
X67358462Y-102615401D01*
X68209629Y-102263706D01*
X68861418Y-101613055D01*
X69214598Y-100762502D01*
X69214642Y-100710912D01*
X96174815Y-100710912D01*
X96336610Y-101102486D01*
X96635938Y-101402337D01*
X97027229Y-101564815D01*
X97450912Y-101565185D01*
X97842486Y-101403390D01*
X98142337Y-101104062D01*
X98304815Y-100712771D01*
X98305185Y-100289088D01*
X98143390Y-99897514D01*
X97844062Y-99597663D01*
X97452771Y-99435185D01*
X97029088Y-99434815D01*
X96637514Y-99596610D01*
X96337663Y-99895938D01*
X96175185Y-100287229D01*
X96174815Y-100710912D01*
X69214642Y-100710912D01*
X69215401Y-99841538D01*
X68863706Y-98990371D01*
X68213055Y-98338582D01*
X67362502Y-97985402D01*
X66441538Y-97984599D01*
X65590371Y-98336294D01*
X64938582Y-98986945D01*
X64585402Y-99837498D01*
X64584599Y-100758462D01*
X60315000Y-100758462D01*
X60315000Y-97792088D01*
X110034919Y-97792088D01*
X110105562Y-97963057D01*
X110208000Y-98065674D01*
X110208000Y-115000000D01*
X110230227Y-115111744D01*
X110293525Y-115206475D01*
X111478000Y-116390950D01*
X111478000Y-126344457D01*
X111405532Y-126358872D01*
X111096552Y-126565327D01*
X110890097Y-126874307D01*
X110817600Y-127238775D01*
X110817600Y-128001225D01*
X110890097Y-128365693D01*
X111096552Y-128674673D01*
X111405532Y-128881128D01*
X111770000Y-128953625D01*
X112134468Y-128881128D01*
X112443448Y-128674673D01*
X112649903Y-128365693D01*
X112722400Y-128001225D01*
X112722400Y-127238775D01*
X112649903Y-126874307D01*
X112443448Y-126565327D01*
X112134468Y-126358872D01*
X112062000Y-126344457D01*
X112062000Y-116270000D01*
X112039773Y-116158256D01*
X111976475Y-116063525D01*
X110792000Y-114879050D01*
X110792000Y-111998775D01*
X110817600Y-111998775D01*
X110817600Y-112761225D01*
X110890097Y-113125693D01*
X111096552Y-113434673D01*
X111405532Y-113641128D01*
X111770000Y-113713625D01*
X112134468Y-113641128D01*
X112443448Y-113434673D01*
X112649903Y-113125693D01*
X112708000Y-112833619D01*
X112708000Y-116600000D01*
X112730227Y-116711744D01*
X112760943Y-116757713D01*
X112793525Y-116806475D01*
X114018000Y-118030950D01*
X114018000Y-126344457D01*
X113945532Y-126358872D01*
X113636552Y-126565327D01*
X113430097Y-126874307D01*
X113357600Y-127238775D01*
X113357600Y-128001225D01*
X113430097Y-128365693D01*
X113636552Y-128674673D01*
X113945532Y-128881128D01*
X114310000Y-128953625D01*
X114674468Y-128881128D01*
X114983448Y-128674673D01*
X115189903Y-128365693D01*
X115262400Y-128001225D01*
X115262400Y-127238775D01*
X115897600Y-127238775D01*
X115897600Y-128001225D01*
X115970097Y-128365693D01*
X116176552Y-128674673D01*
X116485532Y-128881128D01*
X116850000Y-128953625D01*
X117214468Y-128881128D01*
X117523448Y-128674673D01*
X117729903Y-128365693D01*
X117802400Y-128001225D01*
X117802400Y-127238775D01*
X118437600Y-127238775D01*
X118437600Y-128001225D01*
X118510097Y-128365693D01*
X118716552Y-128674673D01*
X119025532Y-128881128D01*
X119390000Y-128953625D01*
X119754468Y-128881128D01*
X120063448Y-128674673D01*
X120269903Y-128365693D01*
X120342400Y-128001225D01*
X120342400Y-127238775D01*
X120977600Y-127238775D01*
X120977600Y-128001225D01*
X121050097Y-128365693D01*
X121256552Y-128674673D01*
X121565532Y-128881128D01*
X121930000Y-128953625D01*
X122294468Y-128881128D01*
X122603448Y-128674673D01*
X122809903Y-128365693D01*
X122882400Y-128001225D01*
X122882400Y-127238775D01*
X122809903Y-126874307D01*
X122603448Y-126565327D01*
X122294468Y-126358872D01*
X121930000Y-126286375D01*
X121565532Y-126358872D01*
X121256552Y-126565327D01*
X121050097Y-126874307D01*
X120977600Y-127238775D01*
X120342400Y-127238775D01*
X120269903Y-126874307D01*
X120063448Y-126565327D01*
X119754468Y-126358872D01*
X119390000Y-126286375D01*
X119025532Y-126358872D01*
X118716552Y-126565327D01*
X118510097Y-126874307D01*
X118437600Y-127238775D01*
X117802400Y-127238775D01*
X117729903Y-126874307D01*
X117523448Y-126565327D01*
X117214468Y-126358872D01*
X116850000Y-126286375D01*
X116485532Y-126358872D01*
X116176552Y-126565327D01*
X115970097Y-126874307D01*
X115897600Y-127238775D01*
X115262400Y-127238775D01*
X115189903Y-126874307D01*
X114983448Y-126565327D01*
X114674468Y-126358872D01*
X114602000Y-126344457D01*
X114602000Y-117910000D01*
X114579773Y-117798256D01*
X114516475Y-117703525D01*
X113292000Y-116479050D01*
X113292000Y-111998775D01*
X113357600Y-111998775D01*
X113357600Y-112761225D01*
X113430097Y-113125693D01*
X113636552Y-113434673D01*
X113945532Y-113641128D01*
X114310000Y-113713625D01*
X114674468Y-113641128D01*
X114983448Y-113434673D01*
X115189903Y-113125693D01*
X115262400Y-112761225D01*
X115262400Y-111998775D01*
X115897600Y-111998775D01*
X115897600Y-112761225D01*
X115970097Y-113125693D01*
X116176552Y-113434673D01*
X116485532Y-113641128D01*
X116850000Y-113713625D01*
X117214468Y-113641128D01*
X117523448Y-113434673D01*
X117729903Y-113125693D01*
X117802400Y-112761225D01*
X117802400Y-111998775D01*
X118437600Y-111998775D01*
X118437600Y-112761225D01*
X118510097Y-113125693D01*
X118716552Y-113434673D01*
X119025532Y-113641128D01*
X119390000Y-113713625D01*
X119754468Y-113641128D01*
X120063448Y-113434673D01*
X120269903Y-113125693D01*
X120342400Y-112761225D01*
X120342400Y-111998775D01*
X123517600Y-111998775D01*
X123517600Y-112761225D01*
X123590097Y-113125693D01*
X123796552Y-113434673D01*
X124105532Y-113641128D01*
X124178000Y-113655543D01*
X124178000Y-126344457D01*
X124105532Y-126358872D01*
X123796552Y-126565327D01*
X123590097Y-126874307D01*
X123517600Y-127238775D01*
X123517600Y-128001225D01*
X123590097Y-128365693D01*
X123796552Y-128674673D01*
X124105532Y-128881128D01*
X124470000Y-128953625D01*
X124834468Y-128881128D01*
X125143448Y-128674673D01*
X125349903Y-128365693D01*
X125422400Y-128001225D01*
X125422400Y-127238775D01*
X128597600Y-127238775D01*
X128597600Y-128001225D01*
X128670097Y-128365693D01*
X128876552Y-128674673D01*
X129185532Y-128881128D01*
X129550000Y-128953625D01*
X129914468Y-128881128D01*
X130223448Y-128674673D01*
X130429903Y-128365693D01*
X130502400Y-128001225D01*
X130502400Y-127238775D01*
X130429903Y-126874307D01*
X130223448Y-126565327D01*
X129914468Y-126358872D01*
X129550000Y-126286375D01*
X129185532Y-126358872D01*
X128876552Y-126565327D01*
X128670097Y-126874307D01*
X128597600Y-127238775D01*
X125422400Y-127238775D01*
X125349903Y-126874307D01*
X125143448Y-126565327D01*
X124834468Y-126358872D01*
X124762000Y-126344457D01*
X124762000Y-123660000D01*
X137365115Y-123660000D01*
X137442377Y-124048424D01*
X137662402Y-124377713D01*
X137991691Y-124597738D01*
X138380115Y-124675000D01*
X138419885Y-124675000D01*
X138808309Y-124597738D01*
X139137598Y-124377713D01*
X139357623Y-124048424D01*
X139434885Y-123660000D01*
X139357623Y-123271576D01*
X139137598Y-122942287D01*
X138808309Y-122722262D01*
X138419885Y-122645000D01*
X138380115Y-122645000D01*
X137991691Y-122722262D01*
X137662402Y-122942287D01*
X137442377Y-123271576D01*
X137365115Y-123660000D01*
X124762000Y-123660000D01*
X124762000Y-121120000D01*
X137365115Y-121120000D01*
X137442377Y-121508424D01*
X137662402Y-121837713D01*
X137991691Y-122057738D01*
X138380115Y-122135000D01*
X138419885Y-122135000D01*
X138808309Y-122057738D01*
X138894719Y-122000000D01*
X168231768Y-122000000D01*
X168231768Y-124400000D01*
X168243273Y-124461145D01*
X168279410Y-124517303D01*
X168334548Y-124554978D01*
X168400000Y-124568232D01*
X170000000Y-124568232D01*
X170061145Y-124556727D01*
X170117303Y-124520590D01*
X170154978Y-124465452D01*
X170168232Y-124400000D01*
X170168232Y-122000000D01*
X170156727Y-121938855D01*
X170120590Y-121882697D01*
X170065452Y-121845022D01*
X170000000Y-121831768D01*
X168400000Y-121831768D01*
X168338855Y-121843273D01*
X168282697Y-121879410D01*
X168245022Y-121934548D01*
X168231768Y-122000000D01*
X138894719Y-122000000D01*
X139137598Y-121837713D01*
X139357623Y-121508424D01*
X139434885Y-121120000D01*
X139357623Y-120731576D01*
X139137598Y-120402287D01*
X138808309Y-120182262D01*
X138419885Y-120105000D01*
X138380115Y-120105000D01*
X137991691Y-120182262D01*
X137662402Y-120402287D01*
X137442377Y-120731576D01*
X137365115Y-121120000D01*
X124762000Y-121120000D01*
X124762000Y-118580000D01*
X137365115Y-118580000D01*
X137442377Y-118968424D01*
X137662402Y-119297713D01*
X137991691Y-119517738D01*
X138380115Y-119595000D01*
X138419885Y-119595000D01*
X138808309Y-119517738D01*
X139137598Y-119297713D01*
X139357623Y-118968424D01*
X139434885Y-118580000D01*
X139357623Y-118191576D01*
X139137598Y-117862287D01*
X138808309Y-117642262D01*
X138419885Y-117565000D01*
X138380115Y-117565000D01*
X137991691Y-117642262D01*
X137662402Y-117862287D01*
X137442377Y-118191576D01*
X137365115Y-118580000D01*
X124762000Y-118580000D01*
X124762000Y-116040000D01*
X137365115Y-116040000D01*
X137442377Y-116428424D01*
X137662402Y-116757713D01*
X137991691Y-116977738D01*
X138380115Y-117055000D01*
X138419885Y-117055000D01*
X138808309Y-116977738D01*
X139137598Y-116757713D01*
X139357623Y-116428424D01*
X139434885Y-116040000D01*
X139357623Y-115651576D01*
X139137598Y-115322287D01*
X138808309Y-115102262D01*
X138419885Y-115025000D01*
X138380115Y-115025000D01*
X137991691Y-115102262D01*
X137662402Y-115322287D01*
X137442377Y-115651576D01*
X137365115Y-116040000D01*
X124762000Y-116040000D01*
X124762000Y-113655543D01*
X124834468Y-113641128D01*
X125143448Y-113434673D01*
X125349903Y-113125693D01*
X125422400Y-112761225D01*
X125422400Y-111998775D01*
X126057600Y-111998775D01*
X126057600Y-112761225D01*
X126130097Y-113125693D01*
X126336552Y-113434673D01*
X126645532Y-113641128D01*
X127010000Y-113713625D01*
X127374468Y-113641128D01*
X127683448Y-113434673D01*
X127889903Y-113125693D01*
X127962400Y-112761225D01*
X127962400Y-111998775D01*
X127889903Y-111634307D01*
X127683448Y-111325327D01*
X127551259Y-111237000D01*
X128594368Y-111237000D01*
X128594368Y-113523000D01*
X128605873Y-113584145D01*
X128642010Y-113640303D01*
X128697148Y-113677978D01*
X128762600Y-113691232D01*
X130337400Y-113691232D01*
X130398545Y-113679727D01*
X130454703Y-113643590D01*
X130492378Y-113588452D01*
X130505632Y-113523000D01*
X130505632Y-112650000D01*
X137381768Y-112650000D01*
X137381768Y-114350000D01*
X137393273Y-114411145D01*
X137429410Y-114467303D01*
X137484548Y-114504978D01*
X137550000Y-114518232D01*
X139250000Y-114518232D01*
X139311145Y-114506727D01*
X139367303Y-114470590D01*
X139404978Y-114415452D01*
X139418232Y-114350000D01*
X139418232Y-112650000D01*
X139406727Y-112588855D01*
X139370590Y-112532697D01*
X139315452Y-112495022D01*
X139250000Y-112481768D01*
X137550000Y-112481768D01*
X137488855Y-112493273D01*
X137432697Y-112529410D01*
X137395022Y-112584548D01*
X137381768Y-112650000D01*
X130505632Y-112650000D01*
X130505632Y-112100000D01*
X162531768Y-112100000D01*
X162531768Y-114100000D01*
X162543273Y-114161145D01*
X162579410Y-114217303D01*
X162634548Y-114254978D01*
X162700000Y-114268232D01*
X164700000Y-114268232D01*
X164761145Y-114256727D01*
X164817303Y-114220590D01*
X164854978Y-114165452D01*
X164868232Y-114100000D01*
X164868232Y-113596088D01*
X166700000Y-113596088D01*
X166761145Y-113584583D01*
X166817303Y-113548446D01*
X166854978Y-113493308D01*
X166868232Y-113427856D01*
X166868232Y-111427856D01*
X166856727Y-111366711D01*
X166820590Y-111310553D01*
X166765452Y-111272878D01*
X166700000Y-111259624D01*
X164700000Y-111259624D01*
X164638855Y-111271129D01*
X164582697Y-111307266D01*
X164545022Y-111362404D01*
X164531768Y-111427856D01*
X164531768Y-111931768D01*
X162700000Y-111931768D01*
X162638855Y-111943273D01*
X162582697Y-111979410D01*
X162545022Y-112034548D01*
X162531768Y-112100000D01*
X130505632Y-112100000D01*
X130505632Y-111237000D01*
X130494127Y-111175855D01*
X130457990Y-111119697D01*
X130402852Y-111082022D01*
X130337400Y-111068768D01*
X128762600Y-111068768D01*
X128701455Y-111080273D01*
X128645297Y-111116410D01*
X128607622Y-111171548D01*
X128594368Y-111237000D01*
X127551259Y-111237000D01*
X127374468Y-111118872D01*
X127010000Y-111046375D01*
X126645532Y-111118872D01*
X126336552Y-111325327D01*
X126130097Y-111634307D01*
X126057600Y-111998775D01*
X125422400Y-111998775D01*
X125349903Y-111634307D01*
X125143448Y-111325327D01*
X124834468Y-111118872D01*
X124470000Y-111046375D01*
X124105532Y-111118872D01*
X123796552Y-111325327D01*
X123590097Y-111634307D01*
X123517600Y-111998775D01*
X120342400Y-111998775D01*
X120269903Y-111634307D01*
X120063448Y-111325327D01*
X119754468Y-111118872D01*
X119390000Y-111046375D01*
X119025532Y-111118872D01*
X118716552Y-111325327D01*
X118510097Y-111634307D01*
X118437600Y-111998775D01*
X117802400Y-111998775D01*
X117729903Y-111634307D01*
X117523448Y-111325327D01*
X117214468Y-111118872D01*
X116850000Y-111046375D01*
X116485532Y-111118872D01*
X116176552Y-111325327D01*
X115970097Y-111634307D01*
X115897600Y-111998775D01*
X115262400Y-111998775D01*
X115189903Y-111634307D01*
X114983448Y-111325327D01*
X114674468Y-111118872D01*
X114310000Y-111046375D01*
X113945532Y-111118872D01*
X113636552Y-111325327D01*
X113430097Y-111634307D01*
X113357600Y-111998775D01*
X113292000Y-111998775D01*
X113292000Y-108670324D01*
X150534764Y-108670324D01*
X150742135Y-109172200D01*
X151125780Y-109556516D01*
X151627294Y-109764763D01*
X152170324Y-109765236D01*
X152672200Y-109557865D01*
X153056516Y-109174220D01*
X153264763Y-108672706D01*
X153265236Y-108129676D01*
X153057865Y-107627800D01*
X152674220Y-107243484D01*
X152172706Y-107035237D01*
X151629676Y-107034764D01*
X151127800Y-107242135D01*
X150743484Y-107625780D01*
X150535237Y-108127294D01*
X150534764Y-108670324D01*
X113292000Y-108670324D01*
X113292000Y-108200000D01*
X113269773Y-108088256D01*
X113206475Y-107993525D01*
X112192000Y-106979050D01*
X112192000Y-98192088D01*
X132334919Y-98192088D01*
X132405562Y-98363057D01*
X132508000Y-98465674D01*
X132508000Y-103934455D01*
X132406022Y-104036255D01*
X132335081Y-104207100D01*
X132334919Y-104392088D01*
X132405562Y-104563057D01*
X132536255Y-104693978D01*
X132707100Y-104764919D01*
X132892088Y-104765081D01*
X133063057Y-104694438D01*
X133193978Y-104563745D01*
X133264919Y-104392900D01*
X133265081Y-104207912D01*
X133194438Y-104036943D01*
X133092000Y-103934326D01*
X133092000Y-98465545D01*
X133193978Y-98363745D01*
X133264919Y-98192900D01*
X133264919Y-98192088D01*
X134234919Y-98192088D01*
X134305562Y-98363057D01*
X134408000Y-98465674D01*
X134408000Y-102834455D01*
X134306022Y-102936255D01*
X134235081Y-103107100D01*
X134234919Y-103292088D01*
X134305562Y-103463057D01*
X134436255Y-103593978D01*
X134607100Y-103664919D01*
X134792088Y-103665081D01*
X134963057Y-103594438D01*
X135093978Y-103463745D01*
X135164919Y-103292900D01*
X135165081Y-103107912D01*
X135094438Y-102936943D01*
X134992000Y-102834326D01*
X134992000Y-102192088D01*
X135934919Y-102192088D01*
X136005562Y-102363057D01*
X136136255Y-102493978D01*
X136307100Y-102564919D01*
X136492088Y-102565081D01*
X136663057Y-102494438D01*
X136793978Y-102363745D01*
X136864919Y-102192900D01*
X136865046Y-102047904D01*
X137306475Y-101606476D01*
X137369773Y-101511744D01*
X137392000Y-101400000D01*
X137392000Y-100670324D01*
X150534764Y-100670324D01*
X150742135Y-101172200D01*
X151125780Y-101556516D01*
X151627294Y-101764763D01*
X152170324Y-101765236D01*
X152672200Y-101557865D01*
X153056516Y-101174220D01*
X153264763Y-100672706D01*
X153265236Y-100129676D01*
X153057865Y-99627800D01*
X152674220Y-99243484D01*
X152172706Y-99035237D01*
X151629676Y-99034764D01*
X151127800Y-99242135D01*
X150743484Y-99625780D01*
X150535237Y-100127294D01*
X150534764Y-100670324D01*
X137392000Y-100670324D01*
X137392000Y-100000000D01*
X138128600Y-100000000D01*
X138172095Y-100218665D01*
X138295959Y-100404041D01*
X138481335Y-100527905D01*
X138700000Y-100571400D01*
X147500000Y-100571400D01*
X147718666Y-100527905D01*
X147904041Y-100404041D01*
X152704041Y-95604041D01*
X152827905Y-95418666D01*
X152871400Y-95200000D01*
X152871400Y-93740376D01*
X153300000Y-93740376D01*
X153361145Y-93728871D01*
X153417303Y-93692734D01*
X153454978Y-93637596D01*
X153468232Y-93572144D01*
X153468232Y-93068232D01*
X155300000Y-93068232D01*
X155361145Y-93056727D01*
X155417303Y-93020590D01*
X155436778Y-92992088D01*
X160334919Y-92992088D01*
X160405562Y-93163057D01*
X160536255Y-93293978D01*
X160647697Y-93340253D01*
X161481000Y-94173556D01*
X161481000Y-94500000D01*
X161512894Y-94660344D01*
X161603722Y-94796278D01*
X161739656Y-94887106D01*
X161900000Y-94919000D01*
X162060344Y-94887106D01*
X162196278Y-94796278D01*
X162287106Y-94660344D01*
X162319000Y-94500000D01*
X162319000Y-93003485D01*
X162364919Y-92892900D01*
X162365081Y-92707912D01*
X162294438Y-92536943D01*
X162163745Y-92406022D01*
X161992900Y-92335081D01*
X161807912Y-92334919D01*
X161636943Y-92405562D01*
X161506022Y-92536255D01*
X161435081Y-92707100D01*
X161434919Y-92892088D01*
X161470319Y-92977763D01*
X161240164Y-92747608D01*
X161194438Y-92636943D01*
X161063745Y-92506022D01*
X160892900Y-92435081D01*
X160707912Y-92434919D01*
X160536943Y-92505562D01*
X160406022Y-92636255D01*
X160335081Y-92807100D01*
X160334919Y-92992088D01*
X155436778Y-92992088D01*
X155454978Y-92965452D01*
X155468232Y-92900000D01*
X155468232Y-90900000D01*
X155456727Y-90838855D01*
X155420590Y-90782697D01*
X155365452Y-90745022D01*
X155300000Y-90731768D01*
X153300000Y-90731768D01*
X153238855Y-90743273D01*
X153182697Y-90779410D01*
X153145022Y-90834548D01*
X153131768Y-90900000D01*
X153131768Y-91403912D01*
X151300000Y-91403912D01*
X151238855Y-91415417D01*
X151182697Y-91451554D01*
X151145022Y-91506692D01*
X151131768Y-91572144D01*
X151131768Y-93572144D01*
X151143273Y-93633289D01*
X151179410Y-93689447D01*
X151234548Y-93727122D01*
X151300000Y-93740376D01*
X151728600Y-93740376D01*
X151728600Y-94963318D01*
X147263318Y-99428600D01*
X138700000Y-99428600D01*
X138481335Y-99472095D01*
X138295959Y-99595959D01*
X138172095Y-99781335D01*
X138128600Y-100000000D01*
X137392000Y-100000000D01*
X137392000Y-98465545D01*
X137493978Y-98363745D01*
X137564919Y-98192900D01*
X137565081Y-98007912D01*
X137494438Y-97836943D01*
X137363745Y-97706022D01*
X137192900Y-97635081D01*
X137007912Y-97634919D01*
X136836943Y-97705562D01*
X136706022Y-97836255D01*
X136635081Y-98007100D01*
X136634919Y-98192088D01*
X136705562Y-98363057D01*
X136808000Y-98465674D01*
X136808000Y-101279049D01*
X136452004Y-101635045D01*
X136307912Y-101634919D01*
X136136943Y-101705562D01*
X136006022Y-101836255D01*
X135935081Y-102007100D01*
X135934919Y-102192088D01*
X134992000Y-102192088D01*
X134992000Y-98465545D01*
X135093978Y-98363745D01*
X135164919Y-98192900D01*
X135165081Y-98007912D01*
X135094438Y-97836943D01*
X134963745Y-97706022D01*
X134792900Y-97635081D01*
X134607912Y-97634919D01*
X134436943Y-97705562D01*
X134306022Y-97836255D01*
X134235081Y-98007100D01*
X134234919Y-98192088D01*
X133264919Y-98192088D01*
X133265081Y-98007912D01*
X133194438Y-97836943D01*
X133063745Y-97706022D01*
X132892900Y-97635081D01*
X132707912Y-97634919D01*
X132536943Y-97705562D01*
X132406022Y-97836255D01*
X132335081Y-98007100D01*
X132334919Y-98192088D01*
X112192000Y-98192088D01*
X112192000Y-98165545D01*
X112293978Y-98063745D01*
X112364919Y-97892900D01*
X112365081Y-97707912D01*
X112294438Y-97536943D01*
X112163745Y-97406022D01*
X111992900Y-97335081D01*
X111807912Y-97334919D01*
X111636943Y-97405562D01*
X111506022Y-97536255D01*
X111435081Y-97707100D01*
X111434919Y-97892088D01*
X111505562Y-98063057D01*
X111608000Y-98165674D01*
X111608000Y-107100000D01*
X111630227Y-107211744D01*
X111693525Y-107306475D01*
X112708000Y-108320950D01*
X112708000Y-111926381D01*
X112649903Y-111634307D01*
X112443448Y-111325327D01*
X112134468Y-111118872D01*
X111770000Y-111046375D01*
X111405532Y-111118872D01*
X111096552Y-111325327D01*
X110890097Y-111634307D01*
X110817600Y-111998775D01*
X110792000Y-111998775D01*
X110792000Y-98065545D01*
X110893978Y-97963745D01*
X110964919Y-97792900D01*
X110965081Y-97607912D01*
X110894438Y-97436943D01*
X110763745Y-97306022D01*
X110592900Y-97235081D01*
X110407912Y-97234919D01*
X110236943Y-97305562D01*
X110106022Y-97436255D01*
X110035081Y-97607100D01*
X110034919Y-97792088D01*
X60315000Y-97792088D01*
X60315000Y-96015000D01*
X91300000Y-96015000D01*
X91305836Y-96013818D01*
X91310607Y-96010607D01*
X92710607Y-94610607D01*
X92713898Y-94605644D01*
X92715000Y-94600000D01*
X92715000Y-93110912D01*
X96174815Y-93110912D01*
X96336610Y-93502486D01*
X96635938Y-93802337D01*
X97027229Y-93964815D01*
X97450912Y-93965185D01*
X97842486Y-93803390D01*
X98142337Y-93504062D01*
X98304815Y-93112771D01*
X98305185Y-92689088D01*
X98143390Y-92297514D01*
X97844062Y-91997663D01*
X97452771Y-91835185D01*
X97029088Y-91834815D01*
X96637514Y-91996610D01*
X96337663Y-92295938D01*
X96175185Y-92687229D01*
X96174815Y-93110912D01*
X92715000Y-93110912D01*
X92715000Y-90615000D01*
X109900000Y-90615000D01*
X109905836Y-90613818D01*
X109910607Y-90610607D01*
X111310607Y-89210607D01*
X111313898Y-89205644D01*
X111315000Y-89200000D01*
X111315000Y-72000000D01*
X113431768Y-72000000D01*
X113431768Y-73600000D01*
X113443273Y-73661145D01*
X113479410Y-73717303D01*
X113534548Y-73754978D01*
X113600000Y-73768232D01*
X115200000Y-73768232D01*
X115261145Y-73756727D01*
X115317303Y-73720590D01*
X115354978Y-73665452D01*
X115368232Y-73600000D01*
X115368232Y-72000000D01*
X115356727Y-71938855D01*
X115320590Y-71882697D01*
X115265452Y-71845022D01*
X115200000Y-71831768D01*
X113600000Y-71831768D01*
X113538855Y-71843273D01*
X113482697Y-71879410D01*
X113445022Y-71934548D01*
X113431768Y-72000000D01*
X111315000Y-72000000D01*
X111315000Y-67720000D01*
X113416095Y-67720000D01*
X113489551Y-68089290D01*
X113698737Y-68402358D01*
X114011805Y-68611544D01*
X114381095Y-68685000D01*
X114418905Y-68685000D01*
X114788195Y-68611544D01*
X115101263Y-68402358D01*
X115310449Y-68089290D01*
X115383905Y-67720000D01*
X115310449Y-67350710D01*
X115101263Y-67037642D01*
X114788195Y-66828456D01*
X114418905Y-66755000D01*
X114381095Y-66755000D01*
X114011805Y-66828456D01*
X113698737Y-67037642D01*
X113489551Y-67350710D01*
X113416095Y-67720000D01*
X111315000Y-67720000D01*
X111315000Y-64800000D01*
X111313818Y-64794164D01*
X111310607Y-64789393D01*
X109315000Y-62793786D01*
X109315000Y-55758462D01*
X232884599Y-55758462D01*
X233236294Y-56609629D01*
X233886945Y-57261418D01*
X234737498Y-57614598D01*
X235658462Y-57615401D01*
X236509629Y-57263706D01*
X237161418Y-56613055D01*
X237514598Y-55762502D01*
X237515401Y-54841538D01*
X237163706Y-53990371D01*
X236513055Y-53338582D01*
X235662502Y-52985402D01*
X234741538Y-52984599D01*
X233890371Y-53336294D01*
X233238582Y-53986945D01*
X232885402Y-54837498D01*
X232884599Y-55758462D01*
X109315000Y-55758462D01*
X109315000Y-49407320D01*
X113025270Y-49407320D01*
X113025270Y-51991520D01*
X113094964Y-52341893D01*
X113293434Y-52638926D01*
X113590467Y-52837396D01*
X113940840Y-52907090D01*
X114291213Y-52837396D01*
X114588246Y-52638926D01*
X114786716Y-52341893D01*
X114856410Y-51991520D01*
X114856410Y-49407320D01*
X115565270Y-49407320D01*
X115565270Y-51991520D01*
X115634964Y-52341893D01*
X115833434Y-52638926D01*
X116130467Y-52837396D01*
X116480840Y-52907090D01*
X116831213Y-52837396D01*
X117128246Y-52638926D01*
X117326716Y-52341893D01*
X117396410Y-51991520D01*
X117396410Y-49407320D01*
X118105270Y-49407320D01*
X118105270Y-51991520D01*
X118174964Y-52341893D01*
X118373434Y-52638926D01*
X118670467Y-52837396D01*
X119020840Y-52907090D01*
X119371213Y-52837396D01*
X119668246Y-52638926D01*
X119866716Y-52341893D01*
X119936410Y-51991520D01*
X119936410Y-49407320D01*
X123185270Y-49407320D01*
X123185270Y-51991520D01*
X123254964Y-52341893D01*
X123453434Y-52638926D01*
X123750467Y-52837396D01*
X124100840Y-52907090D01*
X124451213Y-52837396D01*
X124748246Y-52638926D01*
X124946716Y-52341893D01*
X125016410Y-51991520D01*
X125016410Y-49407320D01*
X135885270Y-49407320D01*
X135885270Y-51991520D01*
X135954964Y-52341893D01*
X136153434Y-52638926D01*
X136450467Y-52837396D01*
X136800840Y-52907090D01*
X137151213Y-52837396D01*
X137448246Y-52638926D01*
X137646716Y-52341893D01*
X137716410Y-51991520D01*
X137716410Y-49407320D01*
X138425270Y-49407320D01*
X138425270Y-51991520D01*
X138494964Y-52341893D01*
X138693434Y-52638926D01*
X138990467Y-52837396D01*
X139340840Y-52907090D01*
X139691213Y-52837396D01*
X139988246Y-52638926D01*
X140186716Y-52341893D01*
X140256410Y-51991520D01*
X140256410Y-49407320D01*
X140965270Y-49407320D01*
X140965270Y-51991520D01*
X141034964Y-52341893D01*
X141233434Y-52638926D01*
X141530467Y-52837396D01*
X141880840Y-52907090D01*
X142231213Y-52837396D01*
X142528246Y-52638926D01*
X142726716Y-52341893D01*
X142796410Y-51991520D01*
X142796410Y-49407320D01*
X143505270Y-49407320D01*
X143505270Y-51991520D01*
X143574964Y-52341893D01*
X143773434Y-52638926D01*
X144070467Y-52837396D01*
X144420840Y-52907090D01*
X144771213Y-52837396D01*
X145068246Y-52638926D01*
X145266716Y-52341893D01*
X145336410Y-51991520D01*
X145336410Y-49407320D01*
X146045270Y-49407320D01*
X146045270Y-51991520D01*
X146114964Y-52341893D01*
X146313434Y-52638926D01*
X146610467Y-52837396D01*
X146960840Y-52907090D01*
X147311213Y-52837396D01*
X147608246Y-52638926D01*
X147806716Y-52341893D01*
X147876410Y-51991520D01*
X147876410Y-51227776D01*
X194234539Y-51227776D01*
X194639406Y-52207629D01*
X195388428Y-52957959D01*
X196367573Y-53364536D01*
X197427776Y-53365461D01*
X198407629Y-52960594D01*
X199157959Y-52211572D01*
X199564536Y-51232427D01*
X199565461Y-50172224D01*
X199490626Y-49991108D01*
X202234833Y-49991108D01*
X202381436Y-50345914D01*
X202652658Y-50617610D01*
X203007208Y-50764832D01*
X203391108Y-50765167D01*
X203745914Y-50618564D01*
X204017610Y-50347342D01*
X204164832Y-49992792D01*
X204165167Y-49608892D01*
X204018564Y-49254086D01*
X203747342Y-48982390D01*
X203392792Y-48835168D01*
X203008892Y-48834833D01*
X202654086Y-48981436D01*
X202382390Y-49252658D01*
X202235168Y-49607208D01*
X202234833Y-49991108D01*
X199490626Y-49991108D01*
X199160594Y-49192371D01*
X198411572Y-48442041D01*
X197432427Y-48035464D01*
X196372224Y-48034539D01*
X195392371Y-48439406D01*
X194642041Y-49188428D01*
X194235464Y-50167573D01*
X194234539Y-51227776D01*
X147876410Y-51227776D01*
X147876410Y-49407320D01*
X147806716Y-49056947D01*
X147608246Y-48759914D01*
X147311213Y-48561444D01*
X146960840Y-48491750D01*
X146610467Y-48561444D01*
X146313434Y-48759914D01*
X146114964Y-49056947D01*
X146045270Y-49407320D01*
X145336410Y-49407320D01*
X145266716Y-49056947D01*
X145068246Y-48759914D01*
X144771213Y-48561444D01*
X144420840Y-48491750D01*
X144070467Y-48561444D01*
X143773434Y-48759914D01*
X143574964Y-49056947D01*
X143505270Y-49407320D01*
X142796410Y-49407320D01*
X142726716Y-49056947D01*
X142528246Y-48759914D01*
X142231213Y-48561444D01*
X141880840Y-48491750D01*
X141530467Y-48561444D01*
X141233434Y-48759914D01*
X141034964Y-49056947D01*
X140965270Y-49407320D01*
X140256410Y-49407320D01*
X140186716Y-49056947D01*
X139988246Y-48759914D01*
X139691213Y-48561444D01*
X139340840Y-48491750D01*
X138990467Y-48561444D01*
X138693434Y-48759914D01*
X138494964Y-49056947D01*
X138425270Y-49407320D01*
X137716410Y-49407320D01*
X137646716Y-49056947D01*
X137448246Y-48759914D01*
X137151213Y-48561444D01*
X136800840Y-48491750D01*
X136450467Y-48561444D01*
X136153434Y-48759914D01*
X135954964Y-49056947D01*
X135885270Y-49407320D01*
X125016410Y-49407320D01*
X124946716Y-49056947D01*
X124748246Y-48759914D01*
X124451213Y-48561444D01*
X124100840Y-48491750D01*
X123750467Y-48561444D01*
X123453434Y-48759914D01*
X123254964Y-49056947D01*
X123185270Y-49407320D01*
X119936410Y-49407320D01*
X119866716Y-49056947D01*
X119668246Y-48759914D01*
X119371213Y-48561444D01*
X119020840Y-48491750D01*
X118670467Y-48561444D01*
X118373434Y-48759914D01*
X118174964Y-49056947D01*
X118105270Y-49407320D01*
X117396410Y-49407320D01*
X117326716Y-49056947D01*
X117128246Y-48759914D01*
X116831213Y-48561444D01*
X116480840Y-48491750D01*
X116130467Y-48561444D01*
X115833434Y-48759914D01*
X115634964Y-49056947D01*
X115565270Y-49407320D01*
X114856410Y-49407320D01*
X114786716Y-49056947D01*
X114588246Y-48759914D01*
X114291213Y-48561444D01*
X113940840Y-48491750D01*
X113590467Y-48561444D01*
X113293434Y-48759914D01*
X113094964Y-49056947D01*
X113025270Y-49407320D01*
X109315000Y-49407320D01*
X109315000Y-47892088D01*
X177934919Y-47892088D01*
X178005562Y-48063057D01*
X178136255Y-48193978D01*
X178307100Y-48264919D01*
X178492088Y-48265081D01*
X178663057Y-48194438D01*
X178765674Y-48092000D01*
X185600000Y-48092000D01*
X185711744Y-48069773D01*
X185806475Y-48006475D01*
X186047995Y-47764955D01*
X186192088Y-47765081D01*
X186363057Y-47694438D01*
X186493978Y-47563745D01*
X186524139Y-47491108D01*
X204734833Y-47491108D01*
X204881436Y-47845914D01*
X205152658Y-48117610D01*
X205507208Y-48264832D01*
X205891108Y-48265167D01*
X206245914Y-48118564D01*
X206517610Y-47847342D01*
X206664832Y-47492792D01*
X206665167Y-47108892D01*
X206518564Y-46754086D01*
X206247342Y-46482390D01*
X205892792Y-46335168D01*
X205508892Y-46334833D01*
X205154086Y-46481436D01*
X204882390Y-46752658D01*
X204735168Y-47107208D01*
X204734833Y-47491108D01*
X186524139Y-47491108D01*
X186564919Y-47392900D01*
X186565081Y-47207912D01*
X186494438Y-47036943D01*
X186363745Y-46906022D01*
X186192900Y-46835081D01*
X186007912Y-46834919D01*
X185836943Y-46905562D01*
X185706022Y-47036255D01*
X185635081Y-47207100D01*
X185634954Y-47352096D01*
X185479050Y-47508000D01*
X178765545Y-47508000D01*
X178663745Y-47406022D01*
X178492900Y-47335081D01*
X178307912Y-47334919D01*
X178136943Y-47405562D01*
X178006022Y-47536255D01*
X177935081Y-47707100D01*
X177934919Y-47892088D01*
X109315000Y-47892088D01*
X109315000Y-45615000D01*
X240585000Y-45615000D01*
X240585000Y-59985000D01*
M02*
