G04 #@! TF.FileFunction,Soldermask,Bot*
%FSLAX46Y46*%
G04 Gerber Fmt 4.6, Leading zero omitted, Abs format (unit mm)*
G04 Created by KiCad (PCBNEW 4.0.2-stable) date 2017-02-13 18:05:18*
%MOMM*%
G01*
G04 APERTURE LIST*
%ADD10C,0.100000*%
%ADD11O,1.901140X4.400500*%
%ADD12C,5.400000*%
%ADD13C,4.700000*%
%ADD14C,2.400000*%
%ADD15R,2.400000X2.400000*%
%ADD16R,2.200000X2.200000*%
%ADD17C,2.200000*%
%ADD18C,3.400000*%
%ADD19C,3.100000*%
%ADD20R,2.000000X2.800000*%
%ADD21O,2.000000X2.800000*%
%ADD22C,2.800000*%
%ADD23C,2.000000*%
%ADD24C,1.800000*%
%ADD25O,1.800000X1.800000*%
%ADD26O,1.901140X1.299160*%
%ADD27R,1.901140X1.299160*%
%ADD28R,2.000000X2.000000*%
%ADD29O,2.000000X2.000000*%
%ADD30O,2.099260X3.900120*%
%ADD31R,2.400000X3.000000*%
%ADD32O,2.400000X3.000000*%
%ADD33R,2.100000X2.100000*%
%ADD34O,2.100000X2.100000*%
%ADD35R,1.974800X2.686000*%
%ADD36O,1.974800X2.686000*%
%ADD37R,1.900000X1.900000*%
%ADD38C,1.900000*%
%ADD39C,3.600000*%
%ADD40R,3.000000X2.400000*%
%ADD41O,3.000000X2.400000*%
%ADD42R,2.800000X2.800000*%
%ADD43O,2.800000X2.800000*%
%ADD44C,1.000000*%
G04 APERTURE END LIST*
D10*
D11*
X111400840Y-50699420D03*
X113940840Y-50699420D03*
X116480840Y-50699420D03*
X119020840Y-50699420D03*
X121560840Y-50699420D03*
X124100840Y-50699420D03*
X126640840Y-50699420D03*
X129180840Y-50699420D03*
X131720840Y-50699420D03*
X134260840Y-50699420D03*
X136800840Y-50699420D03*
X139340840Y-50699420D03*
X141880840Y-50699420D03*
X144420840Y-50699420D03*
X146960840Y-50699420D03*
X149500840Y-50699420D03*
D12*
X196900000Y-50700000D03*
X103900000Y-105700000D03*
D13*
X235200000Y-55300000D03*
X74600000Y-55300000D03*
D14*
X76600000Y-115900160D03*
X76600000Y-123499840D03*
D15*
X154300000Y-91900000D03*
D14*
X154300000Y-86900000D03*
D15*
X152300000Y-92572144D03*
D14*
X156300000Y-86227856D03*
D15*
X163700000Y-113100000D03*
D14*
X163700000Y-118100000D03*
D15*
X165700000Y-112427856D03*
D14*
X161700000Y-118772144D03*
D15*
X176900000Y-149900000D03*
D14*
X176900000Y-144900000D03*
D15*
X174900000Y-150572144D03*
D14*
X178900000Y-144227856D03*
X64500000Y-68700000D03*
X64500000Y-76200000D03*
D16*
X94700000Y-92900000D03*
D17*
X97240000Y-92900000D03*
D16*
X94700000Y-100500000D03*
D17*
X97240000Y-100500000D03*
D18*
X207600000Y-149900000D03*
X185100000Y-149900000D03*
D19*
X196350000Y-149900000D03*
D20*
X169200000Y-123200000D03*
D21*
X166660000Y-130820000D03*
X166660000Y-123200000D03*
X169200000Y-130820000D03*
D22*
X151900000Y-100400000D03*
X151900000Y-108400000D03*
D23*
X203200000Y-49800000D03*
X205700000Y-47300000D03*
X208200000Y-49800000D03*
X222200000Y-151500000D03*
X227200000Y-152750000D03*
D24*
X64500000Y-81400000D03*
D25*
X64500000Y-83940000D03*
D17*
X83600000Y-68100000D03*
X76100000Y-66700000D03*
D26*
X76600000Y-131730000D03*
X76600000Y-130460000D03*
D27*
X76600000Y-133000000D03*
D28*
X114400000Y-72800000D03*
D29*
X106780000Y-67720000D03*
X114400000Y-70260000D03*
X106780000Y-70260000D03*
X114400000Y-67720000D03*
X106780000Y-72800000D03*
D30*
X94200000Y-67500000D03*
X91660000Y-67500000D03*
X96740000Y-67500000D03*
D31*
X222300000Y-146200000D03*
D32*
X224840000Y-146200000D03*
X227380000Y-146200000D03*
D33*
X138400000Y-113500000D03*
D34*
X138400000Y-116040000D03*
X138400000Y-118580000D03*
X138400000Y-121120000D03*
X138400000Y-123660000D03*
X138400000Y-126200000D03*
D35*
X129550000Y-112380000D03*
D36*
X127010000Y-112380000D03*
X124470000Y-112380000D03*
X121930000Y-112380000D03*
X119390000Y-112380000D03*
X116850000Y-112380000D03*
X114310000Y-112380000D03*
X111770000Y-112380000D03*
X109230000Y-112380000D03*
X106690000Y-112380000D03*
X104150000Y-112380000D03*
X101610000Y-112380000D03*
X99070000Y-112380000D03*
X96530000Y-112380000D03*
X93990000Y-112380000D03*
X93990000Y-127620000D03*
X96530000Y-127620000D03*
X99070000Y-127620000D03*
X101610000Y-127620000D03*
X104150000Y-127620000D03*
X106690000Y-127620000D03*
X109230000Y-127620000D03*
X111770000Y-127620000D03*
X114310000Y-127620000D03*
X116850000Y-127620000D03*
X119390000Y-127620000D03*
X121930000Y-127620000D03*
X124470000Y-127620000D03*
X127010000Y-127620000D03*
X129550000Y-127620000D03*
D33*
X111800000Y-133000000D03*
D34*
X109260000Y-133000000D03*
X106720000Y-133000000D03*
X104180000Y-133000000D03*
X101640000Y-133000000D03*
D37*
X90900000Y-146300000D03*
D38*
X90900000Y-144300000D03*
X90900000Y-142300000D03*
D39*
X94900000Y-84900000D03*
X88600000Y-84900000D03*
X94900000Y-73900000D03*
X88600000Y-73900000D03*
X79900000Y-84600000D03*
X73600000Y-84600000D03*
X79900000Y-73600000D03*
X73600000Y-73600000D03*
D40*
X159300000Y-150000000D03*
D41*
X159300000Y-147460000D03*
D13*
X66900000Y-100300000D03*
X74600000Y-145300000D03*
X235200000Y-145300000D03*
D42*
X166600000Y-143600000D03*
D43*
X166600000Y-138520000D03*
D42*
X166600000Y-152700000D03*
D43*
X166600000Y-147620000D03*
D44*
X161900000Y-92800000D03*
X160800000Y-92900000D03*
X138700000Y-100000000D03*
X171000000Y-134700000D03*
X80800000Y-135900000D03*
X156100000Y-128000000D03*
X158200000Y-128000000D03*
X157200000Y-128100000D03*
X158700000Y-129500000D03*
X158900000Y-130300000D03*
X158600000Y-131200000D03*
X155700000Y-131200000D03*
X155600000Y-129500000D03*
X155000000Y-130300000D03*
X174800000Y-132800000D03*
X181800000Y-101300000D03*
X181900000Y-99900000D03*
X181900000Y-98500000D03*
X181900000Y-97300000D03*
X181800000Y-104000000D03*
X181900000Y-105400000D03*
X181800000Y-106700000D03*
X181700000Y-107800000D03*
X181800000Y-102600000D03*
X168600000Y-107100000D03*
X167100000Y-107200000D03*
X165000000Y-107100000D03*
X163000000Y-92900000D03*
X164200000Y-106000000D03*
X164200000Y-102600000D03*
X178400000Y-47800000D03*
X186100000Y-47300000D03*
X110500000Y-97700000D03*
X111900000Y-97800000D03*
X132800000Y-98100000D03*
X132800000Y-104300000D03*
X134700000Y-98100000D03*
X134700000Y-103200000D03*
X137100000Y-98100000D03*
X136400000Y-102100000D03*
X88500000Y-90100000D03*
M02*
